<?xml version="1.0" encoding="UTF-8" standalone="no"?>
<!DOCTYPE svg PUBLIC "-//W3C//DTD SVG 1.1//EN" "http://www.w3.org/Graphics/SVG/1.1/DTD/svg11.dtd">
<svg width="100%" height="100%" viewBox="0 0 142 216" version="1.1" xmlns="http://www.w3.org/2000/svg" xmlns:xlink="http://www.w3.org/1999/xlink" xml:space="preserve" xmlns:serif="http://www.serif.com/" style="fill-rule:evenodd;clip-rule:evenodd;stroke-linejoin:round;stroke-miterlimit:1.5;">
    <g transform="matrix(1,0,0,1,-0.258329,-29.544)">
        <g transform="matrix(0.154726,0,0,0.154726,-0.755761,15.7244)">
            <g id="Rand">
                <path d="M462.45,152.74C546.77,133.064 609.303,151.102 637.895,162.859C668.481,134.814 752.482,74.924 896.69,94.424C909.252,96.122 913.223,104.268 914.614,106.893C919.099,115.355 920.068,125.193 910.438,134.857C909.743,135.554 905.751,140.265 896.425,141.755C889.907,142.796 847.731,147.094 822.436,156.378C820.624,157.043 818.734,157.795 816.8,158.61C843.574,170.588 855.894,182.166 855.894,182.166C863.037,188.612 865.597,198.725 862.382,207.793C859.167,216.861 850.809,223.103 841.201,223.611L735.232,233.115C808.169,320.036 799.033,409.264 799.033,427.5C799.033,442.835 793.233,506.201 790.801,532.067C809.485,553.125 850.097,611.332 854.521,723.038C859.932,859.656 812.959,1001.29 808.145,1015.62C803.384,1029.79 779.34,1083.64 769.128,1101.28C759.402,1118.08 696.103,1214.23 688.907,1226.11C682.408,1236.84 606.607,1349.85 581.672,1376.32C581.672,1376.32 561.214,1412.74 541.585,1436.73C524.138,1458.05 502.386,1476.31 478.591,1482.6C477.991,1482.75 471.987,1483.51 464.868,1483.5C456.353,1483.48 445.912,1482.65 445.195,1482.46C421.4,1476.17 399.648,1457.92 382.201,1436.6C362.572,1412.61 342.113,1376.19 342.113,1376.19C317.178,1349.72 241.378,1236.71 234.879,1225.98C227.683,1214.1 164.384,1117.95 154.658,1101.15C144.446,1083.51 120.402,1029.66 115.641,1015.49C110.826,1001.16 63.854,859.525 69.265,722.906C73.689,611.199 114.302,552.992 132.981,531.939C130.552,506.071 124.753,442.704 124.753,427.368C124.753,409.132 115.617,319.904 188.554,232.983L82.584,223.479C72.976,222.971 64.619,216.73 61.404,207.661C58.189,198.593 60.749,188.481 67.891,182.034C67.891,182.034 80.212,170.457 106.986,158.479C105.052,157.663 103.162,156.911 101.35,156.246C76.055,146.962 33.879,142.664 27.36,141.623C1.451,137.484 8.273,108.458 9.171,106.761C10.563,104.136 14.534,95.991 27.096,94.292C171.539,74.761 255.579,134.878 286.037,162.863C314.829,151.313 378.218,133.302 462.45,152.74Z" style="fill:none;stroke:black;stroke-width:2.29px;"/>
            </g>
        </g>
        <g id="Kupfer">
            <path id="Ausen-Rand" serif:id="Ausen Rand" d="M70.797,39.357C83.844,36.313 93.519,39.104 97.943,40.923C102.676,36.584 115.673,27.317 137.985,30.334C139.929,30.597 140.544,31.857 140.759,32.264C141.453,33.573 141.603,35.095 140.113,36.59C140.005,36.698 139.388,37.427 137.945,37.658C136.936,37.819 130.41,38.484 126.496,39.92C126.216,40.023 125.924,40.139 125.624,40.266C129.767,42.119 131.673,43.91 131.673,43.91C132.778,44.908 133.175,46.472 132.677,47.875C132.18,49.278 130.887,50.244 129.4,50.323L113.004,51.793C124.289,65.242 122.875,79.048 122.875,81.87C122.875,84.243 121.978,94.047 121.602,98.049C124.493,101.307 130.776,110.313 131.461,127.597C132.298,148.736 125.03,170.65 124.285,172.867C123.549,175.059 119.828,183.392 118.248,186.121C116.743,188.72 106.949,203.597 105.836,205.436C104.83,207.096 93.102,224.582 89.244,228.677C89.244,228.677 86.079,234.311 83.042,238.023C80.342,241.323 76.976,244.147 73.295,245.12C73.202,245.145 72.273,245.262 71.171,245.26C69.854,245.257 68.238,245.129 68.127,245.1C64.446,244.127 61.08,241.302 58.381,238.003C55.343,234.291 52.178,228.656 52.178,228.656C48.32,224.562 36.592,207.076 35.586,205.415C34.473,203.577 24.679,188.7 23.174,186.101C21.594,183.371 17.874,175.039 17.137,172.847C16.392,170.63 9.124,148.715 9.961,127.577C10.646,110.293 16.93,101.287 19.82,98.029C19.444,94.027 18.547,84.222 18.547,81.849C18.547,79.028 17.133,65.222 28.418,51.773L12.022,50.302C10.536,50.224 9.242,49.258 8.745,47.855C8.248,46.452 8.644,44.887 9.749,43.89C9.749,43.89 11.655,42.098 15.798,40.245C15.498,40.119 15.206,40.003 14.926,39.9C11.012,38.463 4.486,37.798 3.478,37.637C-0.531,36.997 0.524,32.506 0.663,32.243C0.879,31.837 1.493,30.577 3.437,30.314C25.786,27.292 38.789,36.593 43.502,40.924C47.956,39.136 57.764,36.35 70.797,39.357ZM88.23,74.917C88.219,75.042 91.211,77.897 88.741,80.25C86.301,82.573 84.219,79.557 84.104,79.642C79.74,82.879 81.335,84.389 81.671,84.705C84.321,87.196 89.603,87.124 91.833,84.67C98.164,77.703 91.9,71.936 91.786,71.97C91.672,72.005 88.241,74.792 88.23,74.917ZM53.595,74.917C53.583,74.792 50.153,72.005 50.039,71.97C49.925,71.936 43.66,77.703 49.992,84.67C52.222,87.124 57.504,87.196 60.154,84.705C60.49,84.389 62.085,82.879 57.721,79.642C57.605,79.557 55.524,82.573 53.084,80.25C50.614,77.897 53.606,75.042 53.595,74.917Z" style="stroke:rgb(255,241,241);stroke-width:0.35px;"/>
        </g>
        <g id="Lötstop">
            <g transform="matrix(0.154726,0,0,0.154726,-0.791769,15.7021)">
                <g id="Umrandung">
                    <path d="M462.348,177.194C353.038,150.081 280.787,191.48 280.787,191.48C280.787,191.48 201.409,94.744 30.286,117.883C27.88,118.209 79.737,122.955 109.553,133.898C139.368,144.841 170.418,163.199 162.053,165.166C108.047,177.859 83.841,199.707 83.841,199.707C83.841,199.707 247.139,208.342 237.641,216.743C137.394,305.408 148.559,408.355 148.559,427.368C148.559,446.381 157.726,540.711 157.726,540.711C157.726,540.711 98.305,591.2 93.052,723.848C87.798,856.496 133.532,993.993 138.207,1007.9C142.727,1021.36 165.565,1072.48 175.26,1089.22C184.955,1105.97 248.069,1201.8 255.242,1213.65C261.61,1224.16 336.298,1335.84 359.88,1360.33C368.17,1368.93 402.971,1446.68 451.279,1459.45C452.107,1459.67 434.157,1420.07 425.63,1376.5C419.951,1347.48 391.405,1274.26 336.076,1217.94C331.228,1213.01 272.939,1203.55 252.59,1182.63C244.272,1174.09 197.779,1134.15 167.495,1015.79C137.033,896.732 151.041,710.344 192.462,652.071C233.884,593.798 340.095,570.859 378.649,648.801C380.025,651.583 386.038,552.403 284.96,550.257C205.867,548.579 167.702,585.689 135.086,706.454C134.367,709.116 146.008,623.21 196.966,566.021C225.071,534.146 226.558,509.396 227.461,504.32C228.363,499.243 286.335,581.535 385.822,522.951C390.252,520.342 305.173,550.271 245.326,484.996C187.399,421.814 223.812,369.918 223.812,369.918C223.812,369.918 178.933,417.12 201.773,471.593C202.831,474.115 174.378,510.808 172.934,509.292C170.572,506.812 174.204,343.071 226.56,289.496C228.703,287.303 236.629,277.759 243.371,269.983C247.559,265.151 267.503,244.913 293.778,230.106C293.901,230.037 313.866,235.357 341.301,244.067C383.157,257.355 404.619,287.219 405.747,288.347C410.164,292.764 389.52,233.068 336.93,214.171C334.227,213.2 396.937,186.274 462.091,194.608C462.229,194.626 465.998,194.465 466.272,194.432C529.608,186.776 589.559,213.331 586.856,214.303C534.266,233.199 513.622,292.895 518.039,288.478C519.167,287.35 540.629,257.487 582.484,244.199C609.92,235.488 629.885,230.168 630.008,230.238C656.282,245.045 676.226,265.283 680.415,270.114C687.156,277.89 695.082,287.435 697.225,289.627C749.582,343.202 753.214,506.943 750.852,509.423C749.408,510.94 720.955,474.246 722.012,471.724C744.853,417.252 699.974,370.05 699.974,370.05C699.974,370.05 736.387,421.946 678.46,485.127C618.613,550.402 533.534,520.474 537.964,523.082C637.451,581.667 695.423,499.375 696.325,504.451C697.228,509.528 698.714,534.278 726.82,566.153C777.778,623.342 789.419,709.248 788.7,706.586C756.083,585.82 717.919,548.71 638.826,550.389C537.748,552.534 543.761,651.715 545.137,648.933C583.691,570.991 689.902,593.93 731.323,652.203C772.745,710.475 786.753,896.864 756.291,1015.92C726.007,1134.28 679.514,1174.22 671.196,1182.77C650.847,1203.68 592.558,1213.14 587.71,1218.07C532.381,1274.39 503.835,1347.61 498.156,1376.63C489.629,1420.2 471.679,1459.8 472.507,1459.58C520.815,1446.81 555.616,1369.07 563.906,1360.46C587.488,1335.97 662.176,1224.3 668.543,1213.78C675.717,1201.93 738.83,1106.1 748.525,1089.35C758.221,1072.61 781.059,1021.49 785.579,1008.04C790.253,994.124 835.987,856.628 830.734,723.98C825.481,591.332 766.06,540.843 766.06,540.843C766.06,540.843 775.227,446.513 775.227,427.5C775.227,408.487 786.392,305.54 686.145,216.874C676.647,208.473 839.944,199.838 839.944,199.838C839.944,199.838 815.738,177.991 761.733,165.297C753.368,163.331 784.418,144.973 814.233,134.03C844.049,123.087 895.906,118.34 893.5,118.015C722.377,94.876 642.999,191.612 642.999,191.612C642.999,191.612 571.837,150.081 462.526,177.194L462.348,177.194Z" style="fill:rgb(204,159,51);"/>
                </g>
            </g>
            <g id="Flammen" transform="matrix(0.354331,0,0,0.354331,-110.551,-141.732)">
                <g transform="matrix(0.436671,0,0,0.436671,309.765,444.315)">
                    <path d="M381.165,673.776C381.516,672.63 385.482,712.71 394.151,727.699C400.325,738.374 417.507,789.759 416.362,820.151C415.249,849.709 418.302,893.215 371.965,933.259C371.341,933.799 380.341,922.227 378.991,909.866C377.053,892.107 369.034,897.513 361.755,835.706C354.448,773.656 376.88,687.792 381.165,673.776Z" style="fill:rgb(204,159,51);stroke:black;stroke-width:2.29px;"/>
                </g>
                <g transform="matrix(0.436671,0,0,0.436671,309.765,444.315)">
                    <path d="M329.608,735.822C321.894,758.885 319.503,789.359 340.054,830.013C363.77,876.928 356.388,965.057 338.349,996.156C312.361,1040.96 337.962,1089.13 339.422,1093.03C339.925,1094.37 271.053,1014.21 285.118,893.364C298.39,779.337 329.608,735.822 329.608,735.822Z" style="fill:rgb(204,159,51);stroke:black;stroke-width:2.29px;"/>
                </g>
                <g transform="matrix(0.436671,0,0,0.436671,309.765,444.315)">
                    <path d="M385.783,957.357C387.545,957.357 372.488,1034.38 416.848,1072.28C423.306,1077.79 443.571,1114.33 407.152,1135.58C394.168,1143.15 364.046,1126.1 358.314,1078.8C353.166,1036.34 347.102,1023.91 385.783,957.357Z" style="fill:rgb(204,159,51);stroke:black;stroke-width:2.29px;"/>
                </g>
                <g transform="matrix(0.436671,0,0,0.436671,309.765,444.315)">
                    <path d="M459.093,1157.07C459.093,1157.07 436.21,1194.8 433.674,1211.11C432.37,1219.5 426.736,1237.73 447.606,1275.61C451.537,1282.74 457.902,1303.19 458.945,1303.52C460.15,1303.91 462.218,1285.78 475.637,1264.75C488.013,1245.35 485.66,1202.31 473.586,1185.92C469.826,1180.81 459.093,1157.07 459.093,1157.07Z" style="fill:rgb(204,159,51);stroke:black;stroke-width:2.29px;"/>
                </g>
                <g transform="matrix(0.436671,0,0,0.436671,309.765,444.315)">
                    <path d="M457.595,639.186C457.361,639.145 452.627,658.56 446.294,678.712C440.884,695.926 433.88,713.49 432.256,721.814C428.731,739.882 432.17,765.847 448.121,791.882C456.15,804.988 452.336,823.099 453.879,823.981C454.768,824.489 457.347,809.137 473.745,781.242C481.564,767.941 483.416,736.062 482.239,727.535C481.311,720.812 477.226,703.21 467.137,680.844C461.138,667.545 458.883,639.416 457.595,639.186Z" style="fill:rgb(204,159,51);stroke:black;stroke-width:2.29px;"/>
                </g>
                <g transform="matrix(0.436671,0,0,0.436671,309.765,444.315)">
                    <path d="M214.565,873.373C217.044,873.373 233.51,931.489 254.365,967.632C273.152,1000.19 304.467,1112.04 310.885,1133.62C319.343,1162.07 338.191,1191.98 337.485,1192.68C336.78,1193.39 211.134,1170.91 205.054,1024.54C202.532,963.816 212.087,873.373 214.565,873.373Z" style="fill:rgb(204,159,51);stroke:black;stroke-width:2.29px;"/>
                </g>
                <g transform="matrix(-0.436671,0,0,0.436671,712.753,444.593)">
                    <path d="M381.165,673.776C381.516,672.63 385.482,712.71 394.151,727.699C400.325,738.374 417.507,789.759 416.362,820.151C415.249,849.709 418.302,893.215 371.965,933.259C371.341,933.799 380.341,922.227 378.991,909.866C377.053,892.107 369.034,897.513 361.755,835.706C354.448,773.656 376.88,687.792 381.165,673.776Z" style="fill:rgb(204,159,51);stroke:black;stroke-width:2.29px;"/>
                </g>
                <g transform="matrix(-0.436671,0,0,0.436671,712.753,444.593)">
                    <path d="M329.608,735.822C321.894,758.885 319.503,789.359 340.054,830.013C363.77,876.928 356.388,965.057 338.349,996.156C312.361,1040.96 337.962,1089.13 339.422,1093.03C339.925,1094.37 271.053,1014.21 285.118,893.364C298.39,779.337 329.608,735.822 329.608,735.822Z" style="fill:rgb(204,159,51);stroke:black;stroke-width:2.29px;"/>
                </g>
                <g transform="matrix(-0.436671,0,0,0.436671,712.753,444.593)">
                    <path d="M385.783,957.357C387.545,957.357 372.488,1034.38 416.848,1072.28C423.306,1077.79 443.571,1114.33 407.152,1135.58C394.168,1143.15 364.046,1126.1 358.314,1078.8C353.166,1036.34 347.102,1023.91 385.783,957.357Z" style="fill:rgb(204,159,51);stroke:black;stroke-width:2.29px;"/>
                </g>
                <g transform="matrix(-0.436671,0,0,0.436671,712.753,444.593)">
                    <path d="M214.565,873.373C217.044,873.373 233.51,931.489 254.365,967.632C273.152,1000.19 304.467,1112.04 310.885,1133.62C319.343,1162.07 338.191,1191.98 337.485,1192.68C336.78,1193.39 211.134,1170.91 205.054,1024.54C202.532,963.816 212.087,873.373 214.565,873.373Z" style="fill:rgb(204,159,51);stroke:black;stroke-width:2.29px;"/>
                </g>
            </g>
            <g transform="matrix(0.154726,0,0,0.154726,-0.791769,15.7021)">
                <g id="Schnabel">
                    <path d="M463.154,612.746C461.878,612.746 457.858,591.149 445.476,571.703C433.913,553.543 416.953,540.899 411.33,532.126C408.794,528.171 406.599,504.702 416.002,483.803C422.558,469.23 450.269,433.34 475.951,447.015C520.648,470.814 520.421,533.575 509.161,541.18C470.34,567.398 465.621,612.746 463.154,612.746ZM429.039,518.743C430.473,522.581 441.641,533.753 449.314,544.665C458.061,557.105 462.646,569.228 462.79,568.737C470.543,542.414 497.771,529.27 496.886,511.899C495.388,482.515 462.472,462.787 462.472,462.787C462.472,462.787 448.659,471.738 440.046,483.963C431.035,496.751 427.47,514.544 429.039,518.743Z" style="fill:rgb(230,169,26);"/>
                </g>
            </g>
            <g id="Augen" transform="matrix(0.354331,0,0,0.354331,-110.551,-141.732)">
                <g id="Links" transform="matrix(0.436671,0,0,0.436671,309.765,444.315)">
                    <path d="M434.223,453.179C434.432,453.847 404.053,487.255 372.376,489.771C246.985,499.732 262.108,383.805 262.118,384.635C263.348,483.235 360.091,474.046 359.031,474.005C305.789,471.928 298.396,424.097 297.73,415.561C294.429,373.232 325.795,360.002 325.451,359.62C304.15,335.96 225.605,290.394 225.605,290.394L242.339,271.019C242.339,271.019 386.547,301.354 434.223,453.179Z" style="fill:rgb(204,159,51);"/>
                </g>
                <g id="Rechts" transform="matrix(0.436671,0,0,0.436671,309.765,444.315)">
                    <path d="M492.631,453.179C540.307,301.354 682.517,271.946 682.517,271.946L699.103,291.129C699.103,291.129 622.703,335.96 601.403,359.62C601.059,360.002 632.425,373.232 629.124,415.561C628.458,424.097 621.064,471.928 567.823,474.005C566.762,474.046 663.506,483.235 664.736,384.635C664.746,383.805 679.869,499.732 554.478,489.771C522.801,487.255 492.421,453.847 492.631,453.179Z" style="fill:rgb(204,159,51);"/>
                </g>
            </g>
            <g id="Augen-Innen" serif:id="Augen Innen" transform="matrix(1,0,0,1,-110.551,-141.732)">
                <g transform="matrix(0.379568,0,0,0.379568,112.473,171.685)">
                    <path d="M136.136,118.461C136.166,118.791 128.282,126.312 134.79,132.51C141.217,138.632 146.702,130.684 147.007,130.91C158.503,139.436 154.302,143.416 153.417,144.248C146.434,150.81 132.519,150.62 126.644,144.156C109.963,125.801 126.468,110.607 126.768,110.698C127.068,110.788 136.106,118.13 136.136,118.461Z" style="fill:url(#_Linear1);"/>
                </g>
                <g transform="matrix(-0.379568,0,0,0.379568,250.454,171.685)">
                    <path d="M136.136,118.461C136.166,118.791 128.282,126.312 134.79,132.51C141.217,138.632 146.702,130.684 147.007,130.91C158.503,139.436 154.302,143.416 153.417,144.248C146.434,150.81 132.519,150.62 126.644,144.156C109.963,125.801 126.468,110.607 126.768,110.698C127.068,110.788 136.106,118.13 136.136,118.461Z" style="fill:url(#_Linear2);"/>
                </g>
            </g>
        </g>
    </g>
    <defs>
        <linearGradient id="_Linear1" x1="0" y1="0" x2="1" y2="0" gradientUnits="userSpaceOnUse" gradientTransform="matrix(35.6981,11.5334,-11.5334,35.6981,119.196,129.892)"><stop offset="0" style="stop-color:rgb(230,0,0);stop-opacity:1"/><stop offset="0.23" style="stop-color:rgb(23,237,0);stop-opacity:1"/><stop offset="0.39" style="stop-color:rgb(14,0,211);stop-opacity:1"/><stop offset="0.6" style="stop-color:rgb(206,0,0);stop-opacity:1"/><stop offset="0.75" style="stop-color:rgb(17,205,0);stop-opacity:1"/><stop offset="1" style="stop-color:rgb(15,0,221);stop-opacity:1"/></linearGradient>
        <linearGradient id="_Linear2" x1="0" y1="0" x2="1" y2="0" gradientUnits="userSpaceOnUse" gradientTransform="matrix(35.6981,11.5334,-11.5334,35.6981,119.196,129.892)"><stop offset="0" style="stop-color:rgb(230,0,0);stop-opacity:1"/><stop offset="0.23" style="stop-color:rgb(23,237,0);stop-opacity:1"/><stop offset="0.39" style="stop-color:rgb(14,0,211);stop-opacity:1"/><stop offset="0.6" style="stop-color:rgb(206,0,0);stop-opacity:1"/><stop offset="0.75" style="stop-color:rgb(17,205,0);stop-opacity:1"/><stop offset="1" style="stop-color:rgb(15,0,221);stop-opacity:1"/></linearGradient>
    </defs>
</svg>
