G04 #@! TF.GenerationSoftware,KiCad,Pcbnew,(6.0.10)*
G04 #@! TF.CreationDate,2023-02-21T19:07:07+01:00*
G04 #@! TF.ProjectId,Eule,45756c65-2e6b-4696-9361-645f70636258,rev?*
G04 #@! TF.SameCoordinates,Original*
G04 #@! TF.FileFunction,Copper,L2,Bot*
G04 #@! TF.FilePolarity,Positive*
%FSLAX46Y46*%
G04 Gerber Fmt 4.6, Leading zero omitted, Abs format (unit mm)*
G04 Created by KiCad (PCBNEW (6.0.10)) date 2023-02-21 19:07:07*
%MOMM*%
%LPD*%
G01*
G04 APERTURE LIST*
G04 Aperture macros list*
%AMRoundRect*
0 Rectangle with rounded corners*
0 $1 Rounding radius*
0 $2 $3 $4 $5 $6 $7 $8 $9 X,Y pos of 4 corners*
0 Add a 4 corners polygon primitive as box body*
4,1,4,$2,$3,$4,$5,$6,$7,$8,$9,$2,$3,0*
0 Add four circle primitives for the rounded corners*
1,1,$1+$1,$2,$3*
1,1,$1+$1,$4,$5*
1,1,$1+$1,$6,$7*
1,1,$1+$1,$8,$9*
0 Add four rect primitives between the rounded corners*
20,1,$1+$1,$2,$3,$4,$5,0*
20,1,$1+$1,$4,$5,$6,$7,0*
20,1,$1+$1,$6,$7,$8,$9,0*
20,1,$1+$1,$8,$9,$2,$3,0*%
G04 Aperture macros list end*
G04 #@! TA.AperFunction,SMDPad,CuDef*
%ADD10R,1.200000X2.700000*%
G04 #@! TD*
G04 #@! TA.AperFunction,SMDPad,CuDef*
%ADD11R,3.600000X4.600000*%
G04 #@! TD*
G04 #@! TA.AperFunction,SMDPad,CuDef*
%ADD12RoundRect,0.250000X1.075000X-0.400000X1.075000X0.400000X-1.075000X0.400000X-1.075000X-0.400000X0*%
G04 #@! TD*
G04 #@! TA.AperFunction,SMDPad,CuDef*
%ADD13RoundRect,0.250001X-0.433103X1.087175X-1.087175X0.433103X0.433103X-1.087175X1.087175X-0.433103X0*%
G04 #@! TD*
G04 #@! TA.AperFunction,SMDPad,CuDef*
%ADD14RoundRect,0.250001X-1.087175X-0.433103X-0.433103X-1.087175X1.087175X0.433103X0.433103X1.087175X0*%
G04 #@! TD*
G04 #@! TA.AperFunction,Conductor*
%ADD15C,0.250000*%
G04 #@! TD*
G04 APERTURE END LIST*
D10*
X58500000Y-84550000D03*
X56000000Y-84550000D03*
X53500000Y-84550000D03*
X58500000Y-91450000D03*
X56000000Y-91450000D03*
X53500000Y-91450000D03*
D11*
X41290000Y-71120000D03*
X70590000Y-71120000D03*
D12*
X66040000Y-58470000D03*
X66040000Y-55370000D03*
D13*
X50010000Y-47080000D03*
X47906358Y-49183642D03*
D14*
X61495376Y-47185376D03*
X63599018Y-49289018D03*
D12*
X45720000Y-58470000D03*
X45720000Y-55370000D03*
D15*
X41290000Y-71120000D02*
X41290000Y-62900000D01*
X66040000Y-58470000D02*
X45720000Y-58470000D01*
X41290000Y-62900000D02*
X45720000Y-58470000D01*
X56000000Y-77000000D02*
X56000000Y-85050000D01*
X61880000Y-71120000D02*
X56000000Y-77000000D01*
X70590000Y-71120000D02*
X61880000Y-71120000D01*
X45720000Y-55370000D02*
X45720000Y-51370000D01*
X45720000Y-51370000D02*
X47906358Y-49183642D01*
X66040000Y-55370000D02*
X66040000Y-51730000D01*
X66040000Y-51730000D02*
X63599018Y-49289018D01*
G04 #@! TA.AperFunction,Conductor*
G36*
X35153495Y-30230535D02*
G01*
X35646550Y-30242159D01*
X35649865Y-30242281D01*
X36130934Y-30266479D01*
X36133855Y-30266662D01*
X36365509Y-30283857D01*
X36603452Y-30301519D01*
X36606583Y-30301790D01*
X37063483Y-30347189D01*
X37066753Y-30347558D01*
X37512361Y-30403621D01*
X37515189Y-30404009D01*
X37949888Y-30468731D01*
X37953148Y-30469260D01*
X37986301Y-30475088D01*
X38375139Y-30543446D01*
X38378204Y-30544025D01*
X38788094Y-30626773D01*
X38789055Y-30626967D01*
X38791932Y-30627583D01*
X39180998Y-30715708D01*
X39192592Y-30718334D01*
X39195388Y-30719001D01*
X39208735Y-30722346D01*
X39583507Y-30816271D01*
X39586590Y-30817087D01*
X39963902Y-30922002D01*
X39966580Y-30922780D01*
X40184635Y-30988770D01*
X40332725Y-31033587D01*
X40335488Y-31034458D01*
X40401024Y-31055948D01*
X40690017Y-31150712D01*
X40692964Y-31151719D01*
X41036621Y-31273973D01*
X41038896Y-31274808D01*
X41274498Y-31364010D01*
X41371613Y-31400779D01*
X41374515Y-31401919D01*
X41694700Y-31532294D01*
X41697237Y-31533359D01*
X41883129Y-31613932D01*
X42007749Y-31667947D01*
X42010138Y-31669013D01*
X42055745Y-31689916D01*
X42309835Y-31806374D01*
X42312295Y-31807534D01*
X42600896Y-31947521D01*
X42603340Y-31948739D01*
X42880918Y-32090889D01*
X42883007Y-32091983D01*
X43026553Y-32168919D01*
X43149448Y-32234787D01*
X43151929Y-32236154D01*
X43407659Y-32380781D01*
X43409577Y-32381888D01*
X43654942Y-32526615D01*
X43657137Y-32527942D01*
X43891158Y-32672768D01*
X43892837Y-32673825D01*
X43959219Y-32716377D01*
X44116153Y-32816976D01*
X44118697Y-32818651D01*
X44169500Y-32852977D01*
X44325077Y-32958096D01*
X44331149Y-32962199D01*
X44332371Y-32963035D01*
X44477272Y-33063510D01*
X44535758Y-33104064D01*
X44537919Y-33105596D01*
X44727911Y-33243341D01*
X44729722Y-33244679D01*
X44910763Y-33380936D01*
X44912543Y-33382301D01*
X45082503Y-33515022D01*
X45083880Y-33516112D01*
X45243954Y-33644744D01*
X45245752Y-33646217D01*
X45394179Y-33770064D01*
X45395777Y-33771420D01*
X45414984Y-33787996D01*
X45535117Y-33891672D01*
X45536098Y-33892528D01*
X45604492Y-33952875D01*
X45664762Y-34006055D01*
X45666651Y-34007756D01*
X45694296Y-34033159D01*
X45709305Y-34049626D01*
X45719440Y-34062942D01*
X45730515Y-34071115D01*
X45750893Y-34086153D01*
X45755981Y-34090347D01*
X45756015Y-34090305D01*
X45759521Y-34093094D01*
X45762822Y-34096128D01*
X45773020Y-34103119D01*
X45783370Y-34110214D01*
X45786941Y-34112755D01*
X45829417Y-34144100D01*
X45836640Y-34149430D01*
X45844773Y-34152410D01*
X45845391Y-34152729D01*
X45852539Y-34157629D01*
X45861067Y-34160421D01*
X45861070Y-34160423D01*
X45911257Y-34176856D01*
X45915402Y-34178294D01*
X45964970Y-34196459D01*
X45964978Y-34196461D01*
X45973403Y-34199548D01*
X45982046Y-34200126D01*
X45982728Y-34200258D01*
X45990964Y-34202955D01*
X45999937Y-34203242D01*
X45999938Y-34203242D01*
X46015088Y-34203726D01*
X46052767Y-34204930D01*
X46057092Y-34205144D01*
X46118737Y-34209266D01*
X46127197Y-34207395D01*
X46127888Y-34207330D01*
X46136547Y-34207607D01*
X46196372Y-34192170D01*
X46200635Y-34191149D01*
X46223267Y-34186142D01*
X46228013Y-34185092D01*
X46232541Y-34183325D01*
X46237204Y-34181908D01*
X46237242Y-34182032D01*
X46243535Y-34180000D01*
X46254299Y-34177222D01*
X46268891Y-34173457D01*
X46268894Y-34173456D01*
X46277585Y-34171213D01*
X46285301Y-34166619D01*
X46295333Y-34160646D01*
X46313974Y-34151535D01*
X46437999Y-34103119D01*
X46447001Y-34099605D01*
X46448958Y-34098860D01*
X46457658Y-34095630D01*
X46556971Y-34058756D01*
X46641240Y-34027468D01*
X46643133Y-34026782D01*
X46849883Y-33953755D01*
X46852463Y-33952875D01*
X47074488Y-33879816D01*
X47076647Y-33879127D01*
X47315651Y-33805218D01*
X47317472Y-33804670D01*
X47433372Y-33770737D01*
X47569194Y-33730971D01*
X47571839Y-33730229D01*
X47837589Y-33658792D01*
X47840129Y-33658137D01*
X48120319Y-33589049D01*
X48122473Y-33588538D01*
X48416493Y-33521498D01*
X48419497Y-33520851D01*
X48551662Y-33494088D01*
X48726796Y-33458624D01*
X48729190Y-33458164D01*
X49050836Y-33399596D01*
X49053704Y-33399109D01*
X49387477Y-33346357D01*
X49390190Y-33345959D01*
X49738078Y-33298870D01*
X49740900Y-33298520D01*
X50100882Y-33258095D01*
X50103594Y-33257820D01*
X50476028Y-33224224D01*
X50479446Y-33223963D01*
X50604306Y-33216140D01*
X50863034Y-33199929D01*
X50865718Y-33199789D01*
X51262374Y-33183422D01*
X51265786Y-33183328D01*
X51539019Y-33179461D01*
X51673056Y-33177564D01*
X51676251Y-33177559D01*
X52096517Y-33182379D01*
X52099487Y-33182449D01*
X52341852Y-33191104D01*
X52531823Y-33197889D01*
X52535015Y-33198044D01*
X52976052Y-33225007D01*
X52979578Y-33225272D01*
X53432289Y-33265727D01*
X53435648Y-33266072D01*
X53900109Y-33320148D01*
X53903283Y-33320559D01*
X54377424Y-33388154D01*
X54380905Y-33388700D01*
X54865027Y-33471638D01*
X54868618Y-33472307D01*
X55365081Y-33572377D01*
X55367187Y-33572822D01*
X55654391Y-33636007D01*
X55655071Y-33636159D01*
X55728839Y-33652996D01*
X55745503Y-33651994D01*
X55758916Y-33651187D01*
X55775834Y-33651308D01*
X55796924Y-33652878D01*
X55796926Y-33652878D01*
X55805875Y-33653544D01*
X55839391Y-33646393D01*
X55839806Y-33646321D01*
X55840555Y-33646276D01*
X55842584Y-33645834D01*
X55842589Y-33645833D01*
X55868775Y-33640127D01*
X55869311Y-33640011D01*
X55948327Y-33623154D01*
X55949232Y-33622666D01*
X55950194Y-33622386D01*
X55996496Y-33612297D01*
X56369447Y-33531031D01*
X56385207Y-33527597D01*
X56388412Y-33526942D01*
X56874680Y-33434135D01*
X56878119Y-33433528D01*
X57353992Y-33356307D01*
X57357369Y-33355806D01*
X57597642Y-33323471D01*
X57823695Y-33293050D01*
X57826871Y-33292664D01*
X58188856Y-33253468D01*
X58280990Y-33243492D01*
X58284474Y-33243164D01*
X58387065Y-33234930D01*
X58728969Y-33207489D01*
X58731985Y-33207284D01*
X58957788Y-33194711D01*
X59164326Y-33183212D01*
X59167880Y-33183064D01*
X59389348Y-33176996D01*
X59588978Y-33171527D01*
X59592084Y-33171480D01*
X59748470Y-33171113D01*
X60002582Y-33170517D01*
X60005616Y-33170547D01*
X60218539Y-33175175D01*
X60403840Y-33179203D01*
X60407017Y-33179313D01*
X60792481Y-33197532D01*
X60795875Y-33197738D01*
X60957658Y-33209768D01*
X61170717Y-33225611D01*
X61173267Y-33225828D01*
X61535838Y-33260450D01*
X61538921Y-33260783D01*
X61699701Y-33280165D01*
X61888600Y-33302936D01*
X61891587Y-33303332D01*
X61961269Y-33313428D01*
X62228831Y-33352194D01*
X62231621Y-33352631D01*
X62555774Y-33407296D01*
X62558406Y-33407769D01*
X62870534Y-33467313D01*
X62872922Y-33467793D01*
X63116000Y-33519214D01*
X63171861Y-33531031D01*
X63174597Y-33531642D01*
X63458226Y-33598267D01*
X63461183Y-33598999D01*
X63593402Y-33633450D01*
X63732955Y-33669812D01*
X63734787Y-33670305D01*
X63868963Y-33707576D01*
X63993043Y-33742043D01*
X63995741Y-33742825D01*
X64238017Y-33815982D01*
X64240370Y-33816718D01*
X64469575Y-33890900D01*
X64471876Y-33891670D01*
X64686856Y-33965866D01*
X64688894Y-33966590D01*
X64890080Y-34040010D01*
X64891915Y-34040695D01*
X65078150Y-34111959D01*
X65080194Y-34112762D01*
X65134494Y-34134632D01*
X65157326Y-34143828D01*
X65166671Y-34147592D01*
X65186480Y-34157685D01*
X65200762Y-34166632D01*
X65209405Y-34169072D01*
X65209408Y-34169073D01*
X65238275Y-34177222D01*
X65244445Y-34179328D01*
X65244464Y-34179270D01*
X65248734Y-34180646D01*
X65252888Y-34182319D01*
X65276978Y-34188231D01*
X65277174Y-34188279D01*
X65281373Y-34189386D01*
X65332305Y-34203763D01*
X65332307Y-34203763D01*
X65340943Y-34206201D01*
X65349630Y-34206119D01*
X65350084Y-34206172D01*
X65358526Y-34208244D01*
X65420413Y-34205529D01*
X65424696Y-34205416D01*
X65486593Y-34204835D01*
X65494904Y-34202320D01*
X65495370Y-34202241D01*
X65504043Y-34201860D01*
X65562634Y-34181901D01*
X65566765Y-34180573D01*
X65617412Y-34165246D01*
X65626007Y-34162645D01*
X65633275Y-34157900D01*
X65633701Y-34157693D01*
X65641920Y-34154893D01*
X65692596Y-34119263D01*
X65696149Y-34116856D01*
X65715646Y-34104128D01*
X65715652Y-34104123D01*
X65719724Y-34101465D01*
X65723339Y-34098211D01*
X65727201Y-34095241D01*
X65727285Y-34095351D01*
X65732398Y-34091278D01*
X65753730Y-34076279D01*
X65753732Y-34076277D01*
X65761074Y-34071115D01*
X65774037Y-34054870D01*
X65788230Y-34039809D01*
X65876382Y-33960473D01*
X65877509Y-33959471D01*
X66010367Y-33842747D01*
X66012054Y-33841290D01*
X66154239Y-33720761D01*
X66156056Y-33719250D01*
X66311722Y-33592233D01*
X66312808Y-33591357D01*
X66478945Y-33458832D01*
X66480573Y-33457555D01*
X66653455Y-33324352D01*
X66655795Y-33322593D01*
X66667163Y-33314257D01*
X66743746Y-33258096D01*
X66841355Y-33186516D01*
X66842678Y-33185559D01*
X67039885Y-33044833D01*
X67042079Y-33043302D01*
X67112540Y-32995246D01*
X67249218Y-32902028D01*
X67250783Y-32900979D01*
X67470149Y-32756659D01*
X67471823Y-32755578D01*
X67699556Y-32611092D01*
X67701915Y-32609632D01*
X67940742Y-32465381D01*
X67942787Y-32464171D01*
X68192595Y-32319646D01*
X68195018Y-32318280D01*
X68456921Y-32174377D01*
X68458896Y-32173315D01*
X68706536Y-32042932D01*
X68730642Y-32030240D01*
X68733137Y-32028962D01*
X68766613Y-32012281D01*
X69015742Y-31888138D01*
X69018144Y-31886972D01*
X69311064Y-31748677D01*
X69313483Y-31747567D01*
X69619101Y-31611095D01*
X69621497Y-31610055D01*
X69936585Y-31477488D01*
X69939187Y-31476429D01*
X70265578Y-31347793D01*
X70268313Y-31346751D01*
X70464010Y-31274828D01*
X70605579Y-31222798D01*
X70608295Y-31221836D01*
X70958008Y-31102375D01*
X70960534Y-31101541D01*
X71228528Y-31016270D01*
X71320444Y-30987024D01*
X71323509Y-30986092D01*
X71579292Y-30911875D01*
X71694406Y-30878474D01*
X71697301Y-30877671D01*
X72079842Y-30776495D01*
X72082699Y-30775775D01*
X72251185Y-30735404D01*
X72477114Y-30681269D01*
X72480005Y-30680614D01*
X72884547Y-30593927D01*
X72887727Y-30593288D01*
X73304738Y-30515098D01*
X73307516Y-30514609D01*
X73358381Y-30506246D01*
X73736616Y-30444059D01*
X73739700Y-30443593D01*
X74118834Y-30391097D01*
X74178335Y-30382859D01*
X74181672Y-30382442D01*
X74632888Y-30332199D01*
X74635826Y-30331907D01*
X74810370Y-30316602D01*
X75099723Y-30291231D01*
X75102716Y-30291004D01*
X75339221Y-30276042D01*
X75577080Y-30260994D01*
X75580279Y-30260833D01*
X75873593Y-30249753D01*
X76067561Y-30242426D01*
X76070565Y-30242348D01*
X76295918Y-30239280D01*
X76568983Y-30235562D01*
X76572135Y-30235558D01*
X77082074Y-30241374D01*
X77085309Y-30241453D01*
X77608302Y-30260859D01*
X77611404Y-30261012D01*
X78146205Y-30294073D01*
X78149153Y-30294290D01*
X78433116Y-30318543D01*
X78696117Y-30341005D01*
X78699112Y-30341298D01*
X79258934Y-30402741D01*
X79261490Y-30403049D01*
X79411271Y-30422693D01*
X79545830Y-30440341D01*
X79551389Y-30441197D01*
X79652152Y-30459018D01*
X79664820Y-30461939D01*
X79740047Y-30483433D01*
X79750326Y-30486855D01*
X79802324Y-30506684D01*
X79812215Y-30510456D01*
X79824097Y-30515704D01*
X79872927Y-30540352D01*
X79883343Y-30546246D01*
X79923819Y-30571763D01*
X79933801Y-30578753D01*
X79971068Y-30607636D01*
X79978172Y-30613572D01*
X80008835Y-30641169D01*
X80017185Y-30649420D01*
X80040233Y-30674421D01*
X80046286Y-30681495D01*
X80071390Y-30713125D01*
X80075345Y-30718384D01*
X80095793Y-30747109D01*
X80100321Y-30753929D01*
X80116584Y-30780238D01*
X80119227Y-30784717D01*
X80138297Y-30818620D01*
X80138877Y-30819662D01*
X80146141Y-30832866D01*
X80147782Y-30835850D01*
X80152090Y-30844444D01*
X80160327Y-30862567D01*
X80160333Y-30862579D01*
X80162188Y-30866659D01*
X80164603Y-30870436D01*
X80166742Y-30874373D01*
X80170299Y-30880639D01*
X80196380Y-30932802D01*
X80200670Y-30942354D01*
X80212718Y-30972472D01*
X80226990Y-31008152D01*
X80229848Y-31016054D01*
X80251559Y-31082996D01*
X80254254Y-31092582D01*
X80268319Y-31151442D01*
X80270562Y-31163342D01*
X80275130Y-31196166D01*
X80277811Y-31215438D01*
X80278937Y-31228451D01*
X80280537Y-31274828D01*
X80280592Y-31276426D01*
X80280302Y-31290343D01*
X80277486Y-31327277D01*
X80276550Y-31339547D01*
X80274817Y-31352861D01*
X80265747Y-31401919D01*
X80265686Y-31402248D01*
X80262195Y-31416456D01*
X80247005Y-31465722D01*
X80241861Y-31479491D01*
X80217437Y-31534790D01*
X80211414Y-31546681D01*
X80176102Y-31608095D01*
X80168779Y-31619385D01*
X80117678Y-31689650D01*
X80110556Y-31698564D01*
X80067628Y-31747567D01*
X80033216Y-31786849D01*
X80029265Y-31791153D01*
X80027007Y-31793502D01*
X80018720Y-31802120D01*
X80016993Y-31803880D01*
X79988247Y-31832626D01*
X79983445Y-31837183D01*
X79978523Y-31841613D01*
X79965701Y-31853154D01*
X79961735Y-31856575D01*
X79941630Y-31873200D01*
X79940074Y-31874487D01*
X79931830Y-31880752D01*
X79905988Y-31898763D01*
X79898368Y-31903676D01*
X79872295Y-31919188D01*
X79858932Y-31927138D01*
X79850858Y-31931551D01*
X79801660Y-31956150D01*
X79791919Y-31960515D01*
X79733609Y-31983731D01*
X79723651Y-31987220D01*
X79650052Y-32009594D01*
X79639630Y-32012281D01*
X79528975Y-32035825D01*
X79527599Y-32036110D01*
X79527390Y-32036152D01*
X79527058Y-32036218D01*
X79520687Y-32037330D01*
X79485882Y-32042485D01*
X79484523Y-32042679D01*
X79463307Y-32045586D01*
X79419473Y-32051590D01*
X79417712Y-32051818D01*
X79370721Y-32057561D01*
X79368714Y-32057738D01*
X79366691Y-32057691D01*
X79361861Y-32058329D01*
X79361860Y-32058329D01*
X79330433Y-32062480D01*
X79329221Y-32062634D01*
X79296066Y-32066686D01*
X79294111Y-32067214D01*
X79292106Y-32067542D01*
X79254955Y-32072448D01*
X79222056Y-32076793D01*
X79221944Y-32076808D01*
X79121849Y-32089936D01*
X79101529Y-32092601D01*
X79100885Y-32092684D01*
X79005956Y-32104637D01*
X79004321Y-32104786D01*
X79002613Y-32104750D01*
X78998187Y-32105344D01*
X78998188Y-32105344D01*
X78965999Y-32109664D01*
X78964982Y-32109797D01*
X78935609Y-32113496D01*
X78935607Y-32113496D01*
X78931242Y-32114046D01*
X78929593Y-32114498D01*
X78927943Y-32114772D01*
X78883911Y-32120683D01*
X78853165Y-32124810D01*
X78852405Y-32124884D01*
X78851546Y-32124869D01*
X78849171Y-32125198D01*
X78849167Y-32125198D01*
X78828155Y-32128105D01*
X78813560Y-32130125D01*
X78813103Y-32130187D01*
X78778163Y-32134877D01*
X78777335Y-32135111D01*
X78776577Y-32135242D01*
X78692231Y-32146912D01*
X78691724Y-32146963D01*
X78691142Y-32146955D01*
X78652735Y-32152377D01*
X78652544Y-32152404D01*
X78617137Y-32157303D01*
X78616573Y-32157465D01*
X78616074Y-32157553D01*
X78520686Y-32171019D01*
X78519952Y-32171095D01*
X78519109Y-32171087D01*
X78516789Y-32171424D01*
X78516779Y-32171425D01*
X78481295Y-32176579D01*
X78480800Y-32176650D01*
X78478725Y-32176943D01*
X78445762Y-32181597D01*
X78444955Y-32181831D01*
X78444192Y-32181968D01*
X78339637Y-32197155D01*
X78338799Y-32197246D01*
X78337878Y-32197240D01*
X78335337Y-32197620D01*
X78335323Y-32197622D01*
X78300143Y-32202890D01*
X78299596Y-32202971D01*
X78291335Y-32204171D01*
X78264773Y-32208029D01*
X78263886Y-32208291D01*
X78263058Y-32208443D01*
X78149910Y-32225385D01*
X78147687Y-32225642D01*
X78145470Y-32225653D01*
X78109712Y-32231396D01*
X78108446Y-32231593D01*
X78095224Y-32233573D01*
X78075590Y-32236513D01*
X78073470Y-32237148D01*
X78071219Y-32237579D01*
X77951923Y-32256741D01*
X77950967Y-32256859D01*
X77949893Y-32256870D01*
X77922053Y-32261487D01*
X77912489Y-32263073D01*
X77911856Y-32263177D01*
X77880189Y-32268263D01*
X77880186Y-32268264D01*
X77877307Y-32268726D01*
X77876290Y-32269042D01*
X77875318Y-32269236D01*
X77750232Y-32289979D01*
X77748984Y-32290141D01*
X77747640Y-32290163D01*
X77710371Y-32296589D01*
X77710086Y-32296637D01*
X77675791Y-32302324D01*
X77674505Y-32302731D01*
X77673275Y-32302985D01*
X77543615Y-32325339D01*
X77541138Y-32325683D01*
X77538713Y-32325751D01*
X77533926Y-32326634D01*
X77503471Y-32332251D01*
X77502027Y-32332509D01*
X77474027Y-32337337D01*
X77474025Y-32337337D01*
X77469620Y-32338097D01*
X77467307Y-32338845D01*
X77464820Y-32339381D01*
X77331867Y-32363907D01*
X77330199Y-32364155D01*
X77328418Y-32364220D01*
X77292239Y-32371211D01*
X77291236Y-32371401D01*
X77285970Y-32372373D01*
X77262253Y-32376747D01*
X77262247Y-32376748D01*
X77257848Y-32377560D01*
X77256169Y-32378125D01*
X77254467Y-32378510D01*
X77120668Y-32404364D01*
X77119208Y-32404594D01*
X77117654Y-32404662D01*
X77113628Y-32405471D01*
X77081082Y-32412011D01*
X77080208Y-32412183D01*
X77046674Y-32418663D01*
X77045198Y-32419174D01*
X77043737Y-32419516D01*
X76907516Y-32446891D01*
X76903926Y-32447498D01*
X76900690Y-32447691D01*
X76895931Y-32448726D01*
X76895928Y-32448726D01*
X76886855Y-32450699D01*
X76866836Y-32455050D01*
X76865078Y-32455419D01*
X76834019Y-32461660D01*
X76830969Y-32462741D01*
X76827317Y-32463642D01*
X76692579Y-32492932D01*
X76689244Y-32493549D01*
X76686186Y-32493777D01*
X76673170Y-32496810D01*
X76652216Y-32501692D01*
X76650389Y-32502103D01*
X76623687Y-32507908D01*
X76623682Y-32507909D01*
X76619300Y-32508862D01*
X76616434Y-32509929D01*
X76613059Y-32510816D01*
X76581340Y-32518207D01*
X76479139Y-32542021D01*
X76476453Y-32542555D01*
X76473853Y-32542782D01*
X76469125Y-32543946D01*
X76469122Y-32543947D01*
X76439279Y-32551297D01*
X76437742Y-32551665D01*
X76410422Y-32558031D01*
X76410408Y-32558035D01*
X76406045Y-32559052D01*
X76403620Y-32559996D01*
X76400909Y-32560749D01*
X76361194Y-32570531D01*
X76269769Y-32593049D01*
X76265230Y-32594027D01*
X76261412Y-32594433D01*
X76228817Y-32603114D01*
X76226571Y-32603689D01*
X76201290Y-32609916D01*
X76201286Y-32609917D01*
X76196935Y-32610989D01*
X76193398Y-32612417D01*
X76188806Y-32613769D01*
X76061299Y-32647730D01*
X76057262Y-32648677D01*
X76053736Y-32649113D01*
X76049049Y-32650449D01*
X76049047Y-32650449D01*
X76020903Y-32658469D01*
X76018825Y-32659042D01*
X75988849Y-32667026D01*
X75985589Y-32668414D01*
X75981531Y-32669690D01*
X75859870Y-32704359D01*
X75853819Y-32705908D01*
X75849198Y-32706589D01*
X75844557Y-32708028D01*
X75844550Y-32708030D01*
X75818342Y-32716159D01*
X75815553Y-32716988D01*
X75787524Y-32724976D01*
X75783434Y-32726802D01*
X75782817Y-32727026D01*
X75777099Y-32728951D01*
X75662120Y-32764614D01*
X75656344Y-32766255D01*
X75652420Y-32767269D01*
X75647625Y-32768120D01*
X75643024Y-32769697D01*
X75643015Y-32769699D01*
X75618961Y-32777942D01*
X75615445Y-32779089D01*
X75593775Y-32785811D01*
X75593768Y-32785814D01*
X75589489Y-32787141D01*
X75585439Y-32789063D01*
X75581265Y-32790691D01*
X75581206Y-32790541D01*
X75575906Y-32792698D01*
X75492594Y-32821249D01*
X75468794Y-32829405D01*
X75466999Y-32829953D01*
X75465116Y-32830305D01*
X75430425Y-32842550D01*
X75429496Y-32842873D01*
X75409665Y-32849668D01*
X75405538Y-32851003D01*
X75402518Y-32851922D01*
X75397761Y-32852977D01*
X75370709Y-32863552D01*
X75366801Y-32865005D01*
X75342330Y-32873642D01*
X75338354Y-32875720D01*
X75334245Y-32877508D01*
X75334215Y-32877439D01*
X75328308Y-32880127D01*
X75176812Y-32939347D01*
X75171577Y-32941226D01*
X75167377Y-32942252D01*
X75162893Y-32944116D01*
X75162881Y-32944120D01*
X75137035Y-32954865D01*
X75134541Y-32955871D01*
X75119756Y-32961651D01*
X75106858Y-32966693D01*
X75103109Y-32968815D01*
X75097833Y-32971164D01*
X75075751Y-32980344D01*
X75062120Y-32985114D01*
X75035422Y-32992771D01*
X75035421Y-32992771D01*
X75026793Y-32995246D01*
X75019205Y-33000044D01*
X75019204Y-33000044D01*
X75011142Y-33005141D01*
X74977868Y-33026179D01*
X74972664Y-33029469D01*
X74969703Y-33031285D01*
X74922294Y-33059461D01*
X74922291Y-33059463D01*
X74914577Y-33064048D01*
X74909711Y-33069271D01*
X74903678Y-33073085D01*
X74861300Y-33121159D01*
X74858969Y-33123731D01*
X74821400Y-33164053D01*
X74821398Y-33164056D01*
X74815284Y-33170618D01*
X74812079Y-33176996D01*
X74807360Y-33182350D01*
X74803556Y-33190472D01*
X74803554Y-33190475D01*
X74780185Y-33240371D01*
X74778668Y-33243495D01*
X74753922Y-33292747D01*
X74753919Y-33292756D01*
X74749892Y-33300771D01*
X74748606Y-33307794D01*
X74745579Y-33314257D01*
X74740611Y-33346361D01*
X74735781Y-33377569D01*
X74735203Y-33380991D01*
X74725473Y-33434135D01*
X74723658Y-33444047D01*
X74724395Y-33451150D01*
X74723304Y-33458201D01*
X74731596Y-33521152D01*
X74731671Y-33521724D01*
X74732075Y-33525154D01*
X74738692Y-33588927D01*
X74741392Y-33595535D01*
X74742324Y-33602612D01*
X74768195Y-33661259D01*
X74769538Y-33664422D01*
X74787170Y-33707576D01*
X74793784Y-33723764D01*
X74798231Y-33729349D01*
X74801111Y-33735879D01*
X74806894Y-33742746D01*
X74806895Y-33742747D01*
X74842391Y-33784894D01*
X74844592Y-33787582D01*
X74884507Y-33837719D01*
X74890342Y-33841831D01*
X74894939Y-33847290D01*
X74948336Y-33882762D01*
X74951180Y-33884709D01*
X74996229Y-33916459D01*
X75003566Y-33921630D01*
X75042060Y-33934791D01*
X75054037Y-33939584D01*
X75273911Y-34040933D01*
X75276370Y-34042099D01*
X75501778Y-34151962D01*
X75504324Y-34153239D01*
X75715262Y-34262018D01*
X75717506Y-34263204D01*
X75909365Y-34367089D01*
X75912319Y-34368740D01*
X76090126Y-34471285D01*
X76091636Y-34472170D01*
X76253109Y-34568307D01*
X76256165Y-34570185D01*
X76400305Y-34661658D01*
X76401987Y-34662745D01*
X76532093Y-34748243D01*
X76534315Y-34749737D01*
X76648944Y-34828602D01*
X76650844Y-34829935D01*
X76699935Y-34865064D01*
X76750663Y-34901365D01*
X76752416Y-34902643D01*
X76832968Y-34962409D01*
X76836131Y-34964834D01*
X76875052Y-34995667D01*
X76904913Y-35019323D01*
X76959375Y-35062547D01*
X76962708Y-35065287D01*
X76997735Y-35095097D01*
X77003863Y-35100676D01*
X77007034Y-35104280D01*
X77026070Y-35120143D01*
X77035280Y-35128630D01*
X77106194Y-35200812D01*
X77116242Y-35212367D01*
X77165066Y-35275939D01*
X77173673Y-35288687D01*
X77214821Y-35358483D01*
X77221304Y-35371045D01*
X77253533Y-35443176D01*
X77259043Y-35457918D01*
X77282055Y-35533601D01*
X77285414Y-35547410D01*
X77295666Y-35603062D01*
X77299769Y-35625333D01*
X77301642Y-35640855D01*
X77306220Y-35719689D01*
X77306220Y-35734299D01*
X77301577Y-35814246D01*
X77299782Y-35829340D01*
X77284801Y-35912268D01*
X77281598Y-35925727D01*
X77264042Y-35984866D01*
X77259064Y-35998641D01*
X77224710Y-36078801D01*
X77218395Y-36091509D01*
X77178704Y-36161223D01*
X77169616Y-36175000D01*
X77122631Y-36236979D01*
X77113336Y-36247890D01*
X77056396Y-36307491D01*
X77045882Y-36317307D01*
X76983287Y-36369383D01*
X76971470Y-36378101D01*
X76906802Y-36420209D01*
X76893107Y-36427953D01*
X76822603Y-36462198D01*
X76808864Y-36467895D01*
X76732327Y-36494449D01*
X76718202Y-36498443D01*
X76701811Y-36502062D01*
X76637536Y-36516252D01*
X76622641Y-36518615D01*
X76557089Y-36525023D01*
X76530079Y-36527663D01*
X76529075Y-36527757D01*
X70781689Y-37043156D01*
X70777697Y-37043265D01*
X70773885Y-37042583D01*
X70764964Y-37043545D01*
X70764963Y-37043545D01*
X70704909Y-37050021D01*
X70702653Y-37050243D01*
X70678680Y-37052393D01*
X70678671Y-37052394D01*
X70674215Y-37052794D01*
X70670852Y-37053587D01*
X70666938Y-37054115D01*
X70656423Y-37055249D01*
X70637993Y-37057236D01*
X70637990Y-37057237D01*
X70629067Y-37058199D01*
X70608839Y-37066559D01*
X70589645Y-37072745D01*
X70577084Y-37075708D01*
X70577082Y-37075709D01*
X70568349Y-37077769D01*
X70539333Y-37094236D01*
X70525279Y-37101094D01*
X70502749Y-37110405D01*
X70502747Y-37110406D01*
X70494453Y-37113834D01*
X70487454Y-37119452D01*
X70487451Y-37119454D01*
X70477389Y-37127532D01*
X70460701Y-37138858D01*
X70441669Y-37149659D01*
X70426034Y-37165779D01*
X70418448Y-37173600D01*
X70406877Y-37184134D01*
X70387867Y-37199393D01*
X70387865Y-37199395D01*
X70380864Y-37205015D01*
X70375721Y-37212375D01*
X70368328Y-37222955D01*
X70355489Y-37238510D01*
X70340257Y-37254214D01*
X70336065Y-37262156D01*
X70324685Y-37283715D01*
X70316540Y-37297067D01*
X70297433Y-37324411D01*
X70294564Y-37332914D01*
X70294562Y-37332918D01*
X70290437Y-37345143D01*
X70282485Y-37363667D01*
X70272265Y-37383029D01*
X70270470Y-37391832D01*
X70265598Y-37415723D01*
X70261528Y-37430823D01*
X70250866Y-37462424D01*
X70250130Y-37480393D01*
X70249971Y-37484280D01*
X70247536Y-37504300D01*
X70245165Y-37515929D01*
X70243162Y-37525750D01*
X70243909Y-37534695D01*
X70245938Y-37558996D01*
X70246270Y-37574634D01*
X70245273Y-37598991D01*
X70244906Y-37607959D01*
X70250100Y-37628861D01*
X70250183Y-37629195D01*
X70253464Y-37649090D01*
X70255286Y-37670903D01*
X70258514Y-37679280D01*
X70267280Y-37702030D01*
X70271986Y-37716944D01*
X70277866Y-37740604D01*
X70277867Y-37740608D01*
X70280032Y-37749318D01*
X70291061Y-37768227D01*
X70299787Y-37786386D01*
X70307661Y-37806818D01*
X70313108Y-37813949D01*
X70328288Y-37833822D01*
X70331771Y-37838612D01*
X70333976Y-37841799D01*
X70336422Y-37845992D01*
X70352827Y-37866175D01*
X70354520Y-37868258D01*
X70356870Y-37871241D01*
X70396078Y-37922570D01*
X70401179Y-37926321D01*
X70406170Y-37931802D01*
X70672083Y-38258950D01*
X70674540Y-38262074D01*
X70825899Y-38460828D01*
X70959953Y-38636859D01*
X70962094Y-38639756D01*
X71102723Y-38835829D01*
X71230249Y-39013635D01*
X71232402Y-39016734D01*
X71424702Y-39302605D01*
X71482499Y-39388526D01*
X71484652Y-39391838D01*
X71595235Y-39567951D01*
X71716796Y-39761549D01*
X71718945Y-39765098D01*
X71873269Y-40029849D01*
X71934677Y-40135198D01*
X71936235Y-40137952D01*
X72137713Y-40504451D01*
X72139519Y-40507858D01*
X72283007Y-40788915D01*
X72324946Y-40871064D01*
X72326542Y-40874302D01*
X72468009Y-41172251D01*
X72497691Y-41234765D01*
X72499212Y-41238094D01*
X72656055Y-41594818D01*
X72657391Y-41597973D01*
X72800881Y-41950003D01*
X72802121Y-41953166D01*
X72933040Y-42301010D01*
X72934192Y-42304203D01*
X73052815Y-42647638D01*
X73053788Y-42650570D01*
X73077334Y-42724570D01*
X73155186Y-42969246D01*
X73160797Y-42986881D01*
X73161792Y-42990164D01*
X73257465Y-43322149D01*
X73258197Y-43324798D01*
X73344384Y-43650394D01*
X73345156Y-43653468D01*
X73420529Y-43970221D01*
X73421197Y-43973188D01*
X73438473Y-44054557D01*
X73487130Y-44283742D01*
X73487679Y-44286477D01*
X73545200Y-44590386D01*
X73545640Y-44592842D01*
X73595482Y-44888056D01*
X73595893Y-44890654D01*
X73638058Y-45177193D01*
X73638365Y-45179427D01*
X73669620Y-45423544D01*
X73673799Y-45456187D01*
X73674096Y-45458709D01*
X73702457Y-45722456D01*
X73702676Y-45724495D01*
X73702937Y-45727200D01*
X73719854Y-45925061D01*
X73725029Y-45985586D01*
X73725147Y-45987066D01*
X73743396Y-46234862D01*
X73743559Y-46237440D01*
X73755969Y-46471316D01*
X73756053Y-46473149D01*
X73759837Y-46571523D01*
X73764682Y-46697506D01*
X73764742Y-46699483D01*
X73767029Y-46801036D01*
X73769571Y-46913904D01*
X73769590Y-46914924D01*
X73772487Y-47115789D01*
X73772500Y-47117606D01*
X73772500Y-47304536D01*
X73772492Y-47305936D01*
X73770578Y-47478195D01*
X73770550Y-47479812D01*
X73770139Y-47496987D01*
X73766660Y-47642228D01*
X73762912Y-47783705D01*
X73762707Y-47791431D01*
X73762697Y-47791798D01*
X73759869Y-47887949D01*
X73759814Y-47888778D01*
X73759649Y-47889690D01*
X73759585Y-47892263D01*
X73759584Y-47892273D01*
X73758696Y-47927788D01*
X73758681Y-47928339D01*
X73757646Y-47963548D01*
X73757751Y-47964476D01*
X73757758Y-47965319D01*
X73755682Y-48048344D01*
X73755442Y-48056596D01*
X73753865Y-48110721D01*
X73753543Y-48116767D01*
X73753248Y-48120579D01*
X73752500Y-48125386D01*
X73752500Y-48155763D01*
X73752447Y-48159431D01*
X73752132Y-48170261D01*
X73751653Y-48186693D01*
X73752159Y-48191143D01*
X73752347Y-48195623D01*
X73752180Y-48195630D01*
X73752500Y-48201285D01*
X73752500Y-48231746D01*
X73752494Y-48233019D01*
X73751602Y-48321329D01*
X73751536Y-48324324D01*
X73747817Y-48434044D01*
X73747721Y-48436646D01*
X73743034Y-48563180D01*
X73742943Y-48565183D01*
X73737353Y-48670688D01*
X73735225Y-48710839D01*
X73728640Y-48832319D01*
X73726462Y-48872489D01*
X73726373Y-48873969D01*
X73723064Y-48923602D01*
X73717230Y-49011110D01*
X73717149Y-49011889D01*
X73716961Y-49012743D01*
X73716809Y-49015178D01*
X73716808Y-49015186D01*
X73714574Y-49050943D01*
X73714540Y-49051466D01*
X73712197Y-49086607D01*
X73712264Y-49087484D01*
X73712241Y-49088264D01*
X73702616Y-49242267D01*
X73702562Y-49243075D01*
X73688844Y-49442008D01*
X73688793Y-49442721D01*
X73672978Y-49653253D01*
X73660853Y-49811605D01*
X73658989Y-49835944D01*
X73658941Y-49836362D01*
X73658828Y-49836850D01*
X73655923Y-49875987D01*
X73653197Y-49911581D01*
X73653229Y-49912068D01*
X73653212Y-49912492D01*
X73639050Y-50103259D01*
X73638986Y-50104085D01*
X73629602Y-50220151D01*
X73620200Y-50336448D01*
X73606990Y-50494971D01*
X73603535Y-50536427D01*
X73603515Y-50536590D01*
X73603463Y-50536808D01*
X73600265Y-50575661D01*
X73600218Y-50575784D01*
X73600255Y-50575787D01*
X73597224Y-50612158D01*
X73597237Y-50612376D01*
X73597228Y-50612565D01*
X73592325Y-50672135D01*
X73583455Y-50779907D01*
X73583431Y-50780106D01*
X73583382Y-50780310D01*
X73580128Y-50820330D01*
X73577219Y-50855679D01*
X73577231Y-50855883D01*
X73577223Y-50856059D01*
X73569567Y-50950230D01*
X73560233Y-51065046D01*
X73539450Y-51309489D01*
X73539402Y-51310039D01*
X73521012Y-51515666D01*
X73520925Y-51516350D01*
X73520741Y-51517105D01*
X73517441Y-51555609D01*
X73514269Y-51591073D01*
X73514310Y-51591856D01*
X73514275Y-51592531D01*
X73513028Y-51607082D01*
X73496479Y-51800147D01*
X73496426Y-51800747D01*
X73478118Y-52002974D01*
X73478067Y-52003375D01*
X73477950Y-52003845D01*
X73474527Y-52042641D01*
X73471279Y-52078515D01*
X73471305Y-52079001D01*
X73471283Y-52079412D01*
X73453531Y-52280599D01*
X73441905Y-52410155D01*
X73436060Y-52475282D01*
X73436022Y-52475574D01*
X73435939Y-52475910D01*
X73435852Y-52476901D01*
X73435850Y-52476914D01*
X73432661Y-52513112D01*
X73432490Y-52515055D01*
X73429272Y-52550915D01*
X73429290Y-52551262D01*
X73429276Y-52551540D01*
X73424952Y-52600612D01*
X73412553Y-52741334D01*
X73412517Y-52741733D01*
X73403691Y-52838383D01*
X73396842Y-52913392D01*
X73396201Y-52920407D01*
X73396183Y-52920548D01*
X73396138Y-52920727D01*
X73392536Y-52960536D01*
X73392497Y-52960636D01*
X73392527Y-52960639D01*
X73389287Y-52996116D01*
X73389296Y-52996294D01*
X73389289Y-52996430D01*
X73373655Y-53169218D01*
X73365952Y-53250303D01*
X73358475Y-53329009D01*
X73358350Y-53329962D01*
X73358093Y-53330991D01*
X73354652Y-53369245D01*
X73351326Y-53404258D01*
X73351376Y-53405312D01*
X73351321Y-53406278D01*
X73337742Y-53557254D01*
X73337665Y-53558081D01*
X73324621Y-53693125D01*
X73324523Y-53693856D01*
X73324318Y-53694672D01*
X73320757Y-53733135D01*
X73317345Y-53768455D01*
X73317384Y-53769295D01*
X73317340Y-53770039D01*
X73309237Y-53857549D01*
X73308999Y-53859425D01*
X73308546Y-53861294D01*
X73308141Y-53866155D01*
X73307853Y-53869611D01*
X73305147Y-53883785D01*
X73305150Y-53883786D01*
X73303792Y-53892658D01*
X73301189Y-53901248D01*
X73301102Y-53910222D01*
X73300704Y-53951304D01*
X73300275Y-53960541D01*
X73299224Y-53973158D01*
X73299489Y-53977633D01*
X73300058Y-53987251D01*
X73300272Y-53995914D01*
X73299778Y-54046898D01*
X73302213Y-54055536D01*
X73303371Y-54064219D01*
X73305119Y-54072782D01*
X73305649Y-54081741D01*
X73310624Y-54095645D01*
X73322832Y-54129767D01*
X73325468Y-54138020D01*
X73329435Y-54152090D01*
X73339303Y-54187091D01*
X73344065Y-54194699D01*
X73347616Y-54202714D01*
X73351695Y-54210439D01*
X73354717Y-54218885D01*
X73384469Y-54259854D01*
X73384688Y-54260156D01*
X73389538Y-54267343D01*
X73398685Y-54281957D01*
X73401870Y-54285635D01*
X73401872Y-54285637D01*
X73406500Y-54290980D01*
X73413206Y-54299428D01*
X73440304Y-54336744D01*
X73447406Y-54342236D01*
X73447407Y-54342237D01*
X73448014Y-54342706D01*
X73466182Y-54359892D01*
X73489072Y-54386321D01*
X73518344Y-54420120D01*
X73519639Y-54421640D01*
X73616780Y-54537463D01*
X73618187Y-54539171D01*
X73721426Y-54666812D01*
X73722633Y-54668329D01*
X73829791Y-54805305D01*
X73831547Y-54807606D01*
X73942496Y-54956781D01*
X73943826Y-54958607D01*
X74041406Y-55095060D01*
X74060319Y-55121508D01*
X74061458Y-55123128D01*
X74181801Y-55297482D01*
X74183224Y-55299592D01*
X74305707Y-55485204D01*
X74307217Y-55487548D01*
X74432111Y-55686241D01*
X74433436Y-55688397D01*
X74560908Y-55900534D01*
X74562162Y-55902668D01*
X74690661Y-56126351D01*
X74691987Y-56128717D01*
X74820570Y-56364134D01*
X74821281Y-56365436D01*
X74822604Y-56367927D01*
X74937152Y-56589441D01*
X74952690Y-56619489D01*
X74953692Y-56621469D01*
X75083878Y-56884711D01*
X75085154Y-56887371D01*
X75182236Y-57095916D01*
X75214028Y-57164210D01*
X75215173Y-57166743D01*
X75342825Y-57457558D01*
X75343805Y-57459852D01*
X75466371Y-57755126D01*
X75470384Y-57764793D01*
X75471522Y-57767633D01*
X75581116Y-58051036D01*
X75594480Y-58085594D01*
X75595348Y-58087907D01*
X75608093Y-58122905D01*
X75716746Y-58421270D01*
X75717686Y-58423943D01*
X75817231Y-58717678D01*
X75834916Y-58769864D01*
X75835854Y-58772746D01*
X75948725Y-59134511D01*
X75949434Y-59136867D01*
X76010906Y-59348483D01*
X76058714Y-59513063D01*
X76059462Y-59515745D01*
X76163699Y-59906631D01*
X76164445Y-59909570D01*
X76262232Y-60315242D01*
X76262779Y-60317615D01*
X76355796Y-60739096D01*
X76356415Y-60742068D01*
X76400006Y-60964976D01*
X76441554Y-61177441D01*
X76442073Y-61180274D01*
X76453994Y-61249708D01*
X76519781Y-61632916D01*
X76520172Y-61635329D01*
X76591172Y-62103151D01*
X76591570Y-62105996D01*
X76653718Y-62589582D01*
X76654054Y-62592453D01*
X76706628Y-63091913D01*
X76706867Y-63094423D01*
X76750768Y-63610499D01*
X76750963Y-63613118D01*
X76785168Y-64146703D01*
X76785295Y-64149003D01*
X76800334Y-64477972D01*
X76800824Y-64488700D01*
X76800892Y-64490492D01*
X76815542Y-64958290D01*
X76815604Y-64960275D01*
X76815647Y-64962055D01*
X76823325Y-65421743D01*
X76823482Y-65431150D01*
X76823500Y-65433254D01*
X76823500Y-65904034D01*
X76823490Y-65905612D01*
X76817607Y-66375299D01*
X76817563Y-66377410D01*
X76803814Y-66846829D01*
X76803768Y-66848155D01*
X76785067Y-67317633D01*
X76784992Y-67319254D01*
X76760456Y-67784480D01*
X76760344Y-67786349D01*
X76728843Y-68251963D01*
X76728762Y-68253081D01*
X76693304Y-68716009D01*
X76693165Y-68717673D01*
X76651799Y-69177617D01*
X76651691Y-69178761D01*
X76606412Y-69635476D01*
X76606230Y-69637198D01*
X76554981Y-70090558D01*
X76554867Y-70091526D01*
X76500543Y-70540932D01*
X76500392Y-70542133D01*
X76442413Y-70985332D01*
X76442221Y-70986797D01*
X76442061Y-70987974D01*
X76379881Y-71428165D01*
X76379726Y-71429232D01*
X76314888Y-71861494D01*
X76314550Y-71863745D01*
X76314393Y-71864758D01*
X76246594Y-72291212D01*
X76246271Y-72293243D01*
X76246096Y-72294311D01*
X76213097Y-72490017D01*
X76174922Y-72716411D01*
X76174773Y-72717274D01*
X76101606Y-73133530D01*
X76101438Y-73134467D01*
X76026337Y-73543572D01*
X76026145Y-73544594D01*
X75949133Y-73945453D01*
X75948931Y-73946480D01*
X75916825Y-74106210D01*
X75869880Y-74339760D01*
X75869718Y-74340552D01*
X75789642Y-74726106D01*
X75789440Y-74727062D01*
X75737010Y-74970031D01*
X75708261Y-75103256D01*
X75708127Y-75103871D01*
X75627004Y-75470900D01*
X75626786Y-75471866D01*
X75544837Y-75829286D01*
X75544660Y-75830045D01*
X75462378Y-76178010D01*
X75383026Y-76508000D01*
X75381144Y-76515825D01*
X75380930Y-76516697D01*
X75305104Y-76821855D01*
X75299979Y-76842479D01*
X75299839Y-76843037D01*
X75253754Y-77023961D01*
X75219744Y-77157482D01*
X75219546Y-77158249D01*
X75164323Y-77369481D01*
X75145049Y-77443208D01*
X75140365Y-77461123D01*
X75140276Y-77461462D01*
X75063096Y-77753360D01*
X75062802Y-77754451D01*
X74986681Y-78032242D01*
X74986648Y-78032363D01*
X74913307Y-78298967D01*
X74913079Y-78299785D01*
X74903680Y-78333075D01*
X74843240Y-78547136D01*
X74842048Y-78551356D01*
X74841884Y-78551933D01*
X74773874Y-78788488D01*
X74773625Y-78789342D01*
X74707534Y-79013260D01*
X74707468Y-79013484D01*
X74644795Y-79224381D01*
X74644667Y-79224806D01*
X74586822Y-79416971D01*
X74586540Y-79417895D01*
X74542916Y-79558894D01*
X74542899Y-79558942D01*
X74542876Y-79558989D01*
X74542828Y-79559144D01*
X74542826Y-79559150D01*
X74530895Y-79597752D01*
X74530884Y-79597787D01*
X74521022Y-79629663D01*
X74520427Y-79631585D01*
X74520418Y-79631641D01*
X74520409Y-79631674D01*
X74508100Y-79671499D01*
X74482308Y-79754946D01*
X74480708Y-79760121D01*
X74480535Y-79760677D01*
X74436363Y-79900711D01*
X74435151Y-79904554D01*
X74434702Y-79905947D01*
X74405022Y-79996365D01*
X74404626Y-79997440D01*
X74404070Y-79998547D01*
X74403038Y-80001756D01*
X74392486Y-80034550D01*
X74392258Y-80035250D01*
X74382520Y-80064919D01*
X74382515Y-80064937D01*
X74381475Y-80068105D01*
X74381259Y-80069328D01*
X74380953Y-80070396D01*
X74358057Y-80141561D01*
X74354866Y-80151479D01*
X74354825Y-80151605D01*
X74324615Y-80245160D01*
X74324493Y-80245533D01*
X74304533Y-80306179D01*
X74299421Y-80319151D01*
X74294648Y-80326515D01*
X74292076Y-80335114D01*
X74292075Y-80335117D01*
X74277180Y-80384925D01*
X74275624Y-80389770D01*
X74253069Y-80455385D01*
X74249973Y-80464393D01*
X74248794Y-80467673D01*
X74215113Y-80557493D01*
X74210943Y-80568612D01*
X74210518Y-80569728D01*
X74163398Y-80691853D01*
X74163059Y-80692723D01*
X74109447Y-80828667D01*
X74108852Y-80830148D01*
X74080696Y-80898976D01*
X74047801Y-80979386D01*
X74047634Y-80979793D01*
X73979810Y-81143948D01*
X73979509Y-81144671D01*
X73906657Y-81317939D01*
X73906479Y-81318360D01*
X73828446Y-81502080D01*
X73828223Y-81502601D01*
X73746296Y-81693106D01*
X73746152Y-81693441D01*
X73660081Y-81891302D01*
X73571055Y-82094083D01*
X73570802Y-82094656D01*
X73479982Y-82298758D01*
X73478681Y-82301682D01*
X73387316Y-82505570D01*
X73384254Y-82512402D01*
X73384143Y-82512649D01*
X73288935Y-82723894D01*
X73288732Y-82724341D01*
X73192995Y-82934569D01*
X73192697Y-82935219D01*
X73096195Y-83143978D01*
X73095804Y-83144823D01*
X73079828Y-83179057D01*
X73014929Y-83318127D01*
X73014888Y-83318207D01*
X73014825Y-83318301D01*
X73014681Y-83318611D01*
X73014680Y-83318612D01*
X72998538Y-83353250D01*
X72998492Y-83353302D01*
X72998510Y-83353310D01*
X72987081Y-83377802D01*
X72982765Y-83387050D01*
X72982734Y-83387154D01*
X72982689Y-83387259D01*
X72903353Y-83557499D01*
X72902844Y-83558579D01*
X72838099Y-83694140D01*
X72808589Y-83755926D01*
X72715383Y-83949281D01*
X72625649Y-84133680D01*
X72625351Y-84134286D01*
X72539133Y-84308682D01*
X72538747Y-84309456D01*
X72456210Y-84473559D01*
X72455628Y-84474703D01*
X72383722Y-84614078D01*
X72377384Y-84626362D01*
X72376840Y-84627403D01*
X72304442Y-84764576D01*
X72303593Y-84766158D01*
X72236642Y-84888747D01*
X72235878Y-84890125D01*
X72177631Y-84993677D01*
X72176489Y-84995664D01*
X72137488Y-85062141D01*
X72136645Y-85063557D01*
X72085157Y-85148746D01*
X72084632Y-85149608D01*
X72036444Y-85227913D01*
X72022172Y-85251105D01*
X71949963Y-85367827D01*
X71870713Y-85495018D01*
X71870198Y-85495837D01*
X71782259Y-85634585D01*
X71782250Y-85634599D01*
X71705649Y-85755423D01*
X71705500Y-85755639D01*
X71705293Y-85755877D01*
X71684380Y-85788973D01*
X71664986Y-85819563D01*
X71664856Y-85819851D01*
X71664722Y-85820080D01*
X71581696Y-85951471D01*
X71581507Y-85951769D01*
X71472453Y-86123283D01*
X71472209Y-86123664D01*
X71357248Y-86303042D01*
X71357117Y-86303247D01*
X71289936Y-86407629D01*
X71257811Y-86457542D01*
X71257758Y-86457618D01*
X71257682Y-86457703D01*
X71252330Y-86466029D01*
X71236862Y-86490090D01*
X71236825Y-86490146D01*
X71219066Y-86517740D01*
X71216647Y-86521498D01*
X71216597Y-86521607D01*
X71216550Y-86521687D01*
X71110627Y-86686456D01*
X70982381Y-86885730D01*
X70980807Y-86888175D01*
X70980625Y-86888457D01*
X70868607Y-87061499D01*
X70868530Y-87061609D01*
X70868417Y-87061736D01*
X70847025Y-87094839D01*
X70827292Y-87125322D01*
X70827219Y-87125481D01*
X70827161Y-87125578D01*
X70710303Y-87306410D01*
X70591775Y-87489282D01*
X70591674Y-87489426D01*
X70591540Y-87489575D01*
X70591221Y-87490068D01*
X70591219Y-87490071D01*
X70570357Y-87522326D01*
X70570292Y-87522425D01*
X70550764Y-87552555D01*
X70550431Y-87553069D01*
X70550344Y-87553257D01*
X70550255Y-87553405D01*
X70428622Y-87741462D01*
X70428609Y-87741483D01*
X70286465Y-87961160D01*
X70168972Y-88141857D01*
X70163091Y-88150901D01*
X70162757Y-88151376D01*
X70162311Y-88151876D01*
X70141339Y-88184353D01*
X70121791Y-88214417D01*
X70121509Y-88215024D01*
X70121205Y-88215532D01*
X69997399Y-88407259D01*
X69997183Y-88407593D01*
X69852874Y-88629529D01*
X69852809Y-88629629D01*
X69730382Y-88817523D01*
X69730050Y-88817993D01*
X69729599Y-88818498D01*
X69708524Y-88851068D01*
X69689027Y-88880991D01*
X69688741Y-88881606D01*
X69688444Y-88882101D01*
X69566012Y-89071315D01*
X69565695Y-89071803D01*
X69470729Y-89216927D01*
X69445982Y-89254745D01*
X69445623Y-89255252D01*
X69445138Y-89255793D01*
X69423948Y-89288417D01*
X69404512Y-89318118D01*
X69404207Y-89318771D01*
X69403889Y-89319299D01*
X69355138Y-89394354D01*
X69306127Y-89469809D01*
X69306109Y-89469835D01*
X69306085Y-89469862D01*
X69284854Y-89502560D01*
X69264671Y-89533634D01*
X69264652Y-89533675D01*
X69169050Y-89680918D01*
X69169032Y-89680943D01*
X69168974Y-89681007D01*
X69168837Y-89681218D01*
X69168835Y-89681221D01*
X69147807Y-89713632D01*
X69147784Y-89713669D01*
X69127629Y-89744711D01*
X69127601Y-89744771D01*
X69127566Y-89744829D01*
X69014835Y-89918589D01*
X69014776Y-89918681D01*
X68906128Y-90085831D01*
X68905964Y-90086064D01*
X68905732Y-90086324D01*
X68884461Y-90119167D01*
X68864752Y-90149488D01*
X68864607Y-90149800D01*
X68864460Y-90150045D01*
X68759576Y-90311988D01*
X68759437Y-90312203D01*
X68660312Y-90464576D01*
X68660259Y-90464651D01*
X68660179Y-90464740D01*
X68639068Y-90497232D01*
X68618845Y-90528319D01*
X68618792Y-90528433D01*
X68618739Y-90528520D01*
X68523761Y-90674704D01*
X68444689Y-90796189D01*
X68435141Y-90810858D01*
X68434584Y-90811649D01*
X68433877Y-90812445D01*
X68418919Y-90835681D01*
X68413273Y-90844451D01*
X68412929Y-90844982D01*
X68395496Y-90871765D01*
X68395488Y-90871779D01*
X68393906Y-90874209D01*
X68393459Y-90875172D01*
X68392966Y-90875995D01*
X68309830Y-91005139D01*
X68302665Y-91016186D01*
X68235526Y-91119693D01*
X68234632Y-91120972D01*
X68233553Y-91122196D01*
X68231247Y-91125813D01*
X68213539Y-91153583D01*
X68213039Y-91154360D01*
X68194518Y-91182912D01*
X68193836Y-91184386D01*
X68193035Y-91185735D01*
X68124886Y-91292605D01*
X68124637Y-91292994D01*
X68032990Y-91435557D01*
X67993201Y-91497452D01*
X67992140Y-91498985D01*
X67990878Y-91500433D01*
X67975747Y-91524451D01*
X67971284Y-91531535D01*
X67970664Y-91532509D01*
X67952516Y-91560739D01*
X67951718Y-91562484D01*
X67950772Y-91564095D01*
X67908273Y-91631552D01*
X67907796Y-91632303D01*
X67876088Y-91681625D01*
X67873156Y-91685914D01*
X67870454Y-91689088D01*
X67867903Y-91693241D01*
X67853136Y-91717280D01*
X67851764Y-91719464D01*
X67835516Y-91744739D01*
X67833794Y-91748503D01*
X67831067Y-91753206D01*
X67808664Y-91789676D01*
X67807891Y-91790918D01*
X67801374Y-91801256D01*
X67798745Y-91805168D01*
X67796252Y-91808141D01*
X67793739Y-91812300D01*
X67793735Y-91812306D01*
X67778883Y-91836890D01*
X67777626Y-91838925D01*
X67761374Y-91864704D01*
X67759791Y-91868245D01*
X67757394Y-91872459D01*
X67751314Y-91882522D01*
X67750427Y-91883990D01*
X67748956Y-91886364D01*
X67715038Y-91939785D01*
X67714127Y-91941199D01*
X67712174Y-91944186D01*
X67695157Y-91970214D01*
X67686723Y-91983113D01*
X67686041Y-91984079D01*
X67685185Y-91985041D01*
X67683300Y-91987963D01*
X67683292Y-91987974D01*
X67664746Y-92016719D01*
X67664329Y-92017362D01*
X67645419Y-92046284D01*
X67644873Y-92047454D01*
X67644267Y-92048463D01*
X67604657Y-92109859D01*
X67604431Y-92110206D01*
X67535942Y-92214897D01*
X67480379Y-92299296D01*
X67478871Y-92301587D01*
X67478559Y-92302024D01*
X67478143Y-92302486D01*
X67477174Y-92303968D01*
X67477170Y-92303973D01*
X67457039Y-92334748D01*
X67456836Y-92335057D01*
X67439629Y-92361195D01*
X67437198Y-92364887D01*
X67436932Y-92365451D01*
X67436648Y-92365920D01*
X67371004Y-92466272D01*
X67370399Y-92467188D01*
X67297780Y-92576119D01*
X67297623Y-92576336D01*
X67297407Y-92576572D01*
X67275440Y-92609630D01*
X67255649Y-92639316D01*
X67255514Y-92639600D01*
X67255378Y-92639821D01*
X67172866Y-92763989D01*
X67062722Y-92928709D01*
X66970221Y-93066678D01*
X66966698Y-93071932D01*
X66966680Y-93071956D01*
X66966662Y-93071976D01*
X66966623Y-93072034D01*
X66966618Y-93072041D01*
X66955132Y-93089178D01*
X66944014Y-93105766D01*
X66944011Y-93105764D01*
X66944004Y-93105781D01*
X66924309Y-93135156D01*
X66924295Y-93135184D01*
X66820790Y-93289608D01*
X66691657Y-93481320D01*
X66556126Y-93681627D01*
X66426356Y-93873062D01*
X66415658Y-93888843D01*
X66415447Y-93889154D01*
X66292251Y-94069727D01*
X66292218Y-94069772D01*
X66292180Y-94069813D01*
X66270477Y-94101643D01*
X66249369Y-94132583D01*
X66249341Y-94132638D01*
X66249313Y-94132683D01*
X66142153Y-94289851D01*
X66142129Y-94289884D01*
X66142092Y-94289923D01*
X66141998Y-94290061D01*
X66121444Y-94320224D01*
X66121426Y-94320250D01*
X66106475Y-94342179D01*
X66099294Y-94352711D01*
X66099265Y-94352769D01*
X66099240Y-94352809D01*
X66045676Y-94431416D01*
X65966851Y-94547094D01*
X65966437Y-94547698D01*
X65831796Y-94742842D01*
X65831563Y-94743154D01*
X65831242Y-94743494D01*
X65809350Y-94775374D01*
X65788719Y-94805276D01*
X65788506Y-94805704D01*
X65788293Y-94806038D01*
X65733485Y-94885852D01*
X65649496Y-95008161D01*
X65649240Y-95008532D01*
X65485975Y-95244471D01*
X65485912Y-95244563D01*
X65343656Y-95449755D01*
X65343637Y-95449780D01*
X65343603Y-95449816D01*
X65321248Y-95482077D01*
X65300302Y-95512290D01*
X65300278Y-95512336D01*
X65300268Y-95512353D01*
X65154639Y-95722513D01*
X65154438Y-95722802D01*
X64987574Y-95962173D01*
X64987373Y-95962462D01*
X64819010Y-96202552D01*
X64818809Y-96202837D01*
X64649967Y-96442197D01*
X64649824Y-96442399D01*
X64502894Y-96649829D01*
X64502803Y-96649948D01*
X64502684Y-96650071D01*
X64480020Y-96682123D01*
X64480000Y-96682109D01*
X64479961Y-96682206D01*
X64458946Y-96711874D01*
X64458867Y-96712027D01*
X64458786Y-96712151D01*
X64382594Y-96819902D01*
X64311251Y-96920796D01*
X64144245Y-97155399D01*
X64025269Y-97321397D01*
X63978741Y-97386313D01*
X63978345Y-97386862D01*
X63813853Y-97613782D01*
X63813718Y-97613968D01*
X63651120Y-97837415D01*
X63650919Y-97837690D01*
X63491234Y-98055893D01*
X63476999Y-98075206D01*
X63352697Y-98243846D01*
X63334848Y-98268061D01*
X63183020Y-98473127D01*
X63182511Y-98473808D01*
X63033586Y-98671060D01*
X63006838Y-98706236D01*
X62889058Y-98861124D01*
X62888774Y-98861497D01*
X62750230Y-99042292D01*
X62749492Y-99043245D01*
X62616805Y-99213006D01*
X62616211Y-99213760D01*
X62488110Y-99375107D01*
X62487605Y-99375739D01*
X62367242Y-99525222D01*
X62366368Y-99526294D01*
X62253420Y-99663172D01*
X62252390Y-99664404D01*
X62215206Y-99708288D01*
X62147141Y-99788616D01*
X62145938Y-99790015D01*
X62049707Y-99900125D01*
X62047974Y-99902064D01*
X61983318Y-99972781D01*
X61968400Y-99986655D01*
X61947756Y-100002950D01*
X61942556Y-100010262D01*
X61942553Y-100010266D01*
X61910164Y-100055817D01*
X61908302Y-100058367D01*
X61874769Y-100103109D01*
X61874767Y-100103112D01*
X61869384Y-100110295D01*
X61865864Y-100119687D01*
X61862707Y-100128108D01*
X61852768Y-100148708D01*
X61846179Y-100159689D01*
X61844442Y-100163817D01*
X61842412Y-100167821D01*
X61842266Y-100167747D01*
X61839773Y-100172843D01*
X61835715Y-100180077D01*
X61835224Y-100180945D01*
X61805391Y-100233150D01*
X61805221Y-100233447D01*
X61785886Y-100266801D01*
X61785784Y-100266963D01*
X61785641Y-100267140D01*
X61765691Y-100301636D01*
X61747764Y-100332561D01*
X61747680Y-100332769D01*
X61747604Y-100332912D01*
X61718583Y-100383094D01*
X61718283Y-100383610D01*
X61672787Y-100461367D01*
X61665188Y-100474354D01*
X61664798Y-100475015D01*
X61603355Y-100578397D01*
X61603348Y-100578393D01*
X61603333Y-100578434D01*
X61583093Y-100612461D01*
X61535531Y-100692420D01*
X61534903Y-100693464D01*
X61480931Y-100782233D01*
X61480670Y-100782629D01*
X61480320Y-100783046D01*
X61460144Y-100816423D01*
X61441537Y-100847027D01*
X61441323Y-100847527D01*
X61441093Y-100847939D01*
X61379767Y-100949393D01*
X61379374Y-100950038D01*
X61294486Y-101088588D01*
X61294058Y-101089281D01*
X61204130Y-101233949D01*
X61203747Y-101234562D01*
X61108213Y-101386235D01*
X61013037Y-101536067D01*
X61008907Y-101542568D01*
X61008476Y-101543241D01*
X60905621Y-101702913D01*
X60905209Y-101703549D01*
X60798853Y-101866496D01*
X60798179Y-101867519D01*
X60689113Y-102031120D01*
X60688638Y-102031827D01*
X60605789Y-102154300D01*
X60575729Y-102198736D01*
X60575443Y-102199157D01*
X60513978Y-102288990D01*
X60461237Y-102366073D01*
X60460471Y-102367179D01*
X60345368Y-102531612D01*
X60344664Y-102532608D01*
X60227744Y-102695909D01*
X60226948Y-102697005D01*
X60172578Y-102770984D01*
X60109049Y-102857424D01*
X60108320Y-102858405D01*
X59989513Y-103016816D01*
X59988607Y-103018011D01*
X59872182Y-103169457D01*
X59870428Y-103171685D01*
X59796182Y-103263894D01*
X59749552Y-103321805D01*
X59726240Y-103350744D01*
X59724566Y-103352778D01*
X59527307Y-103587201D01*
X59525155Y-103589691D01*
X59324616Y-103815649D01*
X59321814Y-103818705D01*
X59115763Y-104035994D01*
X59113070Y-104038747D01*
X58900583Y-104249363D01*
X58897527Y-104252291D01*
X58682300Y-104451746D01*
X58678716Y-104454943D01*
X58557513Y-104558904D01*
X58458506Y-104643827D01*
X58454649Y-104647005D01*
X58258937Y-104801810D01*
X58230002Y-104824697D01*
X58226197Y-104827591D01*
X58201608Y-104845563D01*
X57998932Y-104993702D01*
X57994090Y-104997070D01*
X57765479Y-105148279D01*
X57760243Y-105151560D01*
X57530242Y-105287957D01*
X57524370Y-105291230D01*
X57339833Y-105387691D01*
X57290356Y-105413554D01*
X57284353Y-105416492D01*
X57253605Y-105430542D01*
X57050598Y-105523303D01*
X57043412Y-105526319D01*
X56809569Y-105616060D01*
X56802058Y-105618673D01*
X56567576Y-105692002D01*
X56559924Y-105694395D01*
X56538337Y-105699115D01*
X56534178Y-105699648D01*
X56534065Y-105699630D01*
X56534069Y-105699661D01*
X56487805Y-105705550D01*
X56484705Y-105705905D01*
X56428941Y-105711563D01*
X56426899Y-105711752D01*
X56420490Y-105712293D01*
X56352450Y-105718030D01*
X56351466Y-105718109D01*
X56264644Y-105724505D01*
X56262695Y-105724633D01*
X56170738Y-105729939D01*
X56167938Y-105730069D01*
X56139742Y-105731067D01*
X56067877Y-105733611D01*
X56065596Y-105733670D01*
X56027248Y-105734315D01*
X55991982Y-105734907D01*
X55991841Y-105734904D01*
X55991688Y-105734883D01*
X55991230Y-105734891D01*
X55991228Y-105734891D01*
X55952479Y-105735571D01*
X55952479Y-105735552D01*
X55952386Y-105735573D01*
X55921543Y-105736091D01*
X55916419Y-105736177D01*
X55916417Y-105736177D01*
X55915947Y-105736185D01*
X55915785Y-105736211D01*
X55915674Y-105736216D01*
X55907991Y-105736351D01*
X55906305Y-105736381D01*
X55901849Y-105736380D01*
X55878058Y-105735955D01*
X55840623Y-105735287D01*
X55840546Y-105735283D01*
X55840450Y-105735266D01*
X55818422Y-105734883D01*
X55801916Y-105734596D01*
X55801857Y-105734595D01*
X55764871Y-105733934D01*
X55764862Y-105733934D01*
X55764572Y-105733929D01*
X55764472Y-105733941D01*
X55764390Y-105733943D01*
X55728120Y-105733312D01*
X55691383Y-105732673D01*
X55689195Y-105732616D01*
X55579710Y-105728808D01*
X55579594Y-105728804D01*
X55471241Y-105724935D01*
X55470015Y-105724885D01*
X55366980Y-105720201D01*
X55365446Y-105720122D01*
X55266878Y-105714436D01*
X55266275Y-105714400D01*
X55173611Y-105708609D01*
X55172801Y-105708555D01*
X55090798Y-105702899D01*
X55089847Y-105702830D01*
X55020970Y-105697463D01*
X55018819Y-105697277D01*
X55005902Y-105696047D01*
X54963800Y-105692038D01*
X54963035Y-105691961D01*
X54956320Y-105691261D01*
X54954913Y-105691065D01*
X54953411Y-105690680D01*
X54941759Y-105689552D01*
X54938841Y-105689270D01*
X54914573Y-105684482D01*
X54714858Y-105624204D01*
X54707024Y-105621556D01*
X54702827Y-105619982D01*
X54472083Y-105533453D01*
X54465230Y-105530649D01*
X54231134Y-105426703D01*
X54224567Y-105423557D01*
X53992369Y-105303940D01*
X53986312Y-105300605D01*
X53755071Y-105164896D01*
X53750133Y-105161843D01*
X53519181Y-105011498D01*
X53514577Y-105008353D01*
X53512741Y-105007038D01*
X53287215Y-104845562D01*
X53282848Y-104842290D01*
X53058495Y-104666470D01*
X53054667Y-104663347D01*
X52834531Y-104476369D01*
X52830944Y-104473201D01*
X52614282Y-104274207D01*
X52611445Y-104271517D01*
X52398573Y-104063314D01*
X52395443Y-104060142D01*
X52336472Y-103998236D01*
X52188456Y-103842852D01*
X52186038Y-103840240D01*
X51984161Y-103615722D01*
X51981808Y-103613029D01*
X51784947Y-103381148D01*
X51782878Y-103378647D01*
X51756653Y-103346093D01*
X51756635Y-103346070D01*
X51689384Y-103262549D01*
X51638287Y-103199090D01*
X51637067Y-103197548D01*
X51520185Y-103047408D01*
X51519052Y-103045930D01*
X51497985Y-103018011D01*
X51400575Y-102888924D01*
X51399915Y-102888041D01*
X51281158Y-102727768D01*
X51280234Y-102726504D01*
X51164071Y-102565221D01*
X51163161Y-102563939D01*
X51047751Y-102399067D01*
X51047357Y-102398501D01*
X50932178Y-102231589D01*
X50931519Y-102230625D01*
X50819082Y-102064413D01*
X50818703Y-102063849D01*
X50770144Y-101991225D01*
X50708630Y-101899226D01*
X50707899Y-101898120D01*
X50687586Y-101866997D01*
X50601712Y-101735428D01*
X50601406Y-101734957D01*
X50496112Y-101572051D01*
X50495987Y-101571856D01*
X50395809Y-101416240D01*
X50394945Y-101414880D01*
X50321026Y-101296762D01*
X50320971Y-101296667D01*
X50320920Y-101296547D01*
X50299868Y-101262953D01*
X50280681Y-101232294D01*
X50280591Y-101232188D01*
X50280549Y-101232125D01*
X50207205Y-101115088D01*
X50206825Y-101114477D01*
X50120538Y-100974260D01*
X50120501Y-100974199D01*
X50039126Y-100840861D01*
X50038803Y-100840328D01*
X49963739Y-100715547D01*
X49963351Y-100714898D01*
X49894561Y-100598939D01*
X49894532Y-100598889D01*
X49850419Y-100524450D01*
X49850074Y-100523815D01*
X49849761Y-100523041D01*
X49830263Y-100490433D01*
X49830008Y-100490005D01*
X49813037Y-100461367D01*
X49813035Y-100461364D01*
X49811844Y-100459354D01*
X49811317Y-100458698D01*
X49810921Y-100458084D01*
X49774838Y-100397739D01*
X49773523Y-100395485D01*
X49746960Y-100348864D01*
X49745966Y-100346974D01*
X49745192Y-100345000D01*
X49738146Y-100332920D01*
X49726850Y-100313556D01*
X49726210Y-100312445D01*
X49720051Y-100301636D01*
X49709742Y-100283542D01*
X49708440Y-100281864D01*
X49707295Y-100280032D01*
X49683873Y-100239880D01*
X49669866Y-100215574D01*
X49668776Y-100213529D01*
X49667934Y-100211416D01*
X49660507Y-100198846D01*
X49649548Y-100180301D01*
X49648854Y-100179112D01*
X49636752Y-100158111D01*
X49630162Y-100143138D01*
X49626580Y-100135698D01*
X49623872Y-100127141D01*
X49612570Y-100110295D01*
X49600227Y-100091899D01*
X49593916Y-100081428D01*
X49593533Y-100080716D01*
X49593531Y-100080713D01*
X49591409Y-100076772D01*
X49578577Y-100059399D01*
X49575296Y-100054740D01*
X49564228Y-100038244D01*
X49561517Y-100034203D01*
X49558215Y-100030626D01*
X49557724Y-100030004D01*
X49549671Y-100020265D01*
X49526784Y-99989278D01*
X49519639Y-99983845D01*
X49519633Y-99983839D01*
X49512996Y-99978793D01*
X49496675Y-99963958D01*
X49444752Y-99907708D01*
X49442362Y-99905044D01*
X49347667Y-99796423D01*
X49347132Y-99795806D01*
X49241859Y-99673461D01*
X49240126Y-99671403D01*
X49129009Y-99536544D01*
X49128502Y-99535922D01*
X49007491Y-99386609D01*
X49006987Y-99385982D01*
X48881206Y-99228271D01*
X48880164Y-99226946D01*
X48747788Y-99056330D01*
X48747753Y-99056242D01*
X48747733Y-99056258D01*
X48608855Y-98876995D01*
X48608104Y-98876016D01*
X48466091Y-98688950D01*
X48465648Y-98688363D01*
X48317192Y-98490423D01*
X48317075Y-98490266D01*
X48164612Y-98286323D01*
X48164104Y-98285639D01*
X48009258Y-98075561D01*
X48008943Y-98075133D01*
X47849745Y-97857232D01*
X47849604Y-97857038D01*
X47687816Y-97634704D01*
X47687622Y-97634437D01*
X47523740Y-97407981D01*
X47523404Y-97407513D01*
X47357109Y-97175497D01*
X47357019Y-97175372D01*
X47190193Y-96942014D01*
X47190019Y-96941769D01*
X47020785Y-96703845D01*
X47020582Y-96703559D01*
X46852725Y-96466175D01*
X46852642Y-96466058D01*
X46683434Y-96226183D01*
X46683092Y-96225695D01*
X46537455Y-96017149D01*
X46537259Y-96016844D01*
X46537080Y-96016481D01*
X46514645Y-95984488D01*
X46493997Y-95954921D01*
X46493715Y-95954620D01*
X46493500Y-95954335D01*
X46394360Y-95812958D01*
X46346129Y-95744178D01*
X46202510Y-95536920D01*
X46202487Y-95536884D01*
X46202465Y-95536838D01*
X46178073Y-95501654D01*
X46178059Y-95501632D01*
X46159248Y-95474486D01*
X46159232Y-95474464D01*
X46159163Y-95474365D01*
X46159136Y-95474335D01*
X46159107Y-95474297D01*
X46015052Y-95266508D01*
X46014989Y-95266418D01*
X45851491Y-95030144D01*
X45851300Y-95029866D01*
X45696774Y-94805276D01*
X45691471Y-94797568D01*
X45557041Y-94600631D01*
X45556621Y-94599965D01*
X45556227Y-94599148D01*
X45534390Y-94567449D01*
X45514397Y-94538160D01*
X45513789Y-94537496D01*
X45513302Y-94536838D01*
X45379478Y-94342576D01*
X45379205Y-94342179D01*
X45229518Y-94123101D01*
X45229315Y-94122803D01*
X45180263Y-94050569D01*
X45105904Y-93941068D01*
X45105890Y-93941046D01*
X45105867Y-93940997D01*
X45084439Y-93909459D01*
X45063162Y-93878126D01*
X45063124Y-93878084D01*
X45063103Y-93878056D01*
X44942280Y-93700225D01*
X44941982Y-93699784D01*
X44929758Y-93681627D01*
X44828842Y-93531737D01*
X44828711Y-93531526D01*
X44828588Y-93531264D01*
X44826261Y-93527817D01*
X44806666Y-93498799D01*
X44806571Y-93498657D01*
X44786891Y-93469426D01*
X44786878Y-93469408D01*
X44786416Y-93468722D01*
X44786220Y-93468506D01*
X44786077Y-93468309D01*
X44783546Y-93464560D01*
X44713230Y-93360428D01*
X44675569Y-93304654D01*
X44675414Y-93304424D01*
X44573127Y-93152221D01*
X44573111Y-93152195D01*
X44573096Y-93152162D01*
X44572347Y-93151047D01*
X44551872Y-93120593D01*
X44551859Y-93120574D01*
X44530760Y-93089178D01*
X44530755Y-93089172D01*
X44530681Y-93089061D01*
X44530647Y-93089024D01*
X44432876Y-92943598D01*
X44432569Y-92943138D01*
X44371680Y-92851531D01*
X44369422Y-92848134D01*
X52391500Y-92848134D01*
X52398255Y-92910316D01*
X52449385Y-93046705D01*
X52536739Y-93163261D01*
X52653295Y-93250615D01*
X52789684Y-93301745D01*
X52851866Y-93308500D01*
X54148134Y-93308500D01*
X54210316Y-93301745D01*
X54346705Y-93250615D01*
X54463261Y-93163261D01*
X54550615Y-93046705D01*
X54601745Y-92910316D01*
X54608500Y-92848134D01*
X54891500Y-92848134D01*
X54898255Y-92910316D01*
X54949385Y-93046705D01*
X55036739Y-93163261D01*
X55153295Y-93250615D01*
X55289684Y-93301745D01*
X55351866Y-93308500D01*
X56648134Y-93308500D01*
X56710316Y-93301745D01*
X56846705Y-93250615D01*
X56963261Y-93163261D01*
X57050615Y-93046705D01*
X57101745Y-92910316D01*
X57108500Y-92848134D01*
X57391500Y-92848134D01*
X57398255Y-92910316D01*
X57449385Y-93046705D01*
X57536739Y-93163261D01*
X57653295Y-93250615D01*
X57789684Y-93301745D01*
X57851866Y-93308500D01*
X59148134Y-93308500D01*
X59210316Y-93301745D01*
X59346705Y-93250615D01*
X59463261Y-93163261D01*
X59550615Y-93046705D01*
X59601745Y-92910316D01*
X59608500Y-92848134D01*
X59608500Y-90051866D01*
X59601745Y-89989684D01*
X59550615Y-89853295D01*
X59463261Y-89736739D01*
X59346705Y-89649385D01*
X59210316Y-89598255D01*
X59148134Y-89591500D01*
X57851866Y-89591500D01*
X57789684Y-89598255D01*
X57653295Y-89649385D01*
X57536739Y-89736739D01*
X57449385Y-89853295D01*
X57398255Y-89989684D01*
X57391500Y-90051866D01*
X57391500Y-92848134D01*
X57108500Y-92848134D01*
X57108500Y-90051866D01*
X57101745Y-89989684D01*
X57050615Y-89853295D01*
X56963261Y-89736739D01*
X56846705Y-89649385D01*
X56710316Y-89598255D01*
X56648134Y-89591500D01*
X55351866Y-89591500D01*
X55289684Y-89598255D01*
X55153295Y-89649385D01*
X55036739Y-89736739D01*
X54949385Y-89853295D01*
X54898255Y-89989684D01*
X54891500Y-90051866D01*
X54891500Y-92848134D01*
X54608500Y-92848134D01*
X54608500Y-90051866D01*
X54601745Y-89989684D01*
X54550615Y-89853295D01*
X54463261Y-89736739D01*
X54346705Y-89649385D01*
X54210316Y-89598255D01*
X54148134Y-89591500D01*
X52851866Y-89591500D01*
X52789684Y-89598255D01*
X52653295Y-89649385D01*
X52536739Y-89736739D01*
X52449385Y-89853295D01*
X52398255Y-89989684D01*
X52391500Y-90051866D01*
X52391500Y-92848134D01*
X44369422Y-92848134D01*
X44344221Y-92810218D01*
X44343961Y-92809793D01*
X44343705Y-92809243D01*
X44322183Y-92777063D01*
X44313293Y-92763687D01*
X44303234Y-92748552D01*
X44303222Y-92748536D01*
X44302276Y-92747112D01*
X44301872Y-92746660D01*
X44301563Y-92746230D01*
X44217091Y-92619924D01*
X44216878Y-92619604D01*
X44210252Y-92609630D01*
X44121403Y-92475899D01*
X44121119Y-92475469D01*
X44055586Y-92375680D01*
X44055298Y-92375204D01*
X44055021Y-92374599D01*
X44053986Y-92373033D01*
X44053979Y-92373022D01*
X44033630Y-92342245D01*
X44033447Y-92341968D01*
X44013996Y-92312350D01*
X44013571Y-92311868D01*
X44013239Y-92311401D01*
X43954308Y-92222269D01*
X43953835Y-92221549D01*
X43905365Y-92147138D01*
X43904794Y-92146188D01*
X43904293Y-92145092D01*
X43883523Y-92113601D01*
X43883158Y-92113045D01*
X43881181Y-92110009D01*
X43864152Y-92083867D01*
X43863357Y-92082960D01*
X43862700Y-92082032D01*
X43839121Y-92046284D01*
X43824187Y-92023642D01*
X43822754Y-92021418D01*
X43795867Y-91978714D01*
X43794589Y-91976529D01*
X43793597Y-91974302D01*
X43790959Y-91970219D01*
X43790956Y-91970214D01*
X43774137Y-91944186D01*
X43773340Y-91942936D01*
X43758241Y-91918954D01*
X43758234Y-91918944D01*
X43755855Y-91915166D01*
X43754280Y-91913311D01*
X43752808Y-91911175D01*
X43734293Y-91882522D01*
X43732665Y-91879935D01*
X43725857Y-91868816D01*
X43724259Y-91866206D01*
X43723055Y-91864082D01*
X43722203Y-91862088D01*
X43704231Y-91833333D01*
X43703035Y-91831379D01*
X43689557Y-91808916D01*
X43687249Y-91805069D01*
X43684912Y-91802194D01*
X43682391Y-91798389D01*
X43676946Y-91789676D01*
X43641907Y-91733615D01*
X43641415Y-91732761D01*
X43640982Y-91731763D01*
X43633207Y-91719464D01*
X43620673Y-91699637D01*
X43620327Y-91699088D01*
X43603415Y-91672029D01*
X43601855Y-91669533D01*
X43601157Y-91668707D01*
X43600598Y-91667884D01*
X43585913Y-91644654D01*
X43585821Y-91644495D01*
X43585730Y-91644286D01*
X43564601Y-91610942D01*
X43545303Y-91580416D01*
X43545157Y-91580245D01*
X43545053Y-91580092D01*
X43521342Y-91542674D01*
X43520650Y-91541491D01*
X43520055Y-91540150D01*
X43499781Y-91508643D01*
X43499318Y-91507917D01*
X43497156Y-91504505D01*
X43480983Y-91478983D01*
X43480032Y-91477870D01*
X43479244Y-91476727D01*
X43425003Y-91392436D01*
X43424864Y-91392220D01*
X43364250Y-91297601D01*
X43363787Y-91296817D01*
X43363369Y-91295882D01*
X43342522Y-91263685D01*
X43323477Y-91233956D01*
X43322806Y-91233178D01*
X43322281Y-91232423D01*
X43252450Y-91124574D01*
X43252305Y-91124349D01*
X43177063Y-91007219D01*
X43176851Y-91006860D01*
X43176629Y-91006362D01*
X43155580Y-90973777D01*
X43136097Y-90943447D01*
X43135746Y-90943041D01*
X43135481Y-90942660D01*
X43082081Y-90859994D01*
X43072571Y-90845271D01*
X43072509Y-90845168D01*
X43072442Y-90845016D01*
X43072077Y-90844451D01*
X43050932Y-90811773D01*
X43031323Y-90781416D01*
X43031213Y-90781289D01*
X43031138Y-90781182D01*
X42962396Y-90674944D01*
X42962331Y-90674835D01*
X42962273Y-90674704D01*
X42940937Y-90641780D01*
X42940953Y-90641770D01*
X42940889Y-90641706D01*
X42921086Y-90611101D01*
X42920985Y-90610984D01*
X42920918Y-90610889D01*
X42846087Y-90495419D01*
X42845793Y-90494926D01*
X42845525Y-90494331D01*
X42824231Y-90461691D01*
X42804872Y-90431819D01*
X42804446Y-90431331D01*
X42804118Y-90430864D01*
X42726704Y-90312203D01*
X42702234Y-90274695D01*
X42702157Y-90274440D01*
X42702094Y-90274481D01*
X42576768Y-90081520D01*
X42576637Y-90081317D01*
X42468329Y-89913856D01*
X42468082Y-89913442D01*
X42467855Y-89912935D01*
X42462670Y-89904964D01*
X42446729Y-89880457D01*
X42446550Y-89880181D01*
X42428015Y-89851524D01*
X42427149Y-89850185D01*
X42426784Y-89849766D01*
X42426502Y-89849363D01*
X42358480Y-89744792D01*
X42313000Y-89674874D01*
X42312969Y-89674770D01*
X42312943Y-89674787D01*
X42281533Y-89626412D01*
X42196968Y-89496172D01*
X42196853Y-89495978D01*
X42196738Y-89495722D01*
X42196299Y-89495048D01*
X42196292Y-89495036D01*
X42175331Y-89462846D01*
X42175243Y-89462711D01*
X42155603Y-89432463D01*
X42155421Y-89432255D01*
X42155287Y-89432064D01*
X42056728Y-89280704D01*
X42056714Y-89280680D01*
X42056702Y-89280654D01*
X42034219Y-89246138D01*
X42015198Y-89216927D01*
X42015180Y-89216907D01*
X42015162Y-89216881D01*
X41893156Y-89029576D01*
X41893089Y-89029474D01*
X41750527Y-88810148D01*
X41750462Y-88810047D01*
X41633434Y-88629630D01*
X41628093Y-88621395D01*
X41627996Y-88621232D01*
X41627899Y-88621017D01*
X41606612Y-88588278D01*
X41606538Y-88588163D01*
X41587126Y-88558237D01*
X41587117Y-88558225D01*
X41586742Y-88557646D01*
X41586587Y-88557467D01*
X41586467Y-88557297D01*
X41441401Y-88334195D01*
X41441399Y-88334193D01*
X41316338Y-88141857D01*
X41172709Y-87920429D01*
X41113505Y-87828931D01*
X41028290Y-87697233D01*
X41028277Y-87697214D01*
X40889516Y-87482676D01*
X40889503Y-87482655D01*
X40810397Y-87360298D01*
X40771416Y-87300004D01*
X40771231Y-87299693D01*
X40771060Y-87299311D01*
X40749565Y-87266205D01*
X40730204Y-87236259D01*
X40729934Y-87235949D01*
X40729735Y-87235664D01*
X40613375Y-87056454D01*
X40613048Y-87055948D01*
X40502031Y-86883163D01*
X40501751Y-86882690D01*
X40501492Y-86882108D01*
X40480389Y-86849480D01*
X40461069Y-86819410D01*
X40460651Y-86818927D01*
X40460333Y-86818470D01*
X40437579Y-86783288D01*
X40350524Y-86648688D01*
X40247435Y-86487868D01*
X40247401Y-86487812D01*
X40247357Y-86487711D01*
X40225894Y-86454265D01*
X40206391Y-86423840D01*
X40206321Y-86423759D01*
X40206281Y-86423701D01*
X40106305Y-86267906D01*
X40106169Y-86267693D01*
X39991941Y-86088902D01*
X39991871Y-86088792D01*
X39903979Y-85950908D01*
X39903832Y-85950657D01*
X39903691Y-85950336D01*
X39902282Y-85948134D01*
X52391500Y-85948134D01*
X52398255Y-86010316D01*
X52449385Y-86146705D01*
X52536739Y-86263261D01*
X52653295Y-86350615D01*
X52789684Y-86401745D01*
X52851866Y-86408500D01*
X54148134Y-86408500D01*
X54210316Y-86401745D01*
X54346705Y-86350615D01*
X54463261Y-86263261D01*
X54550615Y-86146705D01*
X54601745Y-86010316D01*
X54608500Y-85948134D01*
X54891500Y-85948134D01*
X54898255Y-86010316D01*
X54949385Y-86146705D01*
X55036739Y-86263261D01*
X55153295Y-86350615D01*
X55289684Y-86401745D01*
X55351866Y-86408500D01*
X56648134Y-86408500D01*
X56710316Y-86401745D01*
X56846705Y-86350615D01*
X56963261Y-86263261D01*
X57050615Y-86146705D01*
X57101745Y-86010316D01*
X57108500Y-85948134D01*
X57108500Y-85944669D01*
X57392001Y-85944669D01*
X57392371Y-85951490D01*
X57397895Y-86002352D01*
X57401521Y-86017604D01*
X57446676Y-86138054D01*
X57455214Y-86153649D01*
X57531715Y-86255724D01*
X57544276Y-86268285D01*
X57646351Y-86344786D01*
X57661946Y-86353324D01*
X57782394Y-86398478D01*
X57797649Y-86402105D01*
X57848514Y-86407631D01*
X57855328Y-86408000D01*
X58227885Y-86408000D01*
X58243124Y-86403525D01*
X58244329Y-86402135D01*
X58246000Y-86394452D01*
X58246000Y-86389884D01*
X58754000Y-86389884D01*
X58758475Y-86405123D01*
X58759865Y-86406328D01*
X58767548Y-86407999D01*
X59144669Y-86407999D01*
X59151490Y-86407629D01*
X59202352Y-86402105D01*
X59217604Y-86398479D01*
X59338054Y-86353324D01*
X59353649Y-86344786D01*
X59455724Y-86268285D01*
X59468285Y-86255724D01*
X59544786Y-86153649D01*
X59553324Y-86138054D01*
X59598478Y-86017606D01*
X59602105Y-86002351D01*
X59607631Y-85951486D01*
X59608000Y-85944672D01*
X59608000Y-84822115D01*
X59603525Y-84806876D01*
X59602135Y-84805671D01*
X59594452Y-84804000D01*
X58772115Y-84804000D01*
X58756876Y-84808475D01*
X58755671Y-84809865D01*
X58754000Y-84817548D01*
X58754000Y-86389884D01*
X58246000Y-86389884D01*
X58246000Y-84822115D01*
X58241525Y-84806876D01*
X58240135Y-84805671D01*
X58232452Y-84804000D01*
X57410116Y-84804000D01*
X57394877Y-84808475D01*
X57393672Y-84809865D01*
X57392001Y-84817548D01*
X57392001Y-85944669D01*
X57108500Y-85944669D01*
X57108500Y-84277885D01*
X57392000Y-84277885D01*
X57396475Y-84293124D01*
X57397865Y-84294329D01*
X57405548Y-84296000D01*
X58227885Y-84296000D01*
X58243124Y-84291525D01*
X58244329Y-84290135D01*
X58246000Y-84282452D01*
X58246000Y-84277885D01*
X58754000Y-84277885D01*
X58758475Y-84293124D01*
X58759865Y-84294329D01*
X58767548Y-84296000D01*
X59589884Y-84296000D01*
X59605123Y-84291525D01*
X59606328Y-84290135D01*
X59607999Y-84282452D01*
X59607999Y-83155331D01*
X59607629Y-83148510D01*
X59602105Y-83097648D01*
X59598479Y-83082396D01*
X59553324Y-82961946D01*
X59544786Y-82946351D01*
X59468285Y-82844276D01*
X59455724Y-82831715D01*
X59353649Y-82755214D01*
X59338054Y-82746676D01*
X59217606Y-82701522D01*
X59202351Y-82697895D01*
X59151486Y-82692369D01*
X59144672Y-82692000D01*
X58772115Y-82692000D01*
X58756876Y-82696475D01*
X58755671Y-82697865D01*
X58754000Y-82705548D01*
X58754000Y-84277885D01*
X58246000Y-84277885D01*
X58246000Y-82710116D01*
X58241525Y-82694877D01*
X58240135Y-82693672D01*
X58232452Y-82692001D01*
X57855331Y-82692001D01*
X57848510Y-82692371D01*
X57797648Y-82697895D01*
X57782396Y-82701521D01*
X57661946Y-82746676D01*
X57646351Y-82755214D01*
X57544276Y-82831715D01*
X57531715Y-82844276D01*
X57455214Y-82946351D01*
X57446676Y-82961946D01*
X57401522Y-83082394D01*
X57397895Y-83097649D01*
X57392369Y-83148514D01*
X57392000Y-83155328D01*
X57392000Y-84277885D01*
X57108500Y-84277885D01*
X57108500Y-83151866D01*
X57101745Y-83089684D01*
X57050615Y-82953295D01*
X56963261Y-82836739D01*
X56846705Y-82749385D01*
X56758072Y-82716158D01*
X56715270Y-82700112D01*
X56658506Y-82657470D01*
X56633806Y-82590909D01*
X56633500Y-82582130D01*
X56633500Y-77314594D01*
X56653502Y-77246473D01*
X56670405Y-77225499D01*
X62105500Y-71790405D01*
X62167812Y-71756379D01*
X62194595Y-71753500D01*
X68155500Y-71753500D01*
X68223621Y-71773502D01*
X68270114Y-71827158D01*
X68281500Y-71879500D01*
X68281500Y-73468134D01*
X68288255Y-73530316D01*
X68339385Y-73666705D01*
X68426739Y-73783261D01*
X68543295Y-73870615D01*
X68679684Y-73921745D01*
X68741866Y-73928500D01*
X72438134Y-73928500D01*
X72500316Y-73921745D01*
X72636705Y-73870615D01*
X72753261Y-73783261D01*
X72840615Y-73666705D01*
X72891745Y-73530316D01*
X72898500Y-73468134D01*
X72898500Y-68771866D01*
X72891745Y-68709684D01*
X72840615Y-68573295D01*
X72753261Y-68456739D01*
X72636705Y-68369385D01*
X72500316Y-68318255D01*
X72438134Y-68311500D01*
X68741866Y-68311500D01*
X68679684Y-68318255D01*
X68543295Y-68369385D01*
X68426739Y-68456739D01*
X68339385Y-68573295D01*
X68288255Y-68709684D01*
X68281500Y-68771866D01*
X68281500Y-70360500D01*
X68261498Y-70428621D01*
X68207842Y-70475114D01*
X68155500Y-70486500D01*
X61958768Y-70486500D01*
X61947585Y-70485973D01*
X61940092Y-70484298D01*
X61932166Y-70484547D01*
X61932165Y-70484547D01*
X61872002Y-70486438D01*
X61868044Y-70486500D01*
X61840144Y-70486500D01*
X61836154Y-70487004D01*
X61824320Y-70487936D01*
X61780111Y-70489326D01*
X61772497Y-70491538D01*
X61772492Y-70491539D01*
X61760659Y-70494977D01*
X61741296Y-70498988D01*
X61721203Y-70501526D01*
X61713836Y-70504443D01*
X61713831Y-70504444D01*
X61680092Y-70517802D01*
X61668865Y-70521646D01*
X61626407Y-70533982D01*
X61619581Y-70538019D01*
X61608972Y-70544293D01*
X61591224Y-70552988D01*
X61572383Y-70560448D01*
X61565967Y-70565110D01*
X61565966Y-70565110D01*
X61536613Y-70586436D01*
X61526693Y-70592952D01*
X61495465Y-70611420D01*
X61495462Y-70611422D01*
X61488638Y-70615458D01*
X61474317Y-70629779D01*
X61459284Y-70642619D01*
X61442893Y-70654528D01*
X61431341Y-70668492D01*
X61414702Y-70688605D01*
X61406712Y-70697384D01*
X55607747Y-76496348D01*
X55599461Y-76503888D01*
X55592982Y-76508000D01*
X55587557Y-76513777D01*
X55546357Y-76557651D01*
X55543602Y-76560493D01*
X55523865Y-76580230D01*
X55521385Y-76583427D01*
X55513682Y-76592447D01*
X55483414Y-76624679D01*
X55479595Y-76631625D01*
X55479593Y-76631628D01*
X55473652Y-76642434D01*
X55462801Y-76658953D01*
X55450386Y-76674959D01*
X55447241Y-76682228D01*
X55447238Y-76682232D01*
X55432826Y-76715537D01*
X55427609Y-76726187D01*
X55406305Y-76764940D01*
X55404334Y-76772615D01*
X55404334Y-76772616D01*
X55401267Y-76784562D01*
X55394863Y-76803266D01*
X55386819Y-76821855D01*
X55385580Y-76829678D01*
X55385577Y-76829688D01*
X55379901Y-76865524D01*
X55377495Y-76877144D01*
X55366500Y-76919970D01*
X55366500Y-76940224D01*
X55364949Y-76959934D01*
X55361780Y-76979943D01*
X55362526Y-76987835D01*
X55365941Y-77023961D01*
X55366500Y-77035819D01*
X55366500Y-82582130D01*
X55346498Y-82650251D01*
X55292842Y-82696744D01*
X55284730Y-82700112D01*
X55241928Y-82716158D01*
X55153295Y-82749385D01*
X55036739Y-82836739D01*
X54949385Y-82953295D01*
X54898255Y-83089684D01*
X54891500Y-83151866D01*
X54891500Y-85948134D01*
X54608500Y-85948134D01*
X54608500Y-83151866D01*
X54601745Y-83089684D01*
X54550615Y-82953295D01*
X54463261Y-82836739D01*
X54346705Y-82749385D01*
X54210316Y-82698255D01*
X54148134Y-82691500D01*
X52851866Y-82691500D01*
X52789684Y-82698255D01*
X52653295Y-82749385D01*
X52536739Y-82836739D01*
X52449385Y-82953295D01*
X52398255Y-83089684D01*
X52391500Y-83151866D01*
X52391500Y-85948134D01*
X39902282Y-85948134D01*
X39882626Y-85917409D01*
X39863169Y-85886885D01*
X39862940Y-85886618D01*
X39862769Y-85886370D01*
X39854803Y-85873918D01*
X39781153Y-85758795D01*
X39780477Y-85757727D01*
X39751228Y-85710929D01*
X39707792Y-85641432D01*
X39707027Y-85640107D01*
X39706381Y-85638628D01*
X39704108Y-85635052D01*
X39704095Y-85635030D01*
X39686369Y-85607147D01*
X39685854Y-85606331D01*
X39677522Y-85593000D01*
X39667855Y-85577533D01*
X39666822Y-85576309D01*
X39665949Y-85575027D01*
X39597505Y-85467363D01*
X39596989Y-85466546D01*
X39518717Y-85341311D01*
X39448604Y-85228353D01*
X39448079Y-85227498D01*
X39388072Y-85128777D01*
X39387806Y-85128337D01*
X39380347Y-85115951D01*
X39349537Y-85064795D01*
X39337426Y-85044685D01*
X39336715Y-85043490D01*
X39304719Y-84989013D01*
X39303508Y-84986904D01*
X39242868Y-84878685D01*
X39242408Y-84877856D01*
X39238259Y-84870307D01*
X39174626Y-84754530D01*
X39173471Y-84752378D01*
X39101362Y-84614800D01*
X39100986Y-84614078D01*
X39022366Y-84461691D01*
X39021778Y-84460536D01*
X38939538Y-84297024D01*
X38939078Y-84296099D01*
X38938208Y-84294329D01*
X38869797Y-84155176D01*
X38869776Y-84155128D01*
X38869758Y-84155070D01*
X38851846Y-84118661D01*
X38836226Y-84086889D01*
X38836194Y-84086841D01*
X38836167Y-84086791D01*
X38762006Y-83936051D01*
X38761336Y-83934669D01*
X38686996Y-83778796D01*
X38686957Y-83778707D01*
X38686924Y-83778594D01*
X38669887Y-83742922D01*
X38665148Y-83732985D01*
X38654414Y-83710478D01*
X38654407Y-83710464D01*
X38654256Y-83710148D01*
X38654190Y-83710049D01*
X38654144Y-83709961D01*
X38574813Y-83543861D01*
X38574511Y-83543223D01*
X38478829Y-83339035D01*
X38382370Y-83131201D01*
X38381511Y-83129341D01*
X38285574Y-82921806D01*
X38285184Y-82920954D01*
X38205409Y-82744955D01*
X38205291Y-82744666D01*
X38205190Y-82744306D01*
X38195895Y-82723894D01*
X38189008Y-82708772D01*
X38174069Y-82675814D01*
X38173867Y-82675499D01*
X38173723Y-82675209D01*
X38105289Y-82524936D01*
X38092832Y-82497580D01*
X38092444Y-82496719D01*
X37998989Y-82286941D01*
X37998966Y-82286891D01*
X37907212Y-82080689D01*
X37906959Y-82080116D01*
X37823893Y-81890912D01*
X37817992Y-81877470D01*
X37755073Y-81732829D01*
X37731818Y-81679369D01*
X37731610Y-81678887D01*
X37649546Y-81488065D01*
X37649419Y-81487769D01*
X37571575Y-81305476D01*
X37571229Y-81304659D01*
X37513421Y-81166386D01*
X37513415Y-81166364D01*
X37497835Y-81129108D01*
X37497830Y-81129095D01*
X37484089Y-81096227D01*
X37484082Y-81096211D01*
X37484065Y-81096171D01*
X37484058Y-81096159D01*
X37484048Y-81096137D01*
X37431039Y-80969376D01*
X37430296Y-80967560D01*
X37370336Y-80817660D01*
X37370222Y-80817374D01*
X37367279Y-80809962D01*
X37315746Y-80680211D01*
X37315294Y-80679057D01*
X37269046Y-80559190D01*
X37268405Y-80557493D01*
X37231088Y-80456461D01*
X37230294Y-80454247D01*
X37221343Y-80428512D01*
X37201633Y-80371848D01*
X37201105Y-80370298D01*
X37170859Y-80279559D01*
X37170856Y-80279551D01*
X37168936Y-80273790D01*
X37168928Y-80273762D01*
X37125176Y-80142509D01*
X37124864Y-80141561D01*
X37089266Y-80031880D01*
X37089043Y-80031187D01*
X37088713Y-80030148D01*
X37047549Y-79900778D01*
X37044422Y-79890930D01*
X37001382Y-79755401D01*
X37001091Y-79754472D01*
X36962514Y-79629663D01*
X36962499Y-79629608D01*
X36962490Y-79629547D01*
X36950541Y-79590926D01*
X36950532Y-79590894D01*
X36940096Y-79557133D01*
X36940096Y-79557132D01*
X36940040Y-79556952D01*
X36940014Y-79556897D01*
X36940002Y-79556863D01*
X36895437Y-79412822D01*
X36895156Y-79411898D01*
X36848312Y-79256279D01*
X36848274Y-79256131D01*
X36848250Y-79255965D01*
X36836726Y-79217793D01*
X36826393Y-79183465D01*
X36826323Y-79183315D01*
X36826277Y-79183179D01*
X36783031Y-79039928D01*
X36773608Y-79008716D01*
X36773287Y-79007634D01*
X36708584Y-78786072D01*
X36708399Y-78785433D01*
X36658358Y-78610653D01*
X36640106Y-78546903D01*
X36568562Y-78293518D01*
X36494405Y-78028529D01*
X36494153Y-78027614D01*
X36421395Y-77758596D01*
X36419245Y-77750650D01*
X36419104Y-77750123D01*
X36341860Y-77458976D01*
X36341719Y-77458438D01*
X36286484Y-77246473D01*
X36262481Y-77154362D01*
X36262333Y-77153786D01*
X36182203Y-76839201D01*
X36182048Y-76838584D01*
X36179838Y-76829688D01*
X36100776Y-76511512D01*
X36100652Y-76511009D01*
X36018726Y-76175408D01*
X36018492Y-76174429D01*
X35937374Y-75827204D01*
X35899279Y-75661052D01*
X35855212Y-75468855D01*
X35854994Y-75467890D01*
X35774537Y-75103871D01*
X35773781Y-75100451D01*
X35692557Y-74724047D01*
X35692370Y-74723162D01*
X35612283Y-74337558D01*
X35612121Y-74336766D01*
X35533076Y-73943517D01*
X35532868Y-73942459D01*
X35529052Y-73922598D01*
X35455801Y-73541316D01*
X35455637Y-73540443D01*
X35453774Y-73530316D01*
X35442331Y-73468134D01*
X38981500Y-73468134D01*
X38988255Y-73530316D01*
X39039385Y-73666705D01*
X39126739Y-73783261D01*
X39243295Y-73870615D01*
X39379684Y-73921745D01*
X39441866Y-73928500D01*
X43138134Y-73928500D01*
X43200316Y-73921745D01*
X43336705Y-73870615D01*
X43453261Y-73783261D01*
X43540615Y-73666705D01*
X43591745Y-73530316D01*
X43598500Y-73468134D01*
X43598500Y-68771866D01*
X43591745Y-68709684D01*
X43540615Y-68573295D01*
X43453261Y-68456739D01*
X43336705Y-68369385D01*
X43200316Y-68318255D01*
X43138134Y-68311500D01*
X42049500Y-68311500D01*
X41981379Y-68291498D01*
X41934886Y-68237842D01*
X41923500Y-68185500D01*
X41923500Y-63214594D01*
X41943502Y-63146473D01*
X41960405Y-63125499D01*
X45420500Y-59665405D01*
X45482812Y-59631379D01*
X45509595Y-59628500D01*
X46845400Y-59628500D01*
X46848646Y-59628163D01*
X46848650Y-59628163D01*
X46944308Y-59618238D01*
X46944312Y-59618237D01*
X46951166Y-59617526D01*
X46957702Y-59615345D01*
X46957704Y-59615345D01*
X47089806Y-59571272D01*
X47118946Y-59561550D01*
X47269348Y-59468478D01*
X47394305Y-59343303D01*
X47430511Y-59284567D01*
X47483275Y-59198968D01*
X47483276Y-59198966D01*
X47487115Y-59192738D01*
X47489419Y-59185791D01*
X47492513Y-59179156D01*
X47494749Y-59180199D01*
X47528523Y-59131462D01*
X47594091Y-59104234D01*
X47607672Y-59103500D01*
X64152484Y-59103500D01*
X64220605Y-59123502D01*
X64267098Y-59177158D01*
X64270137Y-59184874D01*
X64271132Y-59186997D01*
X64273450Y-59193946D01*
X64366522Y-59344348D01*
X64491697Y-59469305D01*
X64497927Y-59473145D01*
X64497928Y-59473146D01*
X64635090Y-59557694D01*
X64642262Y-59562115D01*
X64722005Y-59588564D01*
X64803611Y-59615632D01*
X64803613Y-59615632D01*
X64810139Y-59617797D01*
X64816975Y-59618497D01*
X64816978Y-59618498D01*
X64856811Y-59622579D01*
X64914600Y-59628500D01*
X67165400Y-59628500D01*
X67168646Y-59628163D01*
X67168650Y-59628163D01*
X67264308Y-59618238D01*
X67264312Y-59618237D01*
X67271166Y-59617526D01*
X67277702Y-59615345D01*
X67277704Y-59615345D01*
X67409806Y-59571272D01*
X67438946Y-59561550D01*
X67589348Y-59468478D01*
X67714305Y-59343303D01*
X67750511Y-59284567D01*
X67803275Y-59198968D01*
X67803276Y-59198966D01*
X67807115Y-59192738D01*
X67862797Y-59024861D01*
X67866498Y-58988745D01*
X67873172Y-58923598D01*
X67873500Y-58920400D01*
X67873500Y-58019600D01*
X67868486Y-57971273D01*
X67863238Y-57920692D01*
X67863237Y-57920688D01*
X67862526Y-57913834D01*
X67806550Y-57746054D01*
X67713478Y-57595652D01*
X67588303Y-57470695D01*
X67566991Y-57457558D01*
X67443968Y-57381725D01*
X67443966Y-57381724D01*
X67437738Y-57377885D01*
X67277254Y-57324655D01*
X67276389Y-57324368D01*
X67276387Y-57324368D01*
X67269861Y-57322203D01*
X67263025Y-57321503D01*
X67263022Y-57321502D01*
X67219969Y-57317091D01*
X67165400Y-57311500D01*
X64914600Y-57311500D01*
X64911354Y-57311837D01*
X64911350Y-57311837D01*
X64815692Y-57321762D01*
X64815688Y-57321763D01*
X64808834Y-57322474D01*
X64802298Y-57324655D01*
X64802296Y-57324655D01*
X64714231Y-57354036D01*
X64641054Y-57378450D01*
X64490652Y-57471522D01*
X64365695Y-57596697D01*
X64361855Y-57602927D01*
X64361854Y-57602928D01*
X64304974Y-57695205D01*
X64272885Y-57747262D01*
X64270581Y-57754209D01*
X64267487Y-57760844D01*
X64265251Y-57759801D01*
X64231477Y-57808538D01*
X64165909Y-57835766D01*
X64152328Y-57836500D01*
X47607516Y-57836500D01*
X47539395Y-57816498D01*
X47492902Y-57762842D01*
X47489863Y-57755126D01*
X47488868Y-57753002D01*
X47486550Y-57746054D01*
X47393478Y-57595652D01*
X47268303Y-57470695D01*
X47246991Y-57457558D01*
X47123968Y-57381725D01*
X47123966Y-57381724D01*
X47117738Y-57377885D01*
X46957254Y-57324655D01*
X46956389Y-57324368D01*
X46956387Y-57324368D01*
X46949861Y-57322203D01*
X46943025Y-57321503D01*
X46943022Y-57321502D01*
X46899969Y-57317091D01*
X46845400Y-57311500D01*
X44594600Y-57311500D01*
X44591354Y-57311837D01*
X44591350Y-57311837D01*
X44495692Y-57321762D01*
X44495688Y-57321763D01*
X44488834Y-57322474D01*
X44482298Y-57324655D01*
X44482296Y-57324655D01*
X44394231Y-57354036D01*
X44321054Y-57378450D01*
X44170652Y-57471522D01*
X44045695Y-57596697D01*
X44041855Y-57602927D01*
X44041854Y-57602928D01*
X43984974Y-57695205D01*
X43952885Y-57747262D01*
X43897203Y-57915139D01*
X43886500Y-58019600D01*
X43886500Y-58920400D01*
X43897474Y-59026166D01*
X43953450Y-59193946D01*
X43957305Y-59200176D01*
X43960407Y-59206797D01*
X43959136Y-59207392D01*
X43975862Y-59268179D01*
X43954698Y-59335948D01*
X43938975Y-59355120D01*
X40897747Y-62396348D01*
X40889461Y-62403888D01*
X40882982Y-62408000D01*
X40877557Y-62413777D01*
X40836357Y-62457651D01*
X40833602Y-62460493D01*
X40813865Y-62480230D01*
X40811385Y-62483427D01*
X40803682Y-62492447D01*
X40773414Y-62524679D01*
X40769595Y-62531625D01*
X40769593Y-62531628D01*
X40763652Y-62542434D01*
X40752801Y-62558953D01*
X40740386Y-62574959D01*
X40737241Y-62582228D01*
X40737238Y-62582232D01*
X40722826Y-62615537D01*
X40717609Y-62626187D01*
X40696305Y-62664940D01*
X40694334Y-62672615D01*
X40694334Y-62672616D01*
X40691267Y-62684562D01*
X40684863Y-62703266D01*
X40676819Y-62721855D01*
X40675580Y-62729678D01*
X40675577Y-62729688D01*
X40669901Y-62765524D01*
X40667495Y-62777144D01*
X40656500Y-62819970D01*
X40656500Y-62840224D01*
X40654949Y-62859934D01*
X40651780Y-62879943D01*
X40652526Y-62887835D01*
X40655941Y-62923961D01*
X40656500Y-62935819D01*
X40656500Y-68185500D01*
X40636498Y-68253621D01*
X40582842Y-68300114D01*
X40530500Y-68311500D01*
X39441866Y-68311500D01*
X39379684Y-68318255D01*
X39243295Y-68369385D01*
X39126739Y-68456739D01*
X39039385Y-68573295D01*
X38988255Y-68709684D01*
X38981500Y-68771866D01*
X38981500Y-73468134D01*
X35442331Y-73468134D01*
X35380445Y-73131827D01*
X35380317Y-73131123D01*
X35306272Y-72715489D01*
X35306018Y-72714010D01*
X35235881Y-72291212D01*
X35235790Y-72290655D01*
X35166571Y-71861494D01*
X35166357Y-71860122D01*
X35155900Y-71790405D01*
X35101374Y-71426901D01*
X35101185Y-71425597D01*
X35039899Y-70985718D01*
X35039794Y-70984947D01*
X34980562Y-70539722D01*
X34980369Y-70538194D01*
X34977910Y-70517802D01*
X34926202Y-70089096D01*
X34926066Y-70087923D01*
X34883216Y-69702284D01*
X34875728Y-69634891D01*
X34875601Y-69633700D01*
X34843145Y-69313283D01*
X34829329Y-69176884D01*
X34829173Y-69175223D01*
X34796159Y-68799177D01*
X34788806Y-68715425D01*
X34788712Y-68714299D01*
X34778273Y-68581703D01*
X34752254Y-68251193D01*
X34752138Y-68249584D01*
X34751369Y-68237842D01*
X34721638Y-67784213D01*
X34721558Y-67782893D01*
X34695996Y-67315881D01*
X34695908Y-67314021D01*
X34677254Y-66846701D01*
X34677201Y-66845101D01*
X34665882Y-66428939D01*
X34664421Y-66375220D01*
X34664389Y-66373708D01*
X34664268Y-66365390D01*
X34657513Y-65903183D01*
X34657500Y-65901343D01*
X34657500Y-65431296D01*
X34657518Y-65429192D01*
X34665079Y-64976415D01*
X34665352Y-64960070D01*
X34665395Y-64958290D01*
X34666070Y-64936760D01*
X34679017Y-64523344D01*
X34679580Y-64517290D01*
X34679376Y-64517274D01*
X34679751Y-64512426D01*
X34680500Y-64507614D01*
X34680500Y-64477972D01*
X34680659Y-64471635D01*
X34707538Y-63937904D01*
X34707691Y-63935380D01*
X34744731Y-63410005D01*
X34744966Y-63407135D01*
X34792679Y-62896891D01*
X34792948Y-62894301D01*
X34838919Y-62492449D01*
X34849427Y-62400599D01*
X34849766Y-62397899D01*
X34914860Y-61920868D01*
X34915279Y-61918038D01*
X34989112Y-61455609D01*
X34989547Y-61453054D01*
X34992665Y-61435815D01*
X35065282Y-61034235D01*
X35070101Y-61007585D01*
X35070645Y-61004762D01*
X35158728Y-60574025D01*
X35159337Y-60571209D01*
X35199995Y-60393228D01*
X35254208Y-60155903D01*
X35254839Y-60153275D01*
X35355591Y-59752204D01*
X35356248Y-59749698D01*
X35461494Y-59364439D01*
X35462337Y-59361494D01*
X35469338Y-59338120D01*
X35573215Y-58991264D01*
X35573998Y-58988745D01*
X35688612Y-58633343D01*
X35689578Y-58630466D01*
X35808823Y-58289079D01*
X35809741Y-58286540D01*
X35815665Y-58270681D01*
X35932211Y-57958668D01*
X35933067Y-57956440D01*
X35949927Y-57913834D01*
X36057087Y-57643025D01*
X36058203Y-57640299D01*
X36184560Y-57341638D01*
X36185685Y-57339059D01*
X36313824Y-57054093D01*
X36315025Y-57051502D01*
X36445000Y-56779128D01*
X36446185Y-56776711D01*
X36538051Y-56594330D01*
X36576522Y-56517955D01*
X36577580Y-56515902D01*
X36577723Y-56515632D01*
X36707369Y-56269686D01*
X36708769Y-56267102D01*
X36750285Y-56192618D01*
X36838273Y-56034757D01*
X36839441Y-56032709D01*
X36846923Y-56019868D01*
X36963134Y-55820400D01*
X43886500Y-55820400D01*
X43886837Y-55823646D01*
X43886837Y-55823650D01*
X43894925Y-55901597D01*
X43897474Y-55926166D01*
X43899655Y-55932702D01*
X43899655Y-55932704D01*
X43933020Y-56032709D01*
X43953450Y-56093946D01*
X44046522Y-56244348D01*
X44171697Y-56369305D01*
X44177927Y-56373145D01*
X44177928Y-56373146D01*
X44315090Y-56457694D01*
X44322262Y-56462115D01*
X44364402Y-56476092D01*
X44483611Y-56515632D01*
X44483613Y-56515632D01*
X44490139Y-56517797D01*
X44496975Y-56518497D01*
X44496978Y-56518498D01*
X44540031Y-56522909D01*
X44594600Y-56528500D01*
X46845400Y-56528500D01*
X46848646Y-56528163D01*
X46848650Y-56528163D01*
X46944308Y-56518238D01*
X46944312Y-56518237D01*
X46951166Y-56517526D01*
X46957702Y-56515345D01*
X46957704Y-56515345D01*
X47089806Y-56471272D01*
X47118946Y-56461550D01*
X47269348Y-56368478D01*
X47394305Y-56243303D01*
X47487115Y-56092738D01*
X47542797Y-55924861D01*
X47553500Y-55820400D01*
X47553500Y-54919600D01*
X47552450Y-54909478D01*
X47543238Y-54820692D01*
X47543237Y-54820688D01*
X47542526Y-54813834D01*
X47519227Y-54743997D01*
X47488868Y-54653002D01*
X47486550Y-54646054D01*
X47393478Y-54495652D01*
X47268303Y-54370695D01*
X47262072Y-54366854D01*
X47123968Y-54281725D01*
X47123966Y-54281724D01*
X47117738Y-54277885D01*
X46957254Y-54224655D01*
X46956389Y-54224368D01*
X46956387Y-54224368D01*
X46949861Y-54222203D01*
X46943025Y-54221503D01*
X46943022Y-54221502D01*
X46899969Y-54217091D01*
X46845400Y-54211500D01*
X46479500Y-54211500D01*
X46411379Y-54191498D01*
X46364886Y-54137842D01*
X46353500Y-54085500D01*
X46353500Y-51684594D01*
X46373502Y-51616473D01*
X46390405Y-51595499D01*
X47401838Y-50584066D01*
X47464150Y-50550040D01*
X47534965Y-50555105D01*
X47580028Y-50584066D01*
X47838759Y-50842797D01*
X47841289Y-50844851D01*
X47841293Y-50844855D01*
X47915953Y-50905479D01*
X47915957Y-50905481D01*
X47921306Y-50909825D01*
X47927467Y-50912904D01*
X47927471Y-50912906D01*
X48008426Y-50953356D01*
X48079525Y-50988882D01*
X48169749Y-51010127D01*
X48244565Y-51027744D01*
X48244567Y-51027744D01*
X48251688Y-51029421D01*
X48259004Y-51029415D01*
X48259007Y-51029415D01*
X48340314Y-51029344D01*
X48428558Y-51029267D01*
X48514604Y-51008847D01*
X48593529Y-50990118D01*
X48593530Y-50990118D01*
X48600650Y-50988428D01*
X48652416Y-50962449D01*
X48752581Y-50912180D01*
X48758730Y-50909094D01*
X48764065Y-50904751D01*
X48837669Y-50844828D01*
X48837675Y-50844822D01*
X48840163Y-50842797D01*
X49565513Y-50117447D01*
X49577034Y-50103259D01*
X49628195Y-50040253D01*
X49628197Y-50040249D01*
X49632541Y-50034900D01*
X49635620Y-50028739D01*
X49635622Y-50028735D01*
X49708329Y-49883223D01*
X49711598Y-49876681D01*
X49752137Y-49704518D01*
X49752129Y-49694419D01*
X49752022Y-49572284D01*
X49751983Y-49527648D01*
X49731843Y-49442778D01*
X49726102Y-49418586D01*
X49729835Y-49347687D01*
X49759602Y-49300398D01*
X50127137Y-48932863D01*
X50189449Y-48898837D01*
X50245112Y-48899312D01*
X50348266Y-48923602D01*
X50362706Y-48925273D01*
X50524824Y-48925130D01*
X50539263Y-48923434D01*
X50696998Y-48886002D01*
X50710660Y-48881030D01*
X50855946Y-48808117D01*
X50867431Y-48800687D01*
X50940986Y-48740805D01*
X50945757Y-48736497D01*
X51020014Y-48662240D01*
X60384052Y-48662240D01*
X60384183Y-48664073D01*
X60388434Y-48670688D01*
X60559578Y-48841832D01*
X60564440Y-48846216D01*
X60639040Y-48906790D01*
X60650561Y-48914219D01*
X60795961Y-48986871D01*
X60809631Y-48991819D01*
X60967436Y-49028978D01*
X60981876Y-49030649D01*
X61143995Y-49030506D01*
X61153629Y-49029375D01*
X61223618Y-49041295D01*
X61257420Y-49065420D01*
X61718515Y-49526515D01*
X61752541Y-49588827D01*
X61754525Y-49628886D01*
X61753239Y-49634348D01*
X61753245Y-49641667D01*
X61753245Y-49641670D01*
X61753300Y-49704443D01*
X61753393Y-49811218D01*
X61794232Y-49983310D01*
X61797514Y-49989849D01*
X61797514Y-49989850D01*
X61854641Y-50103680D01*
X61873566Y-50141390D01*
X61877908Y-50146723D01*
X61877909Y-50146725D01*
X61937832Y-50220329D01*
X61937838Y-50220335D01*
X61939863Y-50222823D01*
X62665213Y-50948173D01*
X62667744Y-50950228D01*
X62742407Y-51010855D01*
X62742411Y-51010857D01*
X62747760Y-51015201D01*
X62753921Y-51018280D01*
X62753925Y-51018282D01*
X62864754Y-51073659D01*
X62905979Y-51094258D01*
X62984512Y-51112750D01*
X63071019Y-51133120D01*
X63071021Y-51133120D01*
X63078142Y-51134797D01*
X63085458Y-51134791D01*
X63085461Y-51134791D01*
X63166768Y-51134720D01*
X63255012Y-51134643D01*
X63417016Y-51096198D01*
X63419983Y-51095494D01*
X63419984Y-51095494D01*
X63427104Y-51093804D01*
X63483724Y-51065389D01*
X63579035Y-51017556D01*
X63585184Y-51014470D01*
X63600958Y-51001628D01*
X63664123Y-50950204D01*
X63664129Y-50950198D01*
X63666617Y-50948173D01*
X63925348Y-50689442D01*
X63987660Y-50655416D01*
X64058475Y-50660481D01*
X64103538Y-50689442D01*
X64738412Y-51324317D01*
X65369595Y-51955500D01*
X65403621Y-52017812D01*
X65406500Y-52044595D01*
X65406500Y-54085500D01*
X65386498Y-54153621D01*
X65332842Y-54200114D01*
X65280500Y-54211500D01*
X64914600Y-54211500D01*
X64911354Y-54211837D01*
X64911350Y-54211837D01*
X64815692Y-54221762D01*
X64815688Y-54221763D01*
X64808834Y-54222474D01*
X64802298Y-54224655D01*
X64802296Y-54224655D01*
X64687924Y-54262813D01*
X64641054Y-54278450D01*
X64490652Y-54371522D01*
X64365695Y-54496697D01*
X64361855Y-54502927D01*
X64361854Y-54502928D01*
X64291154Y-54617625D01*
X64272885Y-54647262D01*
X64270581Y-54654209D01*
X64220086Y-54806448D01*
X64217203Y-54815139D01*
X64206500Y-54919600D01*
X64206500Y-55820400D01*
X64206837Y-55823646D01*
X64206837Y-55823650D01*
X64214925Y-55901597D01*
X64217474Y-55926166D01*
X64219655Y-55932702D01*
X64219655Y-55932704D01*
X64253020Y-56032709D01*
X64273450Y-56093946D01*
X64366522Y-56244348D01*
X64491697Y-56369305D01*
X64497927Y-56373145D01*
X64497928Y-56373146D01*
X64635090Y-56457694D01*
X64642262Y-56462115D01*
X64684402Y-56476092D01*
X64803611Y-56515632D01*
X64803613Y-56515632D01*
X64810139Y-56517797D01*
X64816975Y-56518497D01*
X64816978Y-56518498D01*
X64860031Y-56522909D01*
X64914600Y-56528500D01*
X67165400Y-56528500D01*
X67168646Y-56528163D01*
X67168650Y-56528163D01*
X67264308Y-56518238D01*
X67264312Y-56518237D01*
X67271166Y-56517526D01*
X67277702Y-56515345D01*
X67277704Y-56515345D01*
X67409806Y-56471272D01*
X67438946Y-56461550D01*
X67589348Y-56368478D01*
X67714305Y-56243303D01*
X67807115Y-56092738D01*
X67862797Y-55924861D01*
X67873500Y-55820400D01*
X67873500Y-54919600D01*
X67872450Y-54909478D01*
X67863238Y-54820692D01*
X67863237Y-54820688D01*
X67862526Y-54813834D01*
X67839227Y-54743997D01*
X67808868Y-54653002D01*
X67806550Y-54646054D01*
X67713478Y-54495652D01*
X67588303Y-54370695D01*
X67582072Y-54366854D01*
X67443968Y-54281725D01*
X67443966Y-54281724D01*
X67437738Y-54277885D01*
X67277254Y-54224655D01*
X67276389Y-54224368D01*
X67276387Y-54224368D01*
X67269861Y-54222203D01*
X67263025Y-54221503D01*
X67263022Y-54221502D01*
X67219969Y-54217091D01*
X67165400Y-54211500D01*
X66799500Y-54211500D01*
X66731379Y-54191498D01*
X66684886Y-54137842D01*
X66673500Y-54085500D01*
X66673500Y-51808767D01*
X66674027Y-51797584D01*
X66675702Y-51790091D01*
X66673562Y-51722000D01*
X66673500Y-51718043D01*
X66673500Y-51690144D01*
X66672996Y-51686153D01*
X66672063Y-51674311D01*
X66670923Y-51638036D01*
X66670674Y-51630111D01*
X66668462Y-51622497D01*
X66668461Y-51622492D01*
X66665023Y-51610659D01*
X66661012Y-51591295D01*
X66659467Y-51579064D01*
X66658474Y-51571203D01*
X66655557Y-51563836D01*
X66655556Y-51563831D01*
X66642198Y-51530092D01*
X66638354Y-51518865D01*
X66628230Y-51484022D01*
X66626018Y-51476407D01*
X66615707Y-51458972D01*
X66607012Y-51441224D01*
X66599552Y-51422383D01*
X66573564Y-51386613D01*
X66567048Y-51376693D01*
X66548580Y-51345465D01*
X66548578Y-51345462D01*
X66544542Y-51338638D01*
X66530221Y-51324317D01*
X66517380Y-51309283D01*
X66510131Y-51299306D01*
X66505472Y-51292893D01*
X66471395Y-51264702D01*
X66462616Y-51256712D01*
X64999442Y-49793538D01*
X64965416Y-49731226D01*
X64970481Y-49660411D01*
X64999442Y-49615348D01*
X65258173Y-49356617D01*
X65264457Y-49348878D01*
X65320855Y-49279423D01*
X65320857Y-49279419D01*
X65325201Y-49274070D01*
X65328280Y-49267909D01*
X65328282Y-49267905D01*
X65400989Y-49122393D01*
X65404258Y-49115851D01*
X65430287Y-49005310D01*
X65443120Y-48950811D01*
X65443120Y-48950809D01*
X65444797Y-48943688D01*
X65444790Y-48934686D01*
X65444649Y-48774135D01*
X65444643Y-48766818D01*
X65403804Y-48594726D01*
X65395130Y-48577441D01*
X65327556Y-48442795D01*
X65324470Y-48436646D01*
X65294052Y-48399283D01*
X65260204Y-48357707D01*
X65260198Y-48357701D01*
X65258173Y-48355213D01*
X64532823Y-47629863D01*
X64525642Y-47624032D01*
X64455629Y-47567181D01*
X64455625Y-47567179D01*
X64450276Y-47562835D01*
X64444115Y-47559756D01*
X64444111Y-47559754D01*
X64333282Y-47504377D01*
X64292057Y-47483778D01*
X64170283Y-47455104D01*
X64127017Y-47444916D01*
X64127015Y-47444916D01*
X64119894Y-47443239D01*
X64112578Y-47443245D01*
X64112575Y-47443245D01*
X64031268Y-47443316D01*
X63943024Y-47443393D01*
X63914176Y-47450239D01*
X63814565Y-47473877D01*
X63743666Y-47470144D01*
X63696377Y-47440377D01*
X63343665Y-47087665D01*
X63309639Y-47025353D01*
X63310114Y-46969691D01*
X63338978Y-46847113D01*
X63340649Y-46832670D01*
X63340506Y-46670552D01*
X63338810Y-46656113D01*
X63301378Y-46498378D01*
X63296406Y-46484716D01*
X63223493Y-46339430D01*
X63216063Y-46327945D01*
X63156181Y-46254390D01*
X63151873Y-46249619D01*
X62983920Y-46081666D01*
X62969976Y-46074052D01*
X62968143Y-46074183D01*
X62961528Y-46078434D01*
X60391666Y-48648296D01*
X60384052Y-48662240D01*
X51020014Y-48662240D01*
X51113710Y-48568544D01*
X51121324Y-48554600D01*
X51121193Y-48552767D01*
X51116942Y-48546152D01*
X49651922Y-47081132D01*
X50374408Y-47081132D01*
X50374539Y-47082965D01*
X50378790Y-47089580D01*
X51472920Y-48183710D01*
X51486864Y-48191324D01*
X51488697Y-48191193D01*
X51495312Y-48186942D01*
X51666456Y-48015798D01*
X51670840Y-48010936D01*
X51731414Y-47936336D01*
X51738843Y-47924815D01*
X51811495Y-47779415D01*
X51816443Y-47765745D01*
X51853602Y-47607940D01*
X51855273Y-47593500D01*
X51855224Y-47538082D01*
X59650103Y-47538082D01*
X59650246Y-47700200D01*
X59651942Y-47714639D01*
X59689374Y-47872374D01*
X59694346Y-47886036D01*
X59767259Y-48031322D01*
X59774689Y-48042807D01*
X59834571Y-48116362D01*
X59838879Y-48121133D01*
X60006832Y-48289086D01*
X60020776Y-48296700D01*
X60022609Y-48296569D01*
X60029224Y-48292318D01*
X61123354Y-47198188D01*
X61130968Y-47184244D01*
X61130837Y-47182411D01*
X61126586Y-47175796D01*
X60465559Y-46514769D01*
X60451615Y-46507155D01*
X60449782Y-46507286D01*
X60443167Y-46511537D01*
X59838920Y-47115784D01*
X59834536Y-47120646D01*
X59773962Y-47195246D01*
X59766533Y-47206767D01*
X59693881Y-47352167D01*
X59688933Y-47365837D01*
X59651774Y-47523642D01*
X59650103Y-47538082D01*
X51855224Y-47538082D01*
X51855130Y-47431382D01*
X51853434Y-47416943D01*
X51816002Y-47259207D01*
X51811030Y-47245546D01*
X51738118Y-47100260D01*
X51730687Y-47088775D01*
X51670805Y-47015220D01*
X51666497Y-47010449D01*
X51065441Y-46409393D01*
X51051497Y-46401779D01*
X51049664Y-46401910D01*
X51043049Y-46406161D01*
X50382022Y-47067188D01*
X50374408Y-47081132D01*
X49651922Y-47081132D01*
X48547080Y-45976290D01*
X48533136Y-45968676D01*
X48531303Y-45968807D01*
X48524688Y-45973058D01*
X48353544Y-46144202D01*
X48349160Y-46149064D01*
X48288586Y-46223664D01*
X48281157Y-46235185D01*
X48208505Y-46380585D01*
X48203557Y-46394255D01*
X48166398Y-46552060D01*
X48164727Y-46566500D01*
X48164870Y-46728619D01*
X48166565Y-46743051D01*
X48166889Y-46744416D01*
X48166838Y-46745378D01*
X48167420Y-46750329D01*
X48166573Y-46750429D01*
X48163160Y-46815315D01*
X48133390Y-46862610D01*
X47689270Y-47306730D01*
X47626958Y-47340756D01*
X47575434Y-47340315D01*
X47575426Y-47340382D01*
X47574804Y-47340310D01*
X47571293Y-47340280D01*
X47568153Y-47339540D01*
X47568147Y-47339539D01*
X47561028Y-47337863D01*
X47553712Y-47337869D01*
X47553709Y-47337869D01*
X47472402Y-47337940D01*
X47384158Y-47338017D01*
X47343717Y-47347614D01*
X47219187Y-47377166D01*
X47219186Y-47377166D01*
X47212066Y-47378856D01*
X47205527Y-47382138D01*
X47205526Y-47382138D01*
X47080103Y-47445083D01*
X47053986Y-47458190D01*
X47048653Y-47462532D01*
X47048651Y-47462533D01*
X46975047Y-47522456D01*
X46975041Y-47522462D01*
X46972553Y-47524487D01*
X46247203Y-48249837D01*
X46245149Y-48252367D01*
X46245145Y-48252371D01*
X46184521Y-48327031D01*
X46184519Y-48327035D01*
X46180175Y-48332384D01*
X46177096Y-48338545D01*
X46177094Y-48338549D01*
X46145025Y-48402730D01*
X46101118Y-48490603D01*
X46099442Y-48497722D01*
X46064667Y-48645407D01*
X46060579Y-48662766D01*
X46060733Y-48839636D01*
X46062423Y-48846757D01*
X46091586Y-48969646D01*
X46101572Y-49011728D01*
X46180906Y-49169808D01*
X46185248Y-49175141D01*
X46185249Y-49175143D01*
X46245172Y-49248747D01*
X46245178Y-49248753D01*
X46247203Y-49251241D01*
X46505934Y-49509972D01*
X46539960Y-49572284D01*
X46534895Y-49643099D01*
X46505934Y-49688162D01*
X45857957Y-50336138D01*
X45327747Y-50866348D01*
X45319461Y-50873888D01*
X45312982Y-50878000D01*
X45307557Y-50883777D01*
X45266357Y-50927651D01*
X45263602Y-50930493D01*
X45243865Y-50950230D01*
X45241385Y-50953427D01*
X45233682Y-50962447D01*
X45203414Y-50994679D01*
X45199595Y-51001625D01*
X45199593Y-51001628D01*
X45193652Y-51012434D01*
X45182801Y-51028953D01*
X45170386Y-51044959D01*
X45167241Y-51052228D01*
X45167238Y-51052232D01*
X45152826Y-51085537D01*
X45147609Y-51096187D01*
X45126305Y-51134940D01*
X45124334Y-51142615D01*
X45124334Y-51142616D01*
X45121267Y-51154562D01*
X45114863Y-51173266D01*
X45106819Y-51191855D01*
X45105580Y-51199678D01*
X45105577Y-51199688D01*
X45099901Y-51235524D01*
X45097495Y-51247144D01*
X45092987Y-51264702D01*
X45086500Y-51289970D01*
X45086500Y-51310224D01*
X45084949Y-51329934D01*
X45081780Y-51349943D01*
X45082526Y-51357835D01*
X45085941Y-51393961D01*
X45086500Y-51405819D01*
X45086500Y-54085500D01*
X45066498Y-54153621D01*
X45012842Y-54200114D01*
X44960500Y-54211500D01*
X44594600Y-54211500D01*
X44591354Y-54211837D01*
X44591350Y-54211837D01*
X44495692Y-54221762D01*
X44495688Y-54221763D01*
X44488834Y-54222474D01*
X44482298Y-54224655D01*
X44482296Y-54224655D01*
X44367924Y-54262813D01*
X44321054Y-54278450D01*
X44170652Y-54371522D01*
X44045695Y-54496697D01*
X44041855Y-54502927D01*
X44041854Y-54502928D01*
X43971154Y-54617625D01*
X43952885Y-54647262D01*
X43950581Y-54654209D01*
X43900086Y-54806448D01*
X43897203Y-54815139D01*
X43886500Y-54919600D01*
X43886500Y-55820400D01*
X36963134Y-55820400D01*
X36966608Y-55814438D01*
X36968128Y-55811898D01*
X37095294Y-55605016D01*
X37096464Y-55603150D01*
X37171834Y-55485204D01*
X37220568Y-55408942D01*
X37222110Y-55406588D01*
X37344374Y-55224613D01*
X37345415Y-55223088D01*
X37463388Y-55053207D01*
X37465084Y-55050828D01*
X37477400Y-55033970D01*
X37579471Y-54894250D01*
X37580723Y-54892565D01*
X37691507Y-54746105D01*
X37693137Y-54743997D01*
X37798808Y-54610272D01*
X37800083Y-54608685D01*
X37858257Y-54537463D01*
X37899066Y-54487500D01*
X37900967Y-54485229D01*
X37996745Y-54373487D01*
X37997014Y-54373176D01*
X38014208Y-54353403D01*
X38032336Y-54336311D01*
X38033123Y-54335704D01*
X38033124Y-54335703D01*
X38040231Y-54330222D01*
X38065832Y-54295065D01*
X38067242Y-54293129D01*
X38074012Y-54284628D01*
X38076736Y-54281495D01*
X38079676Y-54278114D01*
X38089570Y-54262797D01*
X38093543Y-54257008D01*
X38120688Y-54219730D01*
X38120689Y-54219728D01*
X38125971Y-54212474D01*
X38129005Y-54204029D01*
X38131549Y-54199226D01*
X38133821Y-54194289D01*
X38138694Y-54186744D01*
X38141255Y-54178132D01*
X38154405Y-54133907D01*
X38156598Y-54127219D01*
X38158130Y-54122954D01*
X38175216Y-54075394D01*
X38175758Y-54066431D01*
X38176857Y-54061084D01*
X38177649Y-54055728D01*
X38180206Y-54047127D01*
X38180264Y-54034456D01*
X38180430Y-53997605D01*
X38180455Y-53992020D01*
X38180684Y-53984984D01*
X38181129Y-53977633D01*
X38181973Y-53963679D01*
X38181231Y-53955812D01*
X38180675Y-53943409D01*
X38180682Y-53941822D01*
X38180865Y-53901472D01*
X38177024Y-53888115D01*
X38172675Y-53865129D01*
X38172314Y-53861294D01*
X38163252Y-53765232D01*
X38160283Y-53733311D01*
X38147366Y-53594465D01*
X38147347Y-53594262D01*
X38144041Y-53558081D01*
X38130325Y-53408015D01*
X38115993Y-53250358D01*
X38115989Y-53250285D01*
X38115995Y-53250193D01*
X38112455Y-53211435D01*
X38112463Y-53211434D01*
X38112451Y-53211389D01*
X38109106Y-53174600D01*
X38109085Y-53174509D01*
X38109076Y-53174442D01*
X38101915Y-53096053D01*
X38096985Y-53042084D01*
X38096979Y-53041959D01*
X38096990Y-53041779D01*
X38093318Y-53001934D01*
X38090070Y-52966381D01*
X38090031Y-52966217D01*
X38090013Y-52966077D01*
X38073438Y-52786243D01*
X38073401Y-52785835D01*
X38056994Y-52601254D01*
X38056979Y-52600956D01*
X38057001Y-52600612D01*
X38053445Y-52561323D01*
X38050270Y-52525608D01*
X38050191Y-52525273D01*
X38050155Y-52524987D01*
X38032473Y-52329634D01*
X38032452Y-52329397D01*
X38019517Y-52183415D01*
X38014989Y-52132310D01*
X38014967Y-52131896D01*
X38014998Y-52131414D01*
X38011480Y-52092713D01*
X38008293Y-52056748D01*
X38008181Y-52056273D01*
X38008130Y-52055864D01*
X37989552Y-51851505D01*
X37989495Y-51850858D01*
X37971989Y-51646619D01*
X37971956Y-51645941D01*
X37972007Y-51645162D01*
X37969980Y-51622492D01*
X37968602Y-51607082D01*
X37968561Y-51606622D01*
X37965710Y-51573365D01*
X37965524Y-51571194D01*
X37965347Y-51570431D01*
X37965261Y-51569735D01*
X37964024Y-51555894D01*
X37948885Y-51386613D01*
X37946611Y-51361181D01*
X37946563Y-51360633D01*
X37932213Y-51191855D01*
X37925752Y-51115865D01*
X37911933Y-50945894D01*
X37908995Y-50909756D01*
X37908955Y-50908865D01*
X37909024Y-50907865D01*
X37905761Y-50869950D01*
X37905711Y-50869357D01*
X37903719Y-50844855D01*
X37902869Y-50834402D01*
X37902648Y-50833429D01*
X37902540Y-50832527D01*
X37888576Y-50670288D01*
X37884805Y-50626464D01*
X37884739Y-50625665D01*
X37869026Y-50426343D01*
X37869013Y-50426028D01*
X37869039Y-50425680D01*
X37865876Y-50386394D01*
X37865913Y-50386391D01*
X37865859Y-50386183D01*
X37865675Y-50383842D01*
X37863057Y-50350635D01*
X37862980Y-50350291D01*
X37862947Y-50350006D01*
X37846920Y-50150936D01*
X37846895Y-50150614D01*
X37828979Y-49920699D01*
X37828963Y-49920488D01*
X37812105Y-49699356D01*
X37812154Y-49699124D01*
X37812088Y-49699129D01*
X37796123Y-49484599D01*
X37796159Y-49484596D01*
X37796108Y-49484398D01*
X37781289Y-49280879D01*
X37781246Y-49280265D01*
X37778732Y-49242543D01*
X37770357Y-49116920D01*
X37768512Y-49089244D01*
X37768463Y-49088465D01*
X37757602Y-48908766D01*
X37757589Y-48908563D01*
X37753922Y-48846216D01*
X37747751Y-48741322D01*
X37747718Y-48740723D01*
X37739956Y-48590347D01*
X37739914Y-48589452D01*
X37734167Y-48456319D01*
X37734118Y-48455015D01*
X37733341Y-48431311D01*
X37730368Y-48340644D01*
X37730325Y-48339015D01*
X37730317Y-48338549D01*
X37728877Y-48263702D01*
X37728917Y-48262024D01*
X37728905Y-48262024D01*
X37728508Y-48225907D01*
X37728500Y-48224522D01*
X37728500Y-48191487D01*
X37728176Y-48189227D01*
X37728079Y-48186852D01*
X37727896Y-48170261D01*
X37727933Y-48168707D01*
X37728152Y-48167104D01*
X37727455Y-48129819D01*
X37727441Y-48128861D01*
X37727114Y-48099115D01*
X37727068Y-48094902D01*
X37726822Y-48093306D01*
X37726744Y-48091762D01*
X37726131Y-48058992D01*
X37726171Y-48055901D01*
X37726519Y-48053065D01*
X37726186Y-48042807D01*
X37725375Y-48017892D01*
X37725330Y-48016150D01*
X37725324Y-48015798D01*
X37724729Y-47983990D01*
X37724273Y-47981180D01*
X37724079Y-47978005D01*
X37721268Y-47891563D01*
X37721253Y-47891093D01*
X37717316Y-47754299D01*
X37717306Y-47753924D01*
X37717006Y-47742273D01*
X37713395Y-47602365D01*
X37713374Y-47601379D01*
X37712058Y-47526766D01*
X37710458Y-47436088D01*
X37710447Y-47435310D01*
X37710178Y-47410652D01*
X37708525Y-47259462D01*
X37708519Y-47257456D01*
X37709487Y-47066035D01*
X37709491Y-47065479D01*
X37711411Y-46862784D01*
X37711466Y-46860042D01*
X37718144Y-46646331D01*
X37718195Y-46644954D01*
X37727857Y-46415979D01*
X37727945Y-46414190D01*
X37741399Y-46175849D01*
X37741534Y-46173767D01*
X37759709Y-45925061D01*
X37759907Y-45922670D01*
X37783724Y-45664491D01*
X37784000Y-45661808D01*
X37790424Y-45605400D01*
X48898676Y-45605400D01*
X48898807Y-45607233D01*
X48903058Y-45613848D01*
X49997188Y-46707978D01*
X50011132Y-46715592D01*
X50012965Y-46715461D01*
X50019580Y-46711210D01*
X50586911Y-46143879D01*
X60817155Y-46143879D01*
X60817286Y-46145712D01*
X60821537Y-46152327D01*
X61482564Y-46813354D01*
X61496508Y-46820968D01*
X61498341Y-46820837D01*
X61504956Y-46816586D01*
X62599086Y-45722456D01*
X62606700Y-45708512D01*
X62606569Y-45706679D01*
X62602318Y-45700064D01*
X62431174Y-45528920D01*
X62426312Y-45524536D01*
X62351712Y-45463962D01*
X62340191Y-45456533D01*
X62194791Y-45383881D01*
X62181121Y-45378933D01*
X62023316Y-45341774D01*
X62008876Y-45340103D01*
X61846758Y-45340246D01*
X61832319Y-45341942D01*
X61674583Y-45379374D01*
X61660922Y-45384346D01*
X61515636Y-45457258D01*
X61504151Y-45464689D01*
X61430596Y-45524571D01*
X61425825Y-45528879D01*
X60824769Y-46129935D01*
X60817155Y-46143879D01*
X50586911Y-46143879D01*
X50680607Y-46050183D01*
X50688221Y-46036239D01*
X50688090Y-46034406D01*
X50683839Y-46027791D01*
X50079592Y-45423544D01*
X50074730Y-45419160D01*
X50000130Y-45358586D01*
X49988609Y-45351157D01*
X49843209Y-45278505D01*
X49829539Y-45273557D01*
X49671734Y-45236398D01*
X49657294Y-45234727D01*
X49495176Y-45234870D01*
X49480737Y-45236566D01*
X49323002Y-45273998D01*
X49309340Y-45278970D01*
X49164054Y-45351883D01*
X49152569Y-45359313D01*
X49079014Y-45419195D01*
X49074243Y-45423503D01*
X48906290Y-45591456D01*
X48898676Y-45605400D01*
X37790424Y-45605400D01*
X37807272Y-45457453D01*
X37814667Y-45392520D01*
X37814909Y-45390543D01*
X37851470Y-45109604D01*
X37851796Y-45107267D01*
X37866606Y-45008208D01*
X37894785Y-44819718D01*
X37895269Y-44816725D01*
X37946861Y-44520549D01*
X37947321Y-44518060D01*
X37967920Y-44412407D01*
X38006820Y-44212891D01*
X38007354Y-44210296D01*
X38075113Y-43898222D01*
X38075873Y-43894937D01*
X38154121Y-43576225D01*
X38154837Y-43573447D01*
X38221921Y-43324798D01*
X38243163Y-43246062D01*
X38243895Y-43243461D01*
X38299867Y-43052500D01*
X38341385Y-42910848D01*
X38342457Y-42907378D01*
X38452165Y-42569669D01*
X38453177Y-42566681D01*
X38574933Y-42221548D01*
X38576005Y-42218624D01*
X38632068Y-42071408D01*
X38708935Y-41869563D01*
X38710264Y-41866222D01*
X38856179Y-41514312D01*
X38857631Y-41510947D01*
X39018278Y-41153316D01*
X39019745Y-41150167D01*
X39039435Y-41109380D01*
X39194150Y-40788899D01*
X39195688Y-40785822D01*
X39198417Y-40780545D01*
X39384269Y-40421104D01*
X39386065Y-40417756D01*
X39397656Y-40396915D01*
X39590104Y-40050871D01*
X39591856Y-40047822D01*
X39811052Y-39678347D01*
X39813206Y-39674848D01*
X40049834Y-39304100D01*
X40051774Y-39301153D01*
X40304942Y-38928114D01*
X40307310Y-38924745D01*
X40439248Y-38743389D01*
X40578613Y-38551824D01*
X40580864Y-38548825D01*
X40649006Y-38460828D01*
X40871984Y-38172874D01*
X40874027Y-38170306D01*
X40959301Y-38065931D01*
X41073713Y-37925892D01*
X41076851Y-37922495D01*
X41080416Y-37919940D01*
X41122551Y-37866154D01*
X41124149Y-37864157D01*
X41139054Y-37845914D01*
X41139055Y-37845912D01*
X41141888Y-37842445D01*
X41143923Y-37839071D01*
X41146807Y-37835191D01*
X41170241Y-37805277D01*
X41178061Y-37785701D01*
X41187178Y-37767364D01*
X41193433Y-37756994D01*
X41193434Y-37756991D01*
X41198070Y-37749306D01*
X41200369Y-37740604D01*
X41206797Y-37716276D01*
X41211606Y-37701723D01*
X41215866Y-37691058D01*
X41224273Y-37670011D01*
X41226285Y-37649018D01*
X41229889Y-37628861D01*
X41232982Y-37617156D01*
X41232982Y-37617155D01*
X41235274Y-37608480D01*
X41234379Y-37574334D01*
X41234911Y-37559014D01*
X41237097Y-37536203D01*
X41238169Y-37525018D01*
X41236483Y-37516202D01*
X41236483Y-37516197D01*
X41234209Y-37504305D01*
X41232010Y-37483947D01*
X41231692Y-37471846D01*
X41231457Y-37462872D01*
X41228583Y-37453919D01*
X41221014Y-37430347D01*
X41217223Y-37415490D01*
X41210810Y-37381952D01*
X41201202Y-37363197D01*
X41193375Y-37344267D01*
X41189671Y-37332731D01*
X41186928Y-37324188D01*
X41167779Y-37295906D01*
X41159972Y-37282714D01*
X41159687Y-37282158D01*
X41144399Y-37252316D01*
X41138230Y-37245799D01*
X41138227Y-37245794D01*
X41129908Y-37237005D01*
X41117083Y-37221034D01*
X41110296Y-37211010D01*
X41110295Y-37211009D01*
X41105263Y-37203577D01*
X41098346Y-37197855D01*
X41078945Y-37181806D01*
X41067748Y-37171333D01*
X41050442Y-37153049D01*
X41044272Y-37146530D01*
X41032485Y-37139649D01*
X41026065Y-37135901D01*
X41009275Y-37124172D01*
X40999945Y-37116454D01*
X40999940Y-37116451D01*
X40993029Y-37110734D01*
X40984790Y-37107186D01*
X40984787Y-37107184D01*
X40961663Y-37097226D01*
X40947978Y-37090317D01*
X40926234Y-37077624D01*
X40926229Y-37077622D01*
X40918479Y-37073098D01*
X40909771Y-37070931D01*
X40909769Y-37070930D01*
X40898019Y-37068006D01*
X40878617Y-37061463D01*
X40859249Y-37053123D01*
X40850340Y-37052029D01*
X40850339Y-37052029D01*
X40825354Y-37048962D01*
X40819433Y-37047866D01*
X40819401Y-37048054D01*
X40814590Y-37047245D01*
X40809873Y-37046071D01*
X40788066Y-37044115D01*
X40781988Y-37043570D01*
X40777892Y-37043135D01*
X40723590Y-37036469D01*
X40723588Y-37036469D01*
X40714676Y-37035375D01*
X40707937Y-37036479D01*
X40699726Y-37036193D01*
X34956746Y-36521190D01*
X34953881Y-36520899D01*
X34841507Y-36508177D01*
X34826080Y-36505449D01*
X34747642Y-36486482D01*
X34733552Y-36482189D01*
X34656701Y-36453764D01*
X34643411Y-36447958D01*
X34574163Y-36412832D01*
X34560336Y-36404671D01*
X34521257Y-36378110D01*
X34494798Y-36360126D01*
X34483768Y-36351704D01*
X34423232Y-36299962D01*
X34412051Y-36289142D01*
X34358035Y-36229984D01*
X34348945Y-36218806D01*
X34301935Y-36153716D01*
X34293713Y-36140729D01*
X34253765Y-36068192D01*
X34247605Y-36055337D01*
X34223583Y-35996929D01*
X34219024Y-35983837D01*
X34195326Y-35901434D01*
X34192005Y-35886546D01*
X34179136Y-35806237D01*
X34177643Y-35791175D01*
X34174623Y-35713169D01*
X34174970Y-35697764D01*
X34181737Y-35617084D01*
X34183711Y-35603062D01*
X34196159Y-35540406D01*
X34199357Y-35524312D01*
X34203165Y-35509757D01*
X34204585Y-35505410D01*
X34227065Y-35436564D01*
X34232870Y-35421948D01*
X34266788Y-35349998D01*
X34273502Y-35337605D01*
X34316795Y-35267387D01*
X34325502Y-35254999D01*
X34377418Y-35189838D01*
X34386869Y-35179258D01*
X34439329Y-35126798D01*
X34446424Y-35120227D01*
X34459247Y-35109236D01*
X34459248Y-35109235D01*
X34462650Y-35106319D01*
X34465593Y-35102963D01*
X34471732Y-35097285D01*
X34490330Y-35081200D01*
X34492414Y-35079437D01*
X34533843Y-35045178D01*
X34535859Y-35043549D01*
X34595834Y-34996105D01*
X34596328Y-34995716D01*
X34669610Y-34938521D01*
X34672480Y-34936347D01*
X34757553Y-34873845D01*
X34759738Y-34872276D01*
X34864762Y-34798576D01*
X34865936Y-34797763D01*
X34984588Y-34716822D01*
X34987348Y-34714992D01*
X35121971Y-34628318D01*
X35123680Y-34627237D01*
X35215533Y-34570185D01*
X35275965Y-34532650D01*
X35277659Y-34531617D01*
X35442739Y-34432756D01*
X35445740Y-34431014D01*
X35559515Y-34367089D01*
X35626517Y-34329444D01*
X35628751Y-34328219D01*
X35827695Y-34221676D01*
X35830238Y-34220351D01*
X35833260Y-34218820D01*
X36044642Y-34111733D01*
X36047085Y-34110528D01*
X36279842Y-33998920D01*
X36281843Y-33997982D01*
X36426433Y-33931744D01*
X36438178Y-33927061D01*
X36454076Y-33921630D01*
X36477311Y-33913693D01*
X36525990Y-33879405D01*
X36530356Y-33876464D01*
X36572895Y-33849088D01*
X36580444Y-33844230D01*
X36585997Y-33837828D01*
X36586365Y-33837540D01*
X36589132Y-33835038D01*
X36589457Y-33834700D01*
X36596393Y-33829814D01*
X36633522Y-33783203D01*
X36636862Y-33779186D01*
X36646389Y-33768203D01*
X36648576Y-33765681D01*
X36670003Y-33740978D01*
X36670005Y-33740975D01*
X36675884Y-33734197D01*
X36679418Y-33726490D01*
X36679689Y-33726113D01*
X36681650Y-33722922D01*
X36681863Y-33722513D01*
X36687145Y-33715883D01*
X36709688Y-33660753D01*
X36711785Y-33655918D01*
X36732860Y-33609966D01*
X36732860Y-33609965D01*
X36736605Y-33601800D01*
X36737835Y-33593404D01*
X36737989Y-33592966D01*
X36738974Y-33589364D01*
X36739064Y-33588911D01*
X36742274Y-33581061D01*
X36748437Y-33521822D01*
X36749093Y-33516590D01*
X36756425Y-33466562D01*
X36756425Y-33466558D01*
X36757726Y-33457681D01*
X36756551Y-33449281D01*
X36756577Y-33448802D01*
X36756512Y-33445101D01*
X36756469Y-33444618D01*
X36757346Y-33436185D01*
X36746638Y-33377612D01*
X36745799Y-33372408D01*
X36742971Y-33352188D01*
X36737549Y-33313428D01*
X36734063Y-33305694D01*
X36733955Y-33305236D01*
X36732849Y-33301684D01*
X36732675Y-33301240D01*
X36731151Y-33292902D01*
X36704434Y-33239691D01*
X36702167Y-33234930D01*
X36681382Y-33188815D01*
X36681382Y-33188814D01*
X36677695Y-33180635D01*
X36672180Y-33174192D01*
X36671949Y-33173785D01*
X36669889Y-33170685D01*
X36669599Y-33170309D01*
X36665794Y-33162731D01*
X36625211Y-33119150D01*
X36621704Y-33115222D01*
X36588816Y-33076800D01*
X36588811Y-33076796D01*
X36582977Y-33069980D01*
X36575878Y-33065345D01*
X36575542Y-33065019D01*
X36572699Y-33062626D01*
X36572311Y-33062344D01*
X36566530Y-33056136D01*
X36515327Y-33025685D01*
X36510895Y-33022923D01*
X36461009Y-32990356D01*
X36427925Y-32980344D01*
X36417662Y-32977238D01*
X36407183Y-32973555D01*
X36245428Y-32908564D01*
X36240106Y-32906253D01*
X36236233Y-32904064D01*
X36231687Y-32902353D01*
X36231675Y-32902347D01*
X36205661Y-32892554D01*
X36203136Y-32891572D01*
X36175698Y-32880548D01*
X36171391Y-32879494D01*
X36165713Y-32877515D01*
X36150376Y-32871741D01*
X36144611Y-32869391D01*
X36140491Y-32867186D01*
X36110034Y-32856518D01*
X36107319Y-32855531D01*
X36084182Y-32846821D01*
X36079988Y-32845242D01*
X36075616Y-32844274D01*
X36074989Y-32844088D01*
X36069236Y-32842227D01*
X36062859Y-32839993D01*
X35962999Y-32805015D01*
X35957037Y-32802755D01*
X35955333Y-32802060D01*
X35950987Y-32799880D01*
X35921245Y-32790343D01*
X35918179Y-32789314D01*
X35891644Y-32780020D01*
X35887238Y-32779151D01*
X35884001Y-32778270D01*
X35878649Y-32776684D01*
X35766294Y-32740658D01*
X35760097Y-32738491D01*
X35759493Y-32738262D01*
X35755080Y-32736186D01*
X35724725Y-32727286D01*
X35721717Y-32726363D01*
X35698769Y-32719005D01*
X35698767Y-32719005D01*
X35694496Y-32717635D01*
X35690074Y-32716885D01*
X35687990Y-32716377D01*
X35682389Y-32714874D01*
X35591416Y-32688201D01*
X35563162Y-32679917D01*
X35557495Y-32678085D01*
X35553361Y-32676252D01*
X35544370Y-32673833D01*
X35521977Y-32667809D01*
X35519256Y-32667044D01*
X35495339Y-32660031D01*
X35495329Y-32660029D01*
X35491029Y-32658768D01*
X35486592Y-32658129D01*
X35486512Y-32658112D01*
X35480545Y-32656661D01*
X35355259Y-32622954D01*
X35351817Y-32621913D01*
X35348887Y-32620668D01*
X35344183Y-32619480D01*
X35344176Y-32619478D01*
X35315188Y-32612160D01*
X35313366Y-32611685D01*
X35282848Y-32603474D01*
X35279689Y-32603091D01*
X35276094Y-32602289D01*
X35145777Y-32569388D01*
X35141788Y-32568253D01*
X35138499Y-32566922D01*
X35105291Y-32559147D01*
X35103178Y-32558632D01*
X35077427Y-32552131D01*
X35077420Y-32552130D01*
X35073076Y-32551033D01*
X35069566Y-32550663D01*
X35065370Y-32549799D01*
X34952291Y-32523322D01*
X34932470Y-32518681D01*
X34929873Y-32517984D01*
X34927483Y-32517051D01*
X34922727Y-32515999D01*
X34922723Y-32515998D01*
X34892628Y-32509343D01*
X34891105Y-32508996D01*
X34863752Y-32502591D01*
X34863746Y-32502590D01*
X34859377Y-32501567D01*
X34856827Y-32501342D01*
X34854131Y-32500829D01*
X34718393Y-32470810D01*
X34715409Y-32470050D01*
X34712739Y-32469050D01*
X34707965Y-32468063D01*
X34707958Y-32468061D01*
X34678286Y-32461926D01*
X34676591Y-32461564D01*
X34649530Y-32455580D01*
X34649528Y-32455580D01*
X34645152Y-32454612D01*
X34642311Y-32454397D01*
X34639193Y-32453846D01*
X34503872Y-32425871D01*
X34502025Y-32425423D01*
X34500207Y-32424761D01*
X34495435Y-32423820D01*
X34495430Y-32423819D01*
X34464258Y-32417675D01*
X34463116Y-32417445D01*
X34434583Y-32411546D01*
X34434577Y-32411545D01*
X34430189Y-32410638D01*
X34428270Y-32410520D01*
X34426358Y-32410204D01*
X34291138Y-32383550D01*
X34288331Y-32382902D01*
X34285776Y-32382010D01*
X34250779Y-32375586D01*
X34249409Y-32375325D01*
X34217517Y-32369038D01*
X34214818Y-32368897D01*
X34211892Y-32368447D01*
X34085643Y-32345271D01*
X34078082Y-32343883D01*
X34076750Y-32343590D01*
X34075381Y-32343122D01*
X34038452Y-32336605D01*
X34037601Y-32336451D01*
X34007660Y-32330955D01*
X34007659Y-32330955D01*
X34003901Y-32330265D01*
X34002451Y-32330208D01*
X34001119Y-32330017D01*
X33918818Y-32315493D01*
X33870733Y-32307007D01*
X33869531Y-32306751D01*
X33868276Y-32306331D01*
X33864763Y-32305734D01*
X33864750Y-32305731D01*
X33841276Y-32301741D01*
X33831043Y-32300001D01*
X33830543Y-32299915D01*
X33796412Y-32293892D01*
X33795090Y-32293849D01*
X33793873Y-32293683D01*
X33667309Y-32272167D01*
X33665087Y-32271713D01*
X33662959Y-32271026D01*
X33658151Y-32270262D01*
X33658148Y-32270261D01*
X33627220Y-32265345D01*
X33625879Y-32265124D01*
X33597667Y-32260327D01*
X33597653Y-32260326D01*
X33593226Y-32259573D01*
X33590989Y-32259515D01*
X33588712Y-32259223D01*
X33481985Y-32242256D01*
X33467461Y-32239947D01*
X33466603Y-32239779D01*
X33465673Y-32239483D01*
X33434133Y-32234618D01*
X33427941Y-32233663D01*
X33427367Y-32233573D01*
X33395418Y-32228494D01*
X33395417Y-32228494D01*
X33392776Y-32228074D01*
X33391806Y-32228059D01*
X33390940Y-32227955D01*
X33366439Y-32224176D01*
X33277049Y-32210387D01*
X33275967Y-32210180D01*
X33274805Y-32209818D01*
X33237449Y-32204276D01*
X33236787Y-32204176D01*
X33228451Y-32202890D01*
X33205686Y-32199378D01*
X33205678Y-32199377D01*
X33202436Y-32198877D01*
X33201221Y-32198864D01*
X33200092Y-32198734D01*
X33092469Y-32182769D01*
X33091939Y-32182670D01*
X33091343Y-32182486D01*
X33053204Y-32176943D01*
X33052835Y-32176889D01*
X33019248Y-32171906D01*
X33019247Y-32171906D01*
X33017502Y-32171647D01*
X33016880Y-32171644D01*
X33016341Y-32171584D01*
X32939800Y-32160459D01*
X32918407Y-32157350D01*
X32916311Y-32156973D01*
X32914273Y-32156368D01*
X32909453Y-32155717D01*
X32909451Y-32155717D01*
X32893558Y-32153572D01*
X32878149Y-32151492D01*
X32876977Y-32151328D01*
X32844008Y-32146536D01*
X32841891Y-32146532D01*
X32839737Y-32146308D01*
X32793508Y-32140068D01*
X32750877Y-32134314D01*
X32750294Y-32134213D01*
X32749611Y-32134013D01*
X32747625Y-32133752D01*
X32747621Y-32133751D01*
X32711616Y-32129014D01*
X32711197Y-32128959D01*
X32675830Y-32124185D01*
X32675129Y-32124191D01*
X32674496Y-32124129D01*
X32559885Y-32109049D01*
X32559258Y-32108965D01*
X32528422Y-32104750D01*
X32460214Y-32095427D01*
X32458276Y-32095095D01*
X32456356Y-32094541D01*
X32420088Y-32089936D01*
X32418893Y-32089779D01*
X32416568Y-32089461D01*
X32385690Y-32085240D01*
X32383697Y-32085253D01*
X32381722Y-32085064D01*
X32330249Y-32078528D01*
X32330105Y-32078504D01*
X32329933Y-32078454D01*
X32329407Y-32078388D01*
X32329403Y-32078387D01*
X32291182Y-32073566D01*
X32291080Y-32073553D01*
X32283505Y-32072591D01*
X32254835Y-32068951D01*
X32254646Y-32068954D01*
X32254522Y-32068942D01*
X32198607Y-32061891D01*
X32181317Y-32059710D01*
X32181292Y-32059707D01*
X32089266Y-32048082D01*
X32087472Y-32047842D01*
X32072122Y-32045678D01*
X32052648Y-32042931D01*
X32051660Y-32042756D01*
X32050579Y-32042434D01*
X32013010Y-32037340D01*
X32012344Y-32037248D01*
X31977854Y-32032384D01*
X31977874Y-32032244D01*
X31966574Y-32030651D01*
X31945221Y-32026075D01*
X31945218Y-32026075D01*
X31940843Y-32025137D01*
X31939017Y-32025011D01*
X31937226Y-32024702D01*
X31856253Y-32008092D01*
X31845316Y-32005848D01*
X31833883Y-32002939D01*
X31751506Y-31977817D01*
X31739733Y-31973577D01*
X31676141Y-31947038D01*
X31662896Y-31940577D01*
X31612367Y-31912155D01*
X31601195Y-31905074D01*
X31556302Y-31873200D01*
X31545670Y-31864754D01*
X31511028Y-31834049D01*
X31500621Y-31823680D01*
X31471047Y-31790558D01*
X31463282Y-31780952D01*
X31435635Y-31743096D01*
X31428636Y-31732416D01*
X31403769Y-31689916D01*
X31398674Y-31680272D01*
X31377688Y-31636018D01*
X31372983Y-31624709D01*
X31354532Y-31573457D01*
X31351978Y-31565552D01*
X31335289Y-31507430D01*
X31333033Y-31498304D01*
X31320477Y-31437913D01*
X31319233Y-31430956D01*
X31309191Y-31364010D01*
X31308422Y-31357856D01*
X31301809Y-31291724D01*
X31301293Y-31284435D01*
X31300775Y-31271998D01*
X31298751Y-31223430D01*
X31298649Y-31216848D01*
X31298665Y-31215438D01*
X31299354Y-31151314D01*
X31299474Y-31147012D01*
X31302601Y-31077433D01*
X31302802Y-31074007D01*
X31306872Y-31017698D01*
X31307592Y-31010566D01*
X31310713Y-30986542D01*
X31314672Y-30956053D01*
X31314906Y-30954354D01*
X31322675Y-30900751D01*
X31323371Y-30896469D01*
X31325110Y-30886825D01*
X31329467Y-30862665D01*
X31330812Y-30856190D01*
X31332033Y-30851004D01*
X31335428Y-30836576D01*
X31336301Y-30832866D01*
X31348241Y-30801568D01*
X31355912Y-30787454D01*
X31358739Y-30782523D01*
X31375316Y-30755067D01*
X31378620Y-30749884D01*
X31395347Y-30725008D01*
X31397144Y-30722336D01*
X31402054Y-30715536D01*
X31423914Y-30687301D01*
X31429359Y-30680741D01*
X31432291Y-30677442D01*
X31455431Y-30651410D01*
X31461876Y-30644678D01*
X31491788Y-30615673D01*
X31499714Y-30608611D01*
X31531347Y-30582730D01*
X31541513Y-30575230D01*
X31553077Y-30567564D01*
X31581023Y-30549038D01*
X31590363Y-30543414D01*
X31639266Y-30516783D01*
X31650627Y-30511315D01*
X31707342Y-30487435D01*
X31718655Y-30483296D01*
X31788557Y-30461452D01*
X31800268Y-30458402D01*
X31895084Y-30438510D01*
X31902395Y-30437200D01*
X31922747Y-30434169D01*
X31925997Y-30433728D01*
X32049552Y-30418603D01*
X32490394Y-30364638D01*
X32493315Y-30364314D01*
X33046088Y-30309816D01*
X33049150Y-30309552D01*
X33590797Y-30269683D01*
X33593758Y-30269500D01*
X33945391Y-30252048D01*
X34122195Y-30243273D01*
X34125369Y-30243155D01*
X34642702Y-30230537D01*
X34645774Y-30230500D01*
X35150526Y-30230500D01*
X35153495Y-30230535D01*
G37*
G04 #@! TD.AperFunction*
M02*
