<?xml version="1.0" encoding="UTF-8" standalone="no"?>
<!DOCTYPE svg PUBLIC "-//W3C//DTD SVG 1.1//EN" "http://www.w3.org/Graphics/SVG/1.1/DTD/svg11.dtd">
<svg width="100%" height="100%" viewBox="0 0 5000 10000" version="1.1" xmlns="http://www.w3.org/2000/svg" xmlns:xlink="http://www.w3.org/1999/xlink" xml:space="preserve" xmlns:serif="http://www.serif.com/" style="fill-rule:evenodd;clip-rule:evenodd;stroke-linejoin:round;stroke-miterlimit:1.5;">
    <g id="Edge.Cuts">
        <path id="Rand" d="M2498.11,342.12C2961.31,234.03 3304.83,333.119 3461.89,397.704C3629.91,243.644 4091.36,-85.353 4883.55,21.765C4952.55,31.097 4974.37,75.842 4982.01,90.264C5006.65,136.75 5011.97,190.792 4959.07,243.878C4955.25,247.708 4933.32,273.587 4882.09,281.771C4846.28,287.491 4614.6,311.101 4475.64,362.102C4465.69,365.754 4455.31,369.887 4444.68,374.366C4591.76,440.166 4659.44,503.766 4659.44,503.766C4698.68,539.178 4712.74,594.727 4695.08,644.543C4677.42,694.359 4631.51,728.646 4578.73,731.437L3996.6,783.645C4397.27,1261.13 4347.08,1751.3 4347.08,1851.47C4347.08,1935.72 4315.22,2283.81 4301.86,2425.9C4404.5,2541.58 4627.6,2861.33 4651.9,3474.97C4681.62,4225.46 4423.58,5003.51 4397.14,5082.22C4370.98,5160.06 4238.9,5455.89 4182.8,5552.79C4129.37,5645.08 3781.65,6173.25 3742.12,6238.53C3706.42,6297.49 3290.02,6918.3 3153.04,7063.68C3153.04,7063.68 3040.66,7263.73 2932.83,7395.52C2836.98,7512.66 2717.49,7612.94 2586.78,7647.49C2583.48,7648.36 2550.5,7652.53 2511.39,7652.45C2464.62,7652.36 2407.26,7647.81 2403.32,7646.77C2272.61,7612.22 2153.12,7511.94 2057.27,7394.79C1949.44,7263.01 1837.06,7062.96 1837.06,7062.96C1700.08,6917.57 1283.68,6296.77 1247.98,6237.81C1208.45,6172.53 860.726,5644.35 807.299,5552.07C751.198,5455.17 619.117,5159.34 592.964,5081.5C566.515,5002.78 308.479,4224.74 338.201,3474.24C362.504,2860.6 585.608,2540.85 688.221,2425.2C674.877,2283.09 643.019,1934.99 643.019,1850.75C643.019,1750.57 592.832,1260.41 993.499,782.922L411.372,730.714C358.592,727.923 312.681,693.636 295.02,643.82C277.36,594.004 291.422,538.455 330.657,503.043C330.657,503.043 398.338,439.443 545.419,373.643C534.793,369.164 524.409,365.031 514.459,361.379C375.504,310.378 143.814,286.768 108.007,281.048C-34.322,258.311 3.15,98.859 8.087,89.541C15.73,75.119 37.546,30.374 106.555,21.042C900.029,-86.251 1361.69,243.994 1529.01,397.729C1687.17,334.28 2035.39,235.337 2498.11,342.12Z" style="fill:none;stroke:rgb(255,241,241);stroke-width:0.35px;"/>
    </g>
    <g id="F.Cu">
        <path id="Ausen-Rand" serif:id="Ausen Rand" d="M2498.11,342.12C2961.31,234.03 3304.83,333.119 3461.89,397.704C3629.91,243.644 4091.36,-85.353 4883.55,21.765C4952.55,31.097 4974.37,75.842 4982.01,90.264C5006.65,136.75 5011.97,190.792 4959.07,243.878C4955.25,247.708 4933.32,273.587 4882.09,281.771C4846.28,287.491 4614.6,311.101 4475.64,362.102C4465.69,365.754 4455.31,369.887 4444.68,374.366C4591.76,440.166 4659.44,503.766 4659.44,503.766C4698.68,539.178 4712.74,594.727 4695.08,644.543C4677.42,694.359 4631.51,728.646 4578.73,731.437L3996.6,783.645C4397.27,1261.13 4347.08,1751.3 4347.08,1851.47C4347.08,1935.72 4315.22,2283.81 4301.86,2425.9C4404.5,2541.58 4627.6,2861.33 4651.9,3474.97C4681.62,4225.46 4423.58,5003.51 4397.14,5082.22C4370.98,5160.06 4238.9,5455.89 4182.8,5552.79C4129.37,5645.08 3781.65,6173.25 3742.12,6238.53C3706.42,6297.49 3290.02,6918.3 3153.04,7063.68C3153.04,7063.68 3040.66,7263.73 2932.83,7395.52C2836.98,7512.66 2717.49,7612.94 2586.78,7647.49C2583.48,7648.36 2550.5,7652.53 2511.39,7652.45C2464.62,7652.36 2407.26,7647.81 2403.32,7646.77C2272.61,7612.22 2153.12,7511.94 2057.27,7394.79C1949.44,7263.01 1837.06,7062.96 1837.06,7062.96C1700.08,6917.57 1283.68,6296.77 1247.98,6237.81C1208.45,6172.53 860.726,5644.35 807.299,5552.07C751.198,5455.17 619.117,5159.34 592.964,5081.5C566.515,5002.78 308.479,4224.74 338.201,3474.24C362.504,2860.6 585.608,2540.85 688.221,2425.2C674.877,2283.09 643.019,1934.99 643.019,1850.75C643.019,1750.57 592.832,1260.41 993.499,782.922L411.372,730.714C358.592,727.923 312.681,693.636 295.02,643.82C277.36,594.004 291.422,538.455 330.657,503.043C330.657,503.043 398.338,439.443 545.419,373.643C534.793,369.164 524.409,365.031 514.459,361.379C375.504,310.378 143.814,286.768 108.007,281.048C-34.322,258.311 3.15,98.859 8.087,89.541C15.73,75.119 37.546,30.374 106.555,21.042C900.029,-86.251 1361.69,243.994 1529.01,397.729C1687.17,334.28 2035.39,235.337 2498.11,342.12ZM3117.04,1604.63C3116.63,1609.08 3222.88,1710.44 3135.18,1793.96C3048.56,1876.46 2974.65,1769.35 2970.54,1772.4C2815.62,1887.3 2872.22,1940.93 2884.16,1952.14C2978.25,2040.57 3165.78,2038.01 3244.95,1950.89C3469.75,1703.55 3247.33,1498.8 3243.28,1500.01C3239.23,1501.23 3117.44,1600.18 3117.04,1604.63ZM1887.36,1604.63C1886.95,1600.18 1765.16,1501.23 1761.12,1500.01C1757.07,1498.8 1534.65,1703.55 1759.45,1950.89C1838.62,2038.01 2026.14,2040.57 2120.24,1952.14C2132.17,1940.93 2188.78,1887.3 2033.85,1772.4C2029.75,1769.35 1955.84,1876.46 1869.22,1793.96C1781.52,1710.44 1887.76,1609.08 1887.36,1604.63Z" style="stroke:rgb(255,241,241);stroke-width:0.35px;"/>
    </g>
    <g id="F.Mask">
        <g id="Umrandung">
            <path d="M2496.27,475.66C1895.79,326.721 1498.89,554.141 1498.89,554.141C1498.89,554.141 1062.84,22.734 122.8,149.845C109.58,151.633 394.453,177.707 558.239,237.822C722.025,297.936 892.595,398.784 846.641,409.585C549.971,479.317 416.999,599.331 416.999,599.331C416.999,599.331 1314.05,646.766 1261.87,692.915C711.18,1179.99 772.515,1745.51 772.515,1849.96C772.515,1954.4 822.874,2472.59 822.874,2472.59C822.874,2472.59 496.453,2749.95 467.594,3478.63C438.735,4207.31 689.969,4962.63 715.649,5039.06C740.477,5112.95 865.937,5393.77 919.195,5485.76C972.454,5577.75 1319.16,6104.2 1358.57,6169.28C1393.54,6227.04 1803.83,6840.51 1933.38,6975.03C1978.92,7022.32 2170.09,7449.39 2435.47,7519.55C2440.01,7520.75 2341.41,7303.22 2294.57,7063.86C2263.37,6904.45 2106.55,6502.22 1802.61,6192.86C1775.98,6165.75 1455.78,6113.81 1343.99,5998.91C1298.3,5951.95 1042.9,5732.55 876.535,5082.35C709.199,4428.34 786.148,3404.45 1013.69,3084.33C1241.24,2764.22 1824.69,2638.2 2036.48,3066.37C2044.04,3081.65 2077.07,2536.82 1521.82,2525.03C1087.33,2515.81 877.677,2719.67 698.501,3383.08C694.552,3397.7 758.5,2925.79 1038.43,2611.63C1192.83,2436.53 1200.99,2300.57 1205.95,2272.68C1210.91,2244.79 1529.37,2696.85 2075.89,2375.03C2100.22,2360.7 1632.85,2525.11 1304.09,2166.53C985.876,1819.45 1185.91,1534.36 1185.91,1534.36C1185.91,1534.36 939.369,1793.66 1064.84,2092.9C1070.65,2106.75 914.35,2308.32 906.417,2299.99C893.442,2286.37 913.391,1386.88 1201.01,1092.58C1212.78,1080.53 1256.32,1028.1 1293.35,985.382C1316.36,958.841 1425.92,847.666 1570.26,766.326C1570.93,765.945 1680.61,795.17 1831.32,843.018C2061.25,916.015 2179.14,1080.07 2185.34,1086.26C2209.61,1110.53 2096.2,782.595 1807.3,678.788C1792.45,673.453 2136.94,525.541 2494.86,571.323C2495.62,571.419 2516.32,570.535 2517.83,570.353C2865.75,528.296 3195.09,674.176 3180.24,679.511C2891.34,783.318 2777.94,1111.25 2802.2,1086.99C2808.4,1080.79 2926.3,916.738 3156.22,843.741C3306.94,795.893 3416.61,766.668 3417.29,767.049C3561.62,848.389 3671.18,959.564 3694.19,986.105C3731.22,1028.82 3774.76,1081.25 3786.54,1093.3C4074.15,1387.6 4094.1,2287.09 4081.12,2300.72C4073.19,2309.05 3916.89,2107.48 3922.7,2093.62C4048.17,1794.38 3801.64,1535.09 3801.64,1535.09C3801.64,1535.09 4001.67,1820.17 3683.45,2167.25C3354.69,2525.83 2887.32,2361.42 2911.66,2375.75C3458.18,2697.58 3776.63,2245.51 3781.59,2273.4C3786.55,2301.29 3794.72,2437.25 3949.11,2612.35C4229.04,2926.51 4292.99,3398.43 4289.04,3383.8C4109.86,2720.39 3900.22,2516.53 3465.73,2525.76C2910.47,2537.54 2943.5,3082.37 2951.06,3067.09C3162.85,2638.93 3746.31,2764.94 3973.85,3085.05C4201.39,3405.17 4278.34,4429.07 4111.01,5083.07C3944.65,5733.27 3689.24,5952.67 3643.55,5999.63C3531.76,6114.53 3211.56,6166.48 3184.93,6193.58C2880.99,6502.94 2724.17,6905.17 2692.98,7064.58C2646.13,7303.94 2547.53,7521.47 2552.08,7520.27C2817.45,7450.12 3008.63,7023.04 3054.17,6975.75C3183.71,6841.23 3594,6227.77 3628.98,6170C3668.38,6104.93 4015.09,5578.47 4068.35,5486.48C4121.61,5394.49 4247.07,5113.67 4271.89,5039.78C4297.57,4963.35 4548.81,4208.03 4519.95,3479.35C4491.09,2750.67 4164.67,2473.31 4164.67,2473.31C4164.67,2473.31 4215.03,1955.13 4215.03,1850.68C4215.03,1746.23 4276.36,1180.71 3725.67,693.638C3673.49,647.489 4570.54,600.054 4570.54,600.054C4570.54,600.054 4437.57,480.04 4140.9,410.308C4094.95,399.507 4265.52,298.659 4429.3,238.545C4593.09,178.43 4877.96,152.356 4864.74,150.568C3924.7,23.457 3488.65,554.864 3488.65,554.864C3488.65,554.864 3097.73,326.721 2497.25,475.66L2496.27,475.66Z" style="fill:rgb(204,159,51);"/>
        </g>
        <g id="Flammen">
            <path d="M2050.3,3203.57C2052.23,3197.27 2074.02,3417.44 2121.64,3499.78C2155.55,3558.42 2249.95,3840.7 2243.66,4007.66C2237.54,4170.03 2254.31,4409.02 1999.76,4629C1996.34,4631.96 2045.78,4568.39 2038.36,4500.49C2027.72,4402.94 1983.66,4432.64 1943.68,4093.1C1903.54,3752.24 2026.76,3280.56 2050.3,3203.57Z" style="fill:rgb(134,166,89);stroke:black;stroke-width:0.35px;"/>
            <path d="M1767.08,3544.4C1724.71,3671.1 1711.57,3838.5 1824.47,4061.83C1954.75,4319.55 1914.2,4803.68 1815.1,4974.52C1672.34,5220.62 1812.97,5485.26 1821,5506.67C1823.76,5514.04 1445.42,5073.67 1522.68,4409.84C1595.59,3783.45 1767.08,3544.4 1767.08,3544.4Z" style="fill:rgb(134,166,89);stroke:black;stroke-width:0.35px;"/>
            <path d="M2075.67,4761.38C2085.35,4761.38 2002.64,5184.5 2246.32,5392.67C2281.8,5422.98 2393.12,5623.69 2193.06,5740.39C2121.74,5782 1956.27,5688.32 1924.77,5428.53C1896.5,5195.28 1863.18,5126.98 2075.67,4761.38Z" style="fill:rgb(134,166,89);stroke:black;stroke-width:0.35px;"/>
            <path d="M2478.39,5858.45C2478.39,5858.45 2352.69,6065.73 2338.76,6155.34C2331.59,6201.43 2300.64,6301.59 2415.29,6509.64C2436.88,6548.83 2471.85,6661.16 2477.58,6663C2484.2,6665.12 2495.56,6565.54 2569.27,6449.99C2637.26,6343.42 2624.33,6107.02 2558,6016.94C2537.35,5988.89 2478.39,5858.45 2478.39,5858.45Z" style="fill:rgb(134,166,89);stroke:black;stroke-width:0.35px;"/>
            <path d="M2470.16,3013.55C2468.88,3013.32 2442.87,3119.98 2408.08,3230.68C2378.36,3325.24 2339.89,3421.73 2330.97,3467.45C2311.6,3566.71 2330.49,3709.34 2418.12,3852.37C2462.22,3924.36 2441.27,4023.85 2449.75,4028.69C2454.64,4031.49 2468.8,3947.15 2558.88,3793.91C2601.83,3720.85 2612.01,3545.73 2605.54,3498.88C2600.44,3461.95 2578,3365.26 2522.58,3242.39C2489.62,3169.33 2477.24,3014.82 2470.16,3013.55Z" style="fill:rgb(134,166,89);stroke:black;stroke-width:0.35px;"/>
            <path d="M1135.11,4300.02C1148.73,4300.02 1239.18,4619.28 1353.75,4817.82C1456.95,4996.69 1628.97,5611.09 1664.23,5729.68C1710.69,5885.94 1814.23,6050.23 1810.36,6054.11C1806.48,6057.98 1116.26,5934.52 1082.87,5130.43C1069.01,4796.86 1121.5,4300.02 1135.11,4300.02Z" style="fill:rgb(134,166,89);stroke:black;stroke-width:0.35px;"/>
            <path d="M2932.16,3207.06C2930.24,3200.76 2908.45,3420.94 2860.83,3503.28C2826.91,3561.92 2732.52,3844.2 2738.81,4011.15C2744.93,4173.52 2728.16,4412.52 2982.7,4632.5C2986.13,4635.46 2936.69,4571.89 2944.1,4503.99C2954.75,4406.43 2998.8,4436.13 3038.79,4096.6C3078.93,3755.73 2955.7,3284.05 2932.16,3207.06Z" style="fill:rgb(134,166,89);stroke:black;stroke-width:0.35px;"/>
            <path d="M3215.38,3547.9C3257.76,3674.59 3270.89,3842 3158,4065.33C3027.72,4323.05 3068.27,4807.17 3167.37,4978.01C3310.13,5224.11 3169.49,5488.76 3161.47,5510.16C3158.71,5517.54 3537.05,5077.16 3459.78,4413.34C3386.88,3786.95 3215.38,3547.9 3215.38,3547.9Z" style="fill:rgb(134,166,89);stroke:black;stroke-width:0.35px;"/>
            <path d="M2906.8,4764.87C2897.11,4764.87 2979.83,5188 2736.14,5396.17C2700.67,5426.48 2589.35,5627.18 2789.41,5743.89C2860.73,5785.5 3026.2,5691.81 3057.69,5432.02C3085.97,5198.78 3119.28,5130.47 2906.8,4764.87Z" style="fill:rgb(134,166,89);stroke:black;stroke-width:0.35px;"/>
            <path d="M3847.36,4303.52C3833.74,4303.52 3743.28,4622.77 3628.72,4821.32C3525.52,5000.18 3353.49,5614.59 3318.24,5733.18C3271.77,5889.44 3168.24,6053.73 3172.11,6057.6C3175.98,6061.48 3866.2,5938.02 3899.6,5133.92C3913.46,4800.35 3860.97,4303.52 3847.36,4303.52Z" style="fill:rgb(134,166,89);stroke:black;stroke-width:0.35px;"/>
        </g>
        <g id="Schnabel">
            <path d="M2500.7,2868.31C2493.69,2868.31 2471.61,2749.66 2403.59,2642.84C2340.07,2543.08 2246.9,2473.62 2216.01,2425.43C2202.08,2403.7 2190.02,2274.78 2241.67,2159.98C2277.69,2079.92 2429.92,1882.77 2571,1957.88C2816.53,2088.62 2815.29,2433.39 2753.43,2475.17C2540.17,2619.19 2514.25,2868.31 2500.7,2868.31ZM2313.29,2351.91C2321.17,2373 2382.52,2434.37 2424.67,2494.31C2472.72,2562.65 2497.91,2629.24 2498.7,2626.55C2541.29,2481.94 2690.86,2409.74 2686,2314.32C2677.77,2152.9 2496.95,2044.53 2496.95,2044.53C2496.95,2044.53 2421.07,2093.7 2373.76,2160.85C2324.26,2231.11 2304.68,2328.85 2313.29,2351.91Z" style="fill:rgb(230,169,26);"/>
        </g>
        <g id="Augen">
            <path id="Links" d="M2341.77,1991.74C2342.92,1995.41 2176.03,2178.94 2002.02,2192.76C1313.2,2247.48 1396.28,1610.65 1396.34,1615.21C1403.09,2156.85 1934.54,2106.38 1928.72,2106.15C1636.24,2094.74 1595.62,1831.99 1591.97,1785.1C1573.83,1552.57 1746.13,1479.89 1744.25,1477.8C1627.24,1347.82 1195.76,1097.51 1195.76,1097.51L1287.68,991.074C1287.68,991.074 2079.87,1157.72 2341.77,1991.74ZM1887.36,1604.63C1886.95,1600.18 1765.16,1501.23 1761.12,1500.01C1757.07,1498.8 1534.65,1703.55 1759.45,1950.89C1838.62,2038.01 2026.14,2040.57 2120.24,1952.14C2132.17,1940.93 2188.78,1887.3 2033.85,1772.4C2029.75,1769.35 1955.84,1876.46 1869.22,1793.96C1781.52,1710.44 1887.76,1609.08 1887.36,1604.63Z" style="fill:rgb(204,159,51);"/>
            <path id="Rechts" d="M2662.63,1991.74C2924.53,1157.72 3705.74,996.168 3705.74,996.168L3796.85,1101.55C3796.85,1101.55 3377.16,1347.82 3260.15,1477.8C3258.26,1479.89 3430.56,1552.57 3412.43,1785.1C3408.77,1831.99 3368.16,2094.74 3075.68,2106.15C3069.86,2106.38 3601.31,2156.85 3608.06,1615.21C3608.12,1610.65 3691.19,2247.48 3002.38,2192.76C2828.36,2178.94 2661.47,1995.41 2662.63,1991.74ZM3117.04,1604.63C3116.63,1609.08 3222.88,1710.44 3135.18,1793.96C3048.56,1876.46 2974.65,1769.35 2970.54,1772.4C2815.62,1887.3 2872.22,1940.93 2884.16,1952.14C2978.25,2040.57 3165.78,2038.01 3244.95,1950.89C3469.75,1703.55 3247.33,1498.8 3243.28,1500.01C3239.23,1501.23 3117.44,1600.18 3117.04,1604.63Z" style="fill:rgb(204,159,51);"/>
        </g>
    </g>
</svg>
