G04 #@! TF.GenerationSoftware,KiCad,Pcbnew,(6.0.10)*
G04 #@! TF.CreationDate,2023-01-13T20:49:35+01:00*
G04 #@! TF.ProjectId,Eule,45756c65-2e6b-4696-9361-645f70636258,rev?*
G04 #@! TF.SameCoordinates,Original*
G04 #@! TF.FileFunction,Soldermask,Bot*
G04 #@! TF.FilePolarity,Negative*
%FSLAX46Y46*%
G04 Gerber Fmt 4.6, Leading zero omitted, Abs format (unit mm)*
G04 Created by KiCad (PCBNEW (6.0.10)) date 2023-01-13 20:49:35*
%MOMM*%
%LPD*%
G01*
G04 APERTURE LIST*
G04 Aperture macros list*
%AMRoundRect*
0 Rectangle with rounded corners*
0 $1 Rounding radius*
0 $2 $3 $4 $5 $6 $7 $8 $9 X,Y pos of 4 corners*
0 Add a 4 corners polygon primitive as box body*
4,1,4,$2,$3,$4,$5,$6,$7,$8,$9,$2,$3,0*
0 Add four circle primitives for the rounded corners*
1,1,$1+$1,$2,$3*
1,1,$1+$1,$4,$5*
1,1,$1+$1,$6,$7*
1,1,$1+$1,$8,$9*
0 Add four rect primitives between the rounded corners*
20,1,$1+$1,$2,$3,$4,$5,0*
20,1,$1+$1,$4,$5,$6,$7,0*
20,1,$1+$1,$6,$7,$8,$9,0*
20,1,$1+$1,$8,$9,$2,$3,0*%
G04 Aperture macros list end*
%ADD10C,0.150000*%
%ADD11C,5.075000*%
%ADD12R,2.600000X3.600000*%
%ADD13RoundRect,0.250000X1.075000X-0.400000X1.075000X0.400000X-1.075000X0.400000X-1.075000X-0.400000X0*%
%ADD14RoundRect,0.250001X-0.433103X1.087175X-1.087175X0.433103X0.433103X-1.087175X1.087175X-0.433103X0*%
%ADD15RoundRect,0.250001X-1.087175X-0.433103X-0.433103X-1.087175X1.087175X0.433103X0.433103X1.087175X0*%
%ADD16R,1.000000X2.500000*%
G04 APERTURE END LIST*
D10*
G36*
X50546000Y-48514000D02*
G01*
X49276000Y-49784000D01*
X47371000Y-47752000D01*
X48641000Y-46482000D01*
X50546000Y-48514000D01*
G37*
X50546000Y-48514000D02*
X49276000Y-49784000D01*
X47371000Y-47752000D01*
X48641000Y-46482000D01*
X50546000Y-48514000D01*
G36*
X64135000Y-47879000D02*
G01*
X62230000Y-49784000D01*
X60960000Y-48514000D01*
X62865000Y-46609000D01*
X64135000Y-47879000D01*
G37*
X64135000Y-47879000D02*
X62230000Y-49784000D01*
X60960000Y-48514000D01*
X62865000Y-46609000D01*
X64135000Y-47879000D01*
D11*
X49307500Y-39450000D02*
G75*
G03*
X49307500Y-39450000I-2537500J0D01*
G01*
D10*
X46770000Y-34450000D02*
X64770000Y-34450000D01*
X64770000Y-34450000D02*
X64770000Y-44450000D01*
X64770000Y-44450000D02*
X46770000Y-44450000D01*
X46770000Y-44450000D02*
X46770000Y-34450000D01*
G36*
X46770000Y-34450000D02*
G01*
X64770000Y-34450000D01*
X64770000Y-44450000D01*
X46770000Y-44450000D01*
X46770000Y-34450000D01*
G37*
D11*
X67307500Y-39450000D02*
G75*
G03*
X67307500Y-39450000I-2537500J0D01*
G01*
D10*
X58451666Y-99147380D02*
X58261190Y-99147380D01*
X58165952Y-99195000D01*
X58070714Y-99290238D01*
X58023095Y-99480714D01*
X58023095Y-99814047D01*
X58070714Y-100004523D01*
X58165952Y-100099761D01*
X58261190Y-100147380D01*
X58451666Y-100147380D01*
X58546904Y-100099761D01*
X58642142Y-100004523D01*
X58689761Y-99814047D01*
X58689761Y-99480714D01*
X58642142Y-99290238D01*
X58546904Y-99195000D01*
X58451666Y-99147380D01*
X57737380Y-99480714D02*
X57356428Y-99480714D01*
X57594523Y-100147380D02*
X57594523Y-99290238D01*
X57546904Y-99195000D01*
X57451666Y-99147380D01*
X57356428Y-99147380D01*
X57165952Y-99480714D02*
X56785000Y-99480714D01*
X57023095Y-100147380D02*
X57023095Y-99290238D01*
X56975476Y-99195000D01*
X56880238Y-99147380D01*
X56785000Y-99147380D01*
X54522619Y-99147380D02*
X54332142Y-99147380D01*
X54236904Y-99195000D01*
X54141666Y-99290238D01*
X54094047Y-99480714D01*
X54094047Y-99814047D01*
X54141666Y-100004523D01*
X54236904Y-100099761D01*
X54332142Y-100147380D01*
X54522619Y-100147380D01*
X54617857Y-100099761D01*
X54713095Y-100004523D01*
X54760714Y-99814047D01*
X54760714Y-99480714D01*
X54713095Y-99290238D01*
X54617857Y-99195000D01*
X54522619Y-99147380D01*
X53665476Y-99480714D02*
X53665476Y-100147380D01*
X53665476Y-99575952D02*
X53617857Y-99528333D01*
X53522619Y-99480714D01*
X53379761Y-99480714D01*
X53284523Y-99528333D01*
X53236904Y-99623571D01*
X53236904Y-100147380D01*
D12*
X41290000Y-71120000D03*
X70590000Y-71120000D03*
D13*
X66040000Y-58470000D03*
X66040000Y-55370000D03*
D14*
X50010000Y-47080000D03*
X47906358Y-49183642D03*
D15*
X61495376Y-47185376D03*
X63599018Y-49289018D03*
D16*
X53340000Y-85280000D03*
X55880000Y-85280000D03*
X58420000Y-85280000D03*
D13*
X45720000Y-58470000D03*
X45720000Y-55370000D03*
M02*
