G04 #@! TF.GenerationSoftware,KiCad,Pcbnew,(6.0.10)*
G04 #@! TF.CreationDate,2023-01-13T20:49:35+01:00*
G04 #@! TF.ProjectId,Eule,45756c65-2e6b-4696-9361-645f70636258,rev?*
G04 #@! TF.SameCoordinates,Original*
G04 #@! TF.FileFunction,Legend,Bot*
G04 #@! TF.FilePolarity,Positive*
%FSLAX46Y46*%
G04 Gerber Fmt 4.6, Leading zero omitted, Abs format (unit mm)*
G04 Created by KiCad (PCBNEW (6.0.10)) date 2023-01-13 20:49:35*
%MOMM*%
%LPD*%
G01*
G04 APERTURE LIST*
G04 Aperture macros list*
%AMRoundRect*
0 Rectangle with rounded corners*
0 $1 Rounding radius*
0 $2 $3 $4 $5 $6 $7 $8 $9 X,Y pos of 4 corners*
0 Add a 4 corners polygon primitive as box body*
4,1,4,$2,$3,$4,$5,$6,$7,$8,$9,$2,$3,0*
0 Add four circle primitives for the rounded corners*
1,1,$1+$1,$2,$3*
1,1,$1+$1,$4,$5*
1,1,$1+$1,$6,$7*
1,1,$1+$1,$8,$9*
0 Add four rect primitives between the rounded corners*
20,1,$1+$1,$2,$3,$4,$5,0*
20,1,$1+$1,$4,$5,$6,$7,0*
20,1,$1+$1,$6,$7,$8,$9,0*
20,1,$1+$1,$8,$9,$2,$3,0*%
G04 Aperture macros list end*
%ADD10C,0.150000*%
%ADD11C,0.120000*%
%ADD12R,0.760000X6.000000*%
%ADD13C,5.075000*%
%ADD14R,2.600000X3.600000*%
%ADD15RoundRect,0.250000X1.075000X-0.400000X1.075000X0.400000X-1.075000X0.400000X-1.075000X-0.400000X0*%
%ADD16RoundRect,0.250001X-0.433103X1.087175X-1.087175X0.433103X0.433103X-1.087175X1.087175X-0.433103X0*%
%ADD17RoundRect,0.250001X-1.087175X-0.433103X-0.433103X-1.087175X1.087175X0.433103X0.433103X1.087175X0*%
%ADD18R,1.000000X2.500000*%
G04 APERTURE END LIST*
D10*
X42600714Y-76348571D02*
X42457857Y-76396190D01*
X42410238Y-76443809D01*
X42362619Y-76539047D01*
X42362619Y-76681904D01*
X42410238Y-76777142D01*
X42457857Y-76824761D01*
X42553095Y-76872380D01*
X42934047Y-76872380D01*
X42934047Y-75872380D01*
X42600714Y-75872380D01*
X42505476Y-75920000D01*
X42457857Y-75967619D01*
X42410238Y-76062857D01*
X42410238Y-76158095D01*
X42457857Y-76253333D01*
X42505476Y-76300952D01*
X42600714Y-76348571D01*
X42934047Y-76348571D01*
X42076904Y-75872380D02*
X41505476Y-75872380D01*
X41791190Y-76872380D02*
X41791190Y-75872380D01*
X40648333Y-76872380D02*
X41219761Y-76872380D01*
X40934047Y-76872380D02*
X40934047Y-75872380D01*
X41029285Y-76015238D01*
X41124523Y-76110476D01*
X41219761Y-76158095D01*
X66206666Y-60777380D02*
X66540000Y-60301190D01*
X66778095Y-60777380D02*
X66778095Y-59777380D01*
X66397142Y-59777380D01*
X66301904Y-59825000D01*
X66254285Y-59872619D01*
X66206666Y-59967857D01*
X66206666Y-60110714D01*
X66254285Y-60205952D01*
X66301904Y-60253571D01*
X66397142Y-60301190D01*
X66778095Y-60301190D01*
X65825714Y-59872619D02*
X65778095Y-59825000D01*
X65682857Y-59777380D01*
X65444761Y-59777380D01*
X65349523Y-59825000D01*
X65301904Y-59872619D01*
X65254285Y-59967857D01*
X65254285Y-60063095D01*
X65301904Y-60205952D01*
X65873333Y-60777380D01*
X65254285Y-60777380D01*
X48187769Y-46317587D02*
X47480663Y-45610480D01*
X47312304Y-45778839D01*
X47244960Y-45913526D01*
X47244960Y-46048213D01*
X47278632Y-46149228D01*
X47379647Y-46317587D01*
X47480663Y-46418602D01*
X47649021Y-46519618D01*
X47750037Y-46553289D01*
X47884724Y-46553289D01*
X48019411Y-46485946D01*
X48187769Y-46317587D01*
X47110273Y-47395083D02*
X47514334Y-46991022D01*
X47312304Y-47193053D02*
X46605197Y-46485946D01*
X46773556Y-46519618D01*
X46908243Y-46519618D01*
X47009258Y-46485946D01*
X65611793Y-46152969D02*
X64904687Y-45445862D01*
X64736328Y-45614221D01*
X64668984Y-45748908D01*
X64668984Y-45883595D01*
X64702656Y-45984610D01*
X64803671Y-46152969D01*
X64904687Y-46253984D01*
X65073045Y-46355000D01*
X65174061Y-46388671D01*
X65308748Y-46388671D01*
X65443435Y-46321328D01*
X65611793Y-46152969D01*
X64298595Y-46186641D02*
X64231251Y-46186641D01*
X64130236Y-46220312D01*
X63961877Y-46388671D01*
X63928206Y-46489687D01*
X63928206Y-46557030D01*
X63961877Y-46658045D01*
X64029221Y-46725389D01*
X64163908Y-46792732D01*
X64972030Y-46792732D01*
X64534297Y-47230465D01*
X50498333Y-89777380D02*
X50498333Y-90491666D01*
X50545952Y-90634523D01*
X50641190Y-90729761D01*
X50784047Y-90777380D01*
X50879285Y-90777380D01*
X49498333Y-90777380D02*
X50069761Y-90777380D01*
X49784047Y-90777380D02*
X49784047Y-89777380D01*
X49879285Y-89920238D01*
X49974523Y-90015476D01*
X50069761Y-90063095D01*
X45886666Y-60777380D02*
X46220000Y-60301190D01*
X46458095Y-60777380D02*
X46458095Y-59777380D01*
X46077142Y-59777380D01*
X45981904Y-59825000D01*
X45934285Y-59872619D01*
X45886666Y-59967857D01*
X45886666Y-60110714D01*
X45934285Y-60205952D01*
X45981904Y-60253571D01*
X46077142Y-60301190D01*
X46458095Y-60301190D01*
X44934285Y-60777380D02*
X45505714Y-60777380D01*
X45220000Y-60777380D02*
X45220000Y-59777380D01*
X45315238Y-59920238D01*
X45410476Y-60015476D01*
X45505714Y-60063095D01*
D11*
X41390000Y-67270000D02*
X41390000Y-68820000D01*
X67290000Y-67270000D02*
X70490000Y-67270000D01*
X44590000Y-74970000D02*
X41390000Y-74970000D01*
X44590000Y-79470000D02*
X44590000Y-74970000D01*
X43940000Y-65120000D02*
X41940000Y-65120000D01*
X67290000Y-79470000D02*
X67290000Y-74970000D01*
X42940000Y-66120000D02*
X42940000Y-64120000D01*
X44590000Y-64570000D02*
X44590000Y-67270000D01*
X67290000Y-62770000D02*
X67290000Y-67270000D01*
X70490000Y-67270000D02*
X70490000Y-68820000D01*
X67290000Y-74970000D02*
X70490000Y-74970000D01*
X41390000Y-74970000D02*
X41390000Y-73420000D01*
X44590000Y-79470000D02*
X67290000Y-79470000D01*
X44590000Y-67270000D02*
X41390000Y-67270000D01*
X70490000Y-74970000D02*
X70490000Y-73420000D01*
X46390000Y-62770000D02*
X44590000Y-64570000D01*
X67290000Y-62770000D02*
X46390000Y-62770000D01*
X67395000Y-57643737D02*
X67395000Y-56196263D01*
X64685000Y-57643737D02*
X64685000Y-56196263D01*
X46706044Y-48142428D02*
X49576897Y-45271574D01*
X49576897Y-45271574D02*
X51818426Y-47513103D01*
X51818426Y-47513103D02*
X48947572Y-50383956D01*
X59686950Y-47618479D02*
X61928479Y-45376950D01*
X61928479Y-45376950D02*
X64799332Y-48247804D01*
X62557804Y-50489332D02*
X59686950Y-47618479D01*
X59810000Y-91700000D02*
X59810000Y-88960000D01*
X57980000Y-97700000D02*
X58860000Y-97700000D01*
X53780000Y-97700000D02*
X53780000Y-91700000D01*
X57980000Y-91700000D02*
X57980000Y-97700000D01*
X53780000Y-86850000D02*
X53780000Y-88960000D01*
X55440000Y-91700000D02*
X55440000Y-97700000D01*
X55440000Y-97700000D02*
X56320000Y-97700000D01*
X57980000Y-86850000D02*
X57980000Y-88960000D01*
X56320000Y-86850000D02*
X56320000Y-88960000D01*
X51950000Y-88960000D02*
X51950000Y-91700000D01*
X52520000Y-83710000D02*
X52520000Y-85280000D01*
X56320000Y-97700000D02*
X56320000Y-91700000D01*
X51950000Y-91700000D02*
X59810000Y-91700000D01*
X59810000Y-88960000D02*
X51950000Y-88960000D01*
X53340000Y-83710000D02*
X52520000Y-83710000D01*
X58860000Y-97700000D02*
X58860000Y-91700000D01*
X52900000Y-97700000D02*
X53780000Y-97700000D01*
X55440000Y-86850000D02*
X55440000Y-88960000D01*
X58860000Y-86850000D02*
X58860000Y-88960000D01*
X52900000Y-91700000D02*
X52900000Y-97700000D01*
X52900000Y-86850000D02*
X52900000Y-88960000D01*
X44365000Y-57643737D02*
X44365000Y-56196263D01*
X47075000Y-57643737D02*
X47075000Y-56196263D01*
D12*
X53340000Y-94700000D03*
%LPC*%
D10*
G36*
X50546000Y-48514000D02*
G01*
X49276000Y-49784000D01*
X47371000Y-47752000D01*
X48641000Y-46482000D01*
X50546000Y-48514000D01*
G37*
X50546000Y-48514000D02*
X49276000Y-49784000D01*
X47371000Y-47752000D01*
X48641000Y-46482000D01*
X50546000Y-48514000D01*
G36*
X64135000Y-47879000D02*
G01*
X62230000Y-49784000D01*
X60960000Y-48514000D01*
X62865000Y-46609000D01*
X64135000Y-47879000D01*
G37*
X64135000Y-47879000D02*
X62230000Y-49784000D01*
X60960000Y-48514000D01*
X62865000Y-46609000D01*
X64135000Y-47879000D01*
D13*
X49307500Y-39450000D02*
G75*
G03*
X49307500Y-39450000I-2537500J0D01*
G01*
D10*
X46770000Y-34450000D02*
X64770000Y-34450000D01*
X64770000Y-34450000D02*
X64770000Y-44450000D01*
X64770000Y-44450000D02*
X46770000Y-44450000D01*
X46770000Y-44450000D02*
X46770000Y-34450000D01*
G36*
X46770000Y-34450000D02*
G01*
X64770000Y-34450000D01*
X64770000Y-44450000D01*
X46770000Y-44450000D01*
X46770000Y-34450000D01*
G37*
D13*
X67307500Y-39450000D02*
G75*
G03*
X67307500Y-39450000I-2537500J0D01*
G01*
D10*
X58451666Y-99147380D02*
X58261190Y-99147380D01*
X58165952Y-99195000D01*
X58070714Y-99290238D01*
X58023095Y-99480714D01*
X58023095Y-99814047D01*
X58070714Y-100004523D01*
X58165952Y-100099761D01*
X58261190Y-100147380D01*
X58451666Y-100147380D01*
X58546904Y-100099761D01*
X58642142Y-100004523D01*
X58689761Y-99814047D01*
X58689761Y-99480714D01*
X58642142Y-99290238D01*
X58546904Y-99195000D01*
X58451666Y-99147380D01*
X57737380Y-99480714D02*
X57356428Y-99480714D01*
X57594523Y-100147380D02*
X57594523Y-99290238D01*
X57546904Y-99195000D01*
X57451666Y-99147380D01*
X57356428Y-99147380D01*
X57165952Y-99480714D02*
X56785000Y-99480714D01*
X57023095Y-100147380D02*
X57023095Y-99290238D01*
X56975476Y-99195000D01*
X56880238Y-99147380D01*
X56785000Y-99147380D01*
X54522619Y-99147380D02*
X54332142Y-99147380D01*
X54236904Y-99195000D01*
X54141666Y-99290238D01*
X54094047Y-99480714D01*
X54094047Y-99814047D01*
X54141666Y-100004523D01*
X54236904Y-100099761D01*
X54332142Y-100147380D01*
X54522619Y-100147380D01*
X54617857Y-100099761D01*
X54713095Y-100004523D01*
X54760714Y-99814047D01*
X54760714Y-99480714D01*
X54713095Y-99290238D01*
X54617857Y-99195000D01*
X54522619Y-99147380D01*
X53665476Y-99480714D02*
X53665476Y-100147380D01*
X53665476Y-99575952D02*
X53617857Y-99528333D01*
X53522619Y-99480714D01*
X53379761Y-99480714D01*
X53284523Y-99528333D01*
X53236904Y-99623571D01*
X53236904Y-100147380D01*
D14*
X41290000Y-71120000D03*
X70590000Y-71120000D03*
D15*
X66040000Y-58470000D03*
X66040000Y-55370000D03*
D16*
X50010000Y-47080000D03*
X47906358Y-49183642D03*
D17*
X61495376Y-47185376D03*
X63599018Y-49289018D03*
D18*
X53340000Y-85280000D03*
X55880000Y-85280000D03*
X58420000Y-85280000D03*
D15*
X45720000Y-58470000D03*
X45720000Y-55370000D03*
M02*
